<svg width="456" height="521" viewBox="0 0 456 521" fill="none" xmlns="http://www.w3.org/2000/svg">
<g clip-path="url(#clip0_1976_915)">
<rect y="0.84375" width="456" height="520" rx="8" fill="#FB370D"/>
<path d="M351.455 292.39C350.434 294.876 349.851 297.691 348.292 299.773C346.188 302.584 345.083 305.766 343.693 308.854C342.819 310.798 343.235 312.769 344.063 314.683C345.533 318.088 347.028 321.489 348.368 324.949C350.363 330.103 350.065 335.185 347.381 340.036C345.15 344.065 342.81 348.03 340.517 352.021C340.345 352.324 340.223 352.725 339.959 352.893C336.422 355.198 336.371 359.046 335.985 362.557C335.368 368.195 332.814 372.903 329.273 376.986C327.151 379.43 324.148 381.103 321.04 383.505C322.694 387.85 324.446 392.523 326.253 397.172C327.744 401.015 328.97 404.998 328.269 409.094C327.681 412.541 325.501 415.356 323.14 417.952C319.674 421.766 316.264 425.63 312.874 429.511C312.559 429.874 312.441 430.498 312.416 431.012C312.349 432.2 312.269 433.414 312.416 434.59C313 439.247 310.274 442.222 307.132 444.852C303.205 448.138 298.219 449.027 293.476 450.414C291.523 450.983 289.545 451.464 287.613 452.087C278.661 454.965 269.774 458.046 260.763 460.705C255.698 462.201 250.414 463.023 245.238 460.92C244.125 460.469 243.139 459.571 242.26 458.707C241.542 458 241.13 457.346 239.866 457.844C233.003 460.545 226.03 462.981 219.217 465.804C214.226 467.873 209.43 470.414 204.536 472.724C200.907 474.435 197.803 476.926 195.434 480.061C194.455 481.355 194.649 483.555 194.367 485.354C194.081 487.2 193.435 488.772 191.633 489.632C190.436 490.205 189.742 489.982 189.276 488.599C185.576 477.613 181.644 466.702 178.208 455.631C177.456 453.208 176.292 452.243 174.264 451.699C171.983 451.088 170.563 449.597 170.034 447.401C169.215 444.026 168.652 440.587 167.87 437.203C167.559 435.85 167.228 434.881 165.355 434.177C162.17 432.984 159.255 430.805 156.563 428.627C152.459 425.306 149.397 421.037 146.902 416.376C146.058 414.8 145.894 413.279 146.398 411.45C147.574 407.177 148.813 402.865 149.338 398.482C150.535 388.487 152.035 378.6 156.084 369.442C150.372 365.072 144.806 360.816 139.236 356.555C139.018 356.387 138.833 356.151 138.593 356.037C133.691 353.681 134.229 351.17 134.893 346.378C135.342 343.108 135.473 342.83 132.764 341.274C131.709 340.672 130.701 339.99 129.659 339.365C128.122 338.443 126.681 337.79 124.66 337.747C121.224 337.676 118.158 335.919 115.596 333.517C113.987 332.008 112.475 330.385 110.829 328.919C107.452 325.927 106.149 322.113 106.12 317.713C106.115 317.03 105.716 316.352 105.334 315.155C105.544 313.524 105.918 311.194 106.128 308.85C106.351 306.377 106.128 303.819 106.687 301.438C106.969 300.232 108.544 299.326 109.845 297.957C109.657 297.224 109.325 295.934 109.123 295.155C107.275 294.754 105.591 294.657 104.183 293.983C103.435 293.625 102.751 292.242 102.789 291.353C102.839 290.165 103.373 288.795 104.15 287.889C105.032 286.857 105.981 286.077 105.767 284.535C105.7 284.05 105.952 283.46 106.204 283.001C107.216 281.159 108.329 279.372 109.321 277.518C110.753 274.838 111.925 274.252 114.508 275.786C116.356 276.882 118.012 276.865 119.956 276.414C121.947 275.95 124.018 275.858 126.034 275.504C126.664 275.394 127.382 275.12 127.815 274.682C130.335 272.136 133.532 272.183 136.413 273.123C139.379 274.087 142.025 272.688 144.848 272.946C146.474 273.093 148.187 272.536 149.83 272.166C151.775 271.723 156.189 273.123 156.975 274.538C159.831 274.109 159.461 271.614 159.86 269.751C160.457 266.961 160.78 264.113 161.192 261.289C161.263 260.792 161.406 260.075 161.15 259.797C159.163 257.644 159.604 255.28 160.725 253.072C162.297 249.974 164.204 247.045 165.892 244.002C166.934 242.123 167.812 240.146 168.812 238.241C169.412 237.099 170.244 236.067 170.723 234.883C171.059 234.048 171.147 233.02 171.029 232.122C170.832 230.601 170.248 229.122 170.076 227.601C169.794 225.106 171.525 222.363 173.806 221.153C176.07 219.947 178.368 218.768 180.489 217.335C181.736 216.492 182.748 215.245 183.702 214.052C183.925 213.774 183.618 212.881 183.332 212.408C180.333 207.449 177.292 202.539 175.322 197.005C174.856 195.695 173.15 194.705 171.836 193.845C169.925 192.593 168.824 191.026 169.177 188.716C169.744 184.999 168.732 182.151 165.401 180.039C162.347 178.101 162.377 174.552 161.583 171.438C160.444 166.958 160.742 162.023 157.21 158.248C156.475 157.463 156.773 155.723 156.559 154.433C156.21 152.356 155.668 150.295 155.551 148.209C155.505 147.421 156.496 145.837 156.861 145.879C159.621 146.212 160.923 143.873 162.54 142.617C166.917 139.225 171.853 137.058 176.956 135.377C186.722 132.157 196.568 129.153 206.485 126.456C213.185 124.631 220.066 123.485 226.866 122.022C226.971 122.001 227.042 121.828 227.13 121.727C228.391 121.727 229.651 121.727 230.911 121.727C234.666 122.528 236.729 125.073 237.88 128.55C238.093 129.195 238.241 129.869 238.53 130.476C239.648 132.823 240.539 135.352 243.218 136.494C243.512 136.62 243.848 136.966 243.911 137.265C244.528 140.173 241.941 145.605 239.488 146.84C240.114 150.283 240.731 153.684 241.353 157.089C242.072 156.844 242.613 156.735 243.084 156.49C244.747 155.613 245.583 156.065 245.591 157.986C245.591 158.787 245.428 159.617 245.192 160.392C244.604 162.323 243.89 164.215 243.31 166.145C242.252 169.689 241.811 173.102 244.071 176.533C245.65 178.935 246.663 181.708 247.801 184.051C255.966 181.35 262.801 183.706 269.45 187.768C270.97 185.952 273.151 184.974 275.511 185.437C278.88 186.099 282.148 187.275 285.475 188.172C288.936 189.108 292.393 190.086 295.896 190.828C299.13 191.515 301.68 192.884 303.612 195.754C305.636 198.763 308.191 201.409 310.434 204.271C312.509 206.922 314.517 209.636 316.474 212.375C316.844 212.889 317.096 213.715 316.978 214.313C316.394 217.259 315.672 220.18 314.953 223.285C314.987 223.302 315.487 223.508 315.94 223.787C321.284 227.065 326.458 230.538 328.256 237.078C328.853 239.249 329.34 241.259 332.217 241.053C332.411 241.04 332.667 241.343 332.826 241.554C334.141 243.24 336.388 244.057 337.014 246.442C337.292 247.496 338.11 248.604 339.001 249.262C343.235 252.397 345.814 256.75 347.935 261.386C348.948 263.599 350.17 265.958 348.553 268.554C347.28 270.59 347.973 272.718 348.494 274.871C349.091 277.324 349.262 279.882 349.821 282.343C350.179 283.915 350.905 285.407 351.463 286.932C351.463 288.757 351.463 290.587 351.463 292.411L351.455 292.39Z" fill="#F6F6F6"/>
<path d="M61.2046 763.54C62.3678 759.709 64.9467 757.114 68.7526 756.321C71.0919 755.832 73.7387 755.992 76.0909 756.536C82.1601 757.939 88.1879 757.918 94.2449 756.806C103.003 755.2 111.27 752.115 118.163 746.464C125.034 740.83 131.411 734.559 133.515 725.279C133.713 724.415 134.771 723.762 135.38 722.97C135.657 722.611 135.834 722.165 136.01 721.735C136.946 719.477 137.833 717.192 138.824 714.954C139.085 714.365 139.669 713.918 140.102 713.404C140.513 713.88 140.925 714.356 141.454 714.963C144.663 713.711 147.423 715.258 150.098 717.239C151.968 718.621 153.971 719.826 155.786 721.276C158.302 723.29 160.877 725.288 163.04 727.652C163.8 728.482 163.918 730.534 163.489 731.731C161.696 736.776 159.692 741.753 157.559 746.666C156.273 749.629 156.739 751.441 160.393 754.18C159.138 758.74 157.776 763.435 156.563 768.171C155.172 773.604 153.74 779.038 152.648 784.539C151.388 790.858 147.435 795.808 144.613 801.33C144.205 802.126 143.071 802.555 142.273 803.154H139.333C138.828 802.875 138.345 802.399 137.817 802.351C135.544 802.126 133.259 801.929 130.978 801.915C126.588 801.881 122.325 801.445 118.163 799.805C113.067 797.796 107.909 795.855 102.642 794.385C97.8031 793.037 93.216 791.45 89.1034 788.441C83.9667 784.675 79.1441 780.44 73.2344 777.771C70.458 776.518 67.9253 774.667 65.3919 772.924C62.8931 771.201 61.7713 768.559 61.2046 765.652V763.54Z" fill="#F6F6F6"/>
<path d="M311.802 704.178C312.832 705.046 313.567 705.62 314.243 706.26C314.524 706.525 314.777 706.9 314.886 707.271C316.52 712.851 318.124 718.435 319.771 724.145C321.338 723.5 322.388 723.071 323.363 722.67C327.432 726.235 327.899 731.36 329.503 735.827C332.141 743.18 334.086 750.783 336.354 758.272C336.703 759.422 337.106 760.586 337.69 761.626C338.551 763.169 337.8 764.112 336.728 765.025C336.468 765.25 336.169 765.427 335.884 765.624C330.398 769.383 324.988 773.257 319.409 776.865C314.945 779.752 310.265 782.312 305.687 785.022C302.146 787.119 298.79 789.659 295.035 791.232C290.59 793.104 285.823 794.221 281.16 795.528C278.619 796.243 275.977 797.21 273.415 797.121C266.9 796.897 260.229 797.83 253.95 795.086C252.358 794.391 250.392 794.377 249.002 793.438C246.141 791.511 245.654 787.208 247.557 784.096C247.758 783.769 247.763 783.313 248.141 783.463C249.451 782.864 250.938 782.489 252.035 781.625C255.676 778.751 259.209 775.728 262.733 772.712C266.984 769.069 271.449 765.624 275.326 761.618C278.292 758.55 280.698 754.858 282.937 751.192C283.887 749.637 283.975 747.441 284.096 745.515C284.298 742.3 284.345 739.055 284.176 735.84C284.101 734.377 283.887 732.999 285.109 732.017C285.957 731.334 286.978 730.812 287.999 730.42C289.158 729.973 290.448 729.856 291.578 729.363C291.956 729.198 292.208 728.3 292.161 727.769C292.132 727.436 291.427 727.175 291.036 726.867C290.603 726.526 289.817 726.172 289.813 725.818C289.792 723.446 289.855 721.065 290.053 718.696C290.431 714.166 293.724 711.641 297.004 709.337C299.5 707.583 302.36 706.357 305.057 704.891C305.233 704.794 305.527 704.566 305.569 704.608C307.951 706.947 310.043 704.165 311.811 704.174L311.802 704.178Z" fill="#F6F6F6"/>
<path d="M219.255 602.934C216.475 600.127 215.227 596.587 214.996 592.887C215.261 592.234 215.652 591.598 215.765 590.919C216.281 587.91 216.714 584.888 217.239 581.492C218.331 582.183 218.906 582.546 219.402 582.857C220.142 580.742 220.566 578.289 221.767 576.309C225.698 569.832 227.144 562.351 230.395 555.613C231.44 553.446 231.882 550.968 233.05 548.886C234.314 546.636 236.104 544.685 237.729 542.511C239.934 543.277 240.047 543.598 239.312 546.228C236.758 555.406 233.873 564.508 229.504 572.954C227.371 577.075 225.569 581.239 224.015 585.562C223.943 585.757 223.876 586.064 223.741 586.107C220.91 586.975 221.817 589.81 220.834 591.644C220.154 592.913 219.259 594.172 219.008 595.534C218.76 596.874 219.18 598.345 219.356 599.748C219.482 600.747 219.688 601.737 219.86 602.732C219.654 602.799 219.449 602.866 219.247 602.934H219.255Z" fill="#F6F6F6"/>
<path d="M105.683 251.239C105.502 252.482 107.048 253.511 104.72 254.218C102.625 254.855 102.826 253.607 102.28 252.512C103.398 252.094 104.397 251.719 105.683 251.239Z" fill="#F6F6F6"/>
<path d="M123.884 271.334C122.372 273.568 119.536 272.649 117.68 274.057C117.579 273.834 117.483 273.606 117.381 273.382C119.457 272.489 121.536 271.596 123.611 270.698C123.703 270.909 123.791 271.124 123.884 271.334Z" fill="#F6F6F6"/>
<path d="M136.166 267.729H143.911C143.903 267.902 143.895 268.079 143.886 268.252C141.299 268.437 138.72 268.42 136.141 268.29C136.149 268.104 136.158 267.915 136.166 267.729Z" fill="#F6F6F6"/>
<path d="M117.277 274.101C117.18 274.261 117.079 274.425 116.983 274.585C116.882 274.472 116.685 274.346 116.697 274.244C116.714 274.101 116.886 273.979 116.991 273.844C117.079 273.924 117.167 274 117.277 274.101Z" fill="#F6F6F6"/>
<path d="M239.597 168.168C240.245 169.647 238.921 170.355 238.178 170.97C237.615 171.438 236.262 171.476 235.549 171.122C234.242 170.477 233.381 169.424 232.738 167.851C231.487 164.796 232.541 162.365 233.961 159.963C234.498 159.057 235.494 158.092 236.947 159.372C237.409 159.782 238.753 159.183 239.82 159.027C237.606 154.606 235.62 154.256 232.465 157.468C231.449 158.5 230.609 159.709 229.626 160.776C229.269 161.164 228.727 161.378 228.269 161.674C228.038 161.084 227.521 160.435 227.627 159.912C228.71 154.337 233.511 150.995 238.212 153.081C238.388 153.157 238.59 153.182 238.837 153.245V147.067C238.262 147.506 237.796 147.927 237.27 148.247C235.099 149.575 232.529 148.15 232.197 145.567C231.697 141.694 232.243 138.323 235.96 136.152C237.598 135.196 236.876 133.051 236.275 132.73C234.469 131.774 235.388 130.295 235.002 128.98C223.665 132.554 211.976 135.314 203.167 144.21C202.537 144.846 201.735 145.314 201.155 145.988C199.794 147.573 198.047 149.073 199.63 151.585C196.001 151.324 196.026 147.918 194.451 146.561C190.225 147.434 186.198 148.336 182.14 149.086C178.309 149.798 174.462 150.401 170.605 150.961C164.8 151.804 158.974 152.681 153.119 151.551C152.506 151.433 151.896 150.384 151.615 149.642C150.582 146.916 149.67 144.147 148.759 141.374C148.591 140.855 148.444 140.202 148.612 139.726C149.389 137.568 147.877 136.241 147.007 134.618C145.575 131.934 143.256 129.625 143.512 126.186C143.689 123.78 143.945 123.4 146.247 123.392C150.871 123.379 150.931 123.392 152.337 118.744C152.749 117.387 152.741 115.903 153.005 113.872C154.652 112.89 156.988 111.504 159.57 109.97C159.466 108.819 159.252 107.428 159.247 106.034C159.243 104.98 159.184 103.64 159.768 102.978C160.151 102.548 161.679 102.97 162.624 103.248C163.847 103.606 164.977 104.31 166.203 104.634C166.682 104.761 167.77 104.327 167.82 104.023C168.202 101.68 170.093 101.116 171.824 100.34C172.567 100.007 173.306 99.5226 174.084 99.4383C176.284 99.2023 176.985 97.8284 177.154 95.8773C177.25 94.7773 177.372 93.3825 178.842 93.5594C180.039 93.7027 181.825 93.3403 181.862 95.6918C181.879 96.5558 182.69 97.702 184.303 96.9139C185.735 96.2144 187.432 96.0922 188.957 95.5528C189.596 95.3252 190.116 94.7141 190.62 94.2085C190.952 93.8755 191.188 93.4372 191.418 93.02C192.654 90.7949 194.383 89.8453 196.606 90.1712C197.182 91.3638 197.379 92.4764 198.034 92.9863C199.803 94.3559 198.026 95.6244 198.177 97.2342C199.248 97.4281 200.395 97.6346 201.521 97.8326C202.168 96.2902 202.634 94.9332 203.285 93.6774C203.889 92.5101 204.696 91.4481 205.41 90.3398C205.662 90.3946 205.919 90.4452 206.17 90.4999C206.284 91.5451 206.402 92.5944 206.531 93.8081C207.552 93.6016 209.01 92.8557 210.216 93.1506C213.488 93.9556 215.521 92.7335 216.995 89.9689C217.217 89.5559 217.579 89.2188 217.877 88.8438C218.579 88.8438 219.276 88.8438 219.978 88.8438C220.548 91.2796 221.116 93.7154 221.741 96.3914C223.439 97.0572 225.551 97.8874 227.122 98.5069C228.311 98.1614 229.13 97.6936 229.903 97.761C230.789 97.8369 231.633 98.3889 232.587 98.7724C232.587 99.552 232.201 100.85 232.654 101.305C234.578 103.231 233.31 105.191 233.024 107.129C236.263 108.57 238.985 111.664 240.597 115.275C240.824 115.781 240.669 116.544 240.488 117.125C240.261 117.846 239.627 118.465 239.505 119.19C239.081 121.71 238.455 124.268 238.565 126.788C238.665 129.136 238.384 132.128 241.95 132.764C242.521 132.865 243.08 133.548 243.475 134.087C246.26 137.91 246.7 143.22 242.55 147.034C242.248 147.312 242.13 147.788 241.887 148.247C242.509 148.298 242.966 148.34 243.975 148.424C243.34 149.566 243.063 150.721 242.332 151.26C240.501 152.626 240.417 152.516 240.706 154.248C241.483 153.751 242.454 152.643 243.34 152.702C244.277 152.765 245.654 153.784 245.928 154.666C246.465 156.414 246.788 158.441 246.436 160.198C245.915 162.786 244.768 165.243 245.159 167.995C245.209 168.353 244.886 168.754 244.794 169.145C244.462 170.57 243.58 172.18 243.954 173.398C244.97 176.723 246.524 179.887 247.738 182.812C250.523 182.23 253.493 181.552 256.484 181.004C260.07 180.347 263.586 180.566 266.959 182.125C267.707 182.471 268.518 182.821 269.324 182.892C273.235 183.238 277.191 183.242 281.061 183.836C286.315 184.641 291.331 186.36 296.148 188.699C299.849 190.495 303.696 192.046 306.233 195.467C307.263 196.858 308.414 197.368 310.068 197.659C312.547 198.097 314.803 199.209 316.424 201.355C316.861 201.932 317.633 202.302 318.318 202.64C321.157 204.052 322.805 205.228 322.498 208.721C322.254 211.485 322.359 214.284 322.006 217.027C321.708 219.349 320.969 221.608 320.456 223.905C320.385 224.221 320.359 224.739 320.541 224.882C322.586 226.551 324.674 228.166 326.748 229.796C326.9 229.661 327.055 229.523 327.206 229.388C327.467 230.66 327.765 231.925 327.983 233.205C328.319 235.165 328.319 237.243 329.029 239.047C329.361 239.885 331.033 240.18 332.091 240.741C332.511 240.964 332.923 241.208 333.309 241.482C338.577 245.233 342.764 249.957 346.112 255.495C349.28 260.729 351.208 266.388 352.308 272.372C352.686 274.424 353.14 276.46 353.56 278.5V289.878C353.14 292.116 352.787 294.366 352.287 296.587C350.872 302.845 348.948 308.884 344.609 313.49C346.222 318.4 348.061 323.086 349.242 327.937C349.868 330.516 349.901 333.516 349.229 336.07C348.301 339.597 346.457 342.885 344.92 346.479C345.835 345.982 346.621 345.48 347.47 345.118C347.894 344.937 348.725 344.814 348.851 345.008C349.145 345.459 349.397 346.277 349.174 346.66C348.629 347.609 347.919 348.531 347.075 349.218C344.953 350.938 342.697 352.493 340.555 354.182C340.034 354.596 339.421 355.27 339.383 355.856C338.938 362.712 338.338 369.577 339.652 376.421C339.749 376.935 339.535 377.842 339.169 378.048C338.039 378.693 336.737 379.026 335.552 379.59C331.159 381.676 326.786 383.805 322.653 385.798C324.363 390.488 325.808 394.9 327.572 399.186C329.861 404.757 329.286 410.565 329.046 416.279C328.971 418.129 327.278 420.025 326.022 421.673C325.014 422.997 323.531 423.953 322.296 425.112C321.59 425.774 321.086 426.802 320.271 427.156C317.84 428.218 315.302 429.027 313.139 429.815C313.886 435.424 314.601 440.759 315.315 446.09L314.471 446.52C313.618 445.922 312.765 445.319 312.228 444.944C308.477 447.262 304.826 449.816 300.916 451.864C293.393 455.808 285.194 457.827 276.978 459.748C276.482 459.867 275.885 460.406 275.7 460.891C273.739 465.981 271.815 471.085 269.958 476.213C269.412 477.73 268.719 479.357 268.786 480.904C269.026 486.589 269.807 492.257 269.912 497.937C270.11 508.503 269.866 519.076 270 529.645C270.164 542.431 270.442 555.217 270.858 567.994C271.004 572.554 271.546 577.118 272.193 581.641C272.664 584.927 272.873 588 270.093 590.587C270.979 591.122 271.731 591.598 272.508 592.033C273.516 592.597 274.579 593.069 275.562 593.676C278.002 595.189 279.695 597.022 280.842 599.977C283.001 605.522 286.655 610.491 288.747 616.053C293.309 628.178 297.19 640.555 301.512 652.772C305.356 663.632 309.371 674.433 313.416 685.221C315.512 690.814 317.852 696.309 320.027 701.871C320.284 702.525 320.494 703.54 320.175 704.008C318.872 705.913 317.356 707.67 315.584 709.908C316.344 712.466 317.264 715.694 318.323 718.88C318.444 719.242 319.566 719.685 319.872 719.5C322.279 718.054 322.313 718.02 323.829 720.414C324.379 721.282 325.018 722.12 325.4 723.061C327.597 728.463 329.958 733.815 331.823 739.332C334.578 747.465 337.325 755.641 338.312 764.238C338.422 765.173 337.434 766.235 336.955 767.236C336.204 766.759 335.452 766.283 334.7 765.799C334.393 765.609 334.086 765.411 333.78 765.214L333.852 765.289C333.742 764.758 333.742 764.174 333.507 763.706C332.974 762.632 332.154 761.679 331.751 760.567C329.731 754.971 327.807 749.336 325.85 743.715C323.741 737.663 321.637 731.611 319.482 725.429C317.255 728.472 315.168 731.325 313.009 734.275C312.341 734.186 311.354 734.06 310.367 733.929L310.77 733.432C310.06 732.61 309.447 731.679 308.623 731C307.359 729.959 306.007 728.994 304.583 728.197C303.797 727.759 302.693 727.371 301.89 727.578C297.858 728.611 293.876 729.854 289.877 731.009C288.944 731.278 287.222 729.955 287.676 729.331C288.835 727.747 287.701 726.154 287.991 724.578C288.273 723.048 287.252 722.441 285.865 722.719C283.925 723.107 282.022 723.68 280.09 724.118C274.478 725.404 268.803 726.112 263.078 725.155C261.112 724.826 259.226 723.962 257.332 723.275C255.924 722.765 255.669 720.409 253.589 720.865C253.518 720.882 253.106 720.17 253.203 720.014C253.639 719.306 254.203 718.673 254.786 717.936C253.581 715.269 251.976 712.238 250.817 709.048C246.776 697.919 242.723 686.789 238.989 675.558C235.301 664.471 232.041 653.244 228.513 642.102C223.972 627.756 219.339 613.441 214.79 599.095C214.584 598.451 214.63 597.591 214.874 596.955C216.155 593.617 217.528 590.318 218.886 587.009C221.074 581.678 223.27 576.347 225.463 571.02C227.063 567.324 228.66 563.624 230.26 559.929C230.079 559.853 229.895 559.773 229.714 559.697C228.168 563.321 226.618 566.941 225.072 570.565C220.569 581.185 216.066 591.801 211.572 602.42C211.03 603.702 209.884 605.151 210.136 606.273C211.862 614.047 212.131 621.945 212.396 629.838C212.572 635.115 212.895 640.449 211.299 645.599C209.304 652.043 207.208 658.457 205.103 664.867C204.108 667.901 202.63 670.817 201.987 673.918C200.718 680.05 200.231 686.355 198.774 692.432C196.913 700.198 196.282 708.067 195.636 715.964C195.102 722.437 194.703 728.935 193.859 735.37C193.346 739.268 192.494 743.205 190.045 746.508C189.163 747.701 188.297 748.91 187.067 750.604H192.868C190.205 753.104 187.18 751.722 184.618 752.278C184.214 753.533 184.257 755.531 182.328 754.861C175.499 752.475 168.728 749.905 162.007 747.225C160.625 746.673 160.109 746.525 159.167 747.928C158.243 749.311 158.916 749.88 159.718 750.487C162.549 752.627 163.545 755.206 162.498 758.755C161.243 763.015 160.394 767.4 159.273 771.703C158.445 774.862 157.592 778.028 156.504 781.112C154.891 785.681 153.22 790.25 151.262 794.682C150.141 797.229 148.045 799.36 147.066 801.94C146.251 804.099 145.041 805.175 143.013 805.76C141.891 806.087 140.513 806.298 139.807 807.074C138.661 808.341 137.745 808.184 136.38 807.646C134.96 807.081 133.414 806.768 131.894 806.564C127.475 805.978 122.989 805.781 118.629 804.923C108.245 802.88 98.5676 798.686 89.2341 793.879C81.5768 789.937 74.1462 785.463 66.9762 780.683C63.3427 778.26 60.1843 774.903 58.8147 770.348C58.6043 769.646 57.6216 769.183 57 768.612C57 767.91 57 767.209 57 766.508C59.1717 763.142 61.2721 759.728 63.5572 756.446C64.191 755.531 65.2789 754.764 66.3206 754.351C67.4968 753.883 68.4251 754.6 68.9253 755.813C68.9925 755.974 69.568 755.978 69.9039 755.961C75.6209 755.699 81.3372 755.468 87.0501 755.135C90.2799 754.945 93.5605 754.882 96.7067 754.225C99.7315 753.593 102.705 752.475 105.536 751.212C113.064 747.844 119.822 743.301 125.45 737.195C125.854 736.757 126.274 736.023 126.189 735.509C125.849 733.415 126.387 732.281 128.315 731.531C131.146 730.427 133.733 731.321 136.082 732.766C139.774 735.042 142.954 737.844 144.105 742.349C144.214 742.775 145.087 743.301 145.592 743.284C149.75 743.162 153.14 744.962 156.32 747.351C157.534 743.432 158.756 739.484 160.146 734.991C153.097 730.204 145.689 725.172 138.258 720.123C137.061 722.942 135.96 725.707 134.721 728.408C133.692 730.646 132.629 730.849 130.81 729.5C131.117 727.536 131.361 725.661 131.713 723.81C132.058 721.99 132.516 720.191 132.923 718.383C132.969 718.18 133.108 717.915 133.032 717.78C131.344 714.792 133.604 712.348 134.431 709.925C139.757 694.303 144.168 678.436 147.713 662.33C150.502 649.657 153.064 636.939 155.744 624.242C155.954 623.243 156.21 622.24 156.567 621.287C158.058 617.331 156.517 613.542 155.526 609.922C153.724 603.369 154.156 596.993 155.984 590.676C159.436 578.762 163.07 566.895 166.766 555.053C169.526 546.207 172.676 537.484 175.331 528.609C178.464 518.132 181.165 507.525 184.231 497.027C186.231 490.18 188.529 483.42 190.717 476.631C192.019 472.593 193.372 468.577 194.678 464.54C194.8 464.156 194.745 463.719 194.354 463.162C191.704 469.972 189.049 476.783 186.236 484.009C182.816 475.151 179.586 466.714 176.255 458.32C175.991 457.654 175.074 457.09 174.335 456.811C172.831 456.243 171.244 455.884 169.681 455.467C167.841 454.97 167.476 453.676 167.413 451.927C167.283 448.336 166.884 444.754 166.674 441.164C166.573 439.441 166.657 437.708 166.657 435.656C165.275 435.02 163.498 434.232 161.742 433.389C160.377 432.731 158.835 432.15 159.777 429.714C160.679 429.895 161.86 429.912 162.818 430.38C164.334 431.118 165.712 432.154 167.135 433.077C169.614 434.683 169.925 437.401 170.374 439.925C170.895 442.85 171.076 445.833 171.391 448.657C175.18 449.778 179.002 450.911 183.437 452.222C183.437 449.209 183.598 446.301 183.396 443.414C183.152 439.891 182.333 436.398 182.236 432.875C181.841 418.521 181.396 404.159 181.438 389.801C181.459 382.41 182.468 375.026 183.017 367.635C183.312 363.694 183.572 359.745 183.874 355.805C184.135 352.392 184.333 348.966 184.774 345.573C184.883 344.735 185.727 343.508 186.441 343.344C187.676 343.058 188.697 343.521 188.974 345.329C190.016 352.118 190.012 358.894 189.377 365.7C189.184 367.773 189.108 369.86 188.903 371.929C187.659 384.386 187.562 396.881 187.567 409.385C187.567 413.354 187.592 417.324 187.608 421.294C187.608 422.145 187.727 423.013 187.617 423.852C187.332 426.001 188.717 426.005 190.183 426.005C196.27 425.997 202.356 426.052 208.443 425.98C213.735 425.917 219.028 425.799 224.316 425.555C228.886 425.344 233.444 424.918 238.094 424.581C237.342 421.062 236.481 417.565 235.868 414.025C234.964 408.82 234.095 403.598 233.469 398.352C232.755 392.363 232.205 386.35 231.814 380.327C231.566 376.493 231.718 372.628 231.718 368.78C231.718 364.229 231.654 359.674 231.802 355.127C231.848 353.724 231.436 351.827 233.864 351.157C230.424 347.398 227.084 343.698 223.682 340.048C221.338 337.532 218.351 336.26 214.987 335.796C214.794 335.771 214.618 335.623 214.433 335.535C210.913 333.904 207.237 333.272 203.361 333.668C202.432 333.765 201.454 333.453 200.504 333.276C196.665 332.56 194.17 334.717 191.725 337.208C191.078 337.865 189.91 338.101 188.932 338.316C181.203 340.027 173.491 341.805 165.72 343.301C162.41 343.938 158.987 344.043 155.606 344.212C150.943 344.448 146.272 344.523 141.605 344.65C140.858 344.671 140.102 344.591 139.148 344.545C137.925 347.162 136.641 349.909 135.381 352.607C143.366 355.789 149.502 361.431 156.253 366.16C157.727 361.68 157.391 356.58 161.142 352.716C162.801 355.477 161.902 357.971 161.368 360.276C160.407 364.436 158.857 368.46 157.865 372.616C156.45 378.558 155.416 384.592 154.039 390.543C152.384 397.673 150.72 404.812 148.688 411.841C147.86 414.69 149.095 416.624 150.351 418.635C152.363 421.867 154.656 424.922 156.756 428.1C157.197 428.77 157.332 429.647 157.605 430.431C157.42 430.565 157.235 430.704 157.051 430.839C155.522 429.739 153.736 428.867 152.514 427.489C149.784 424.404 147.184 421.176 144.806 417.809C142.399 414.399 142.475 410.674 143.642 406.658C145.533 400.164 146.839 393.501 148.62 386.969C149.851 382.452 151.46 378.035 152.905 373.577C153.047 373.134 153.211 372.7 153.404 372.152C144.899 368.692 137.271 363.854 129.928 358.519C128.731 357.651 128.349 355.068 129.307 353.179C130.529 350.777 131.868 348.439 133.334 345.746C131.63 344.675 129.79 343.525 127.954 342.362C125.287 340.677 122.645 338.953 119.948 337.322C119.474 337.035 118.764 337.162 118.171 337.06C115.05 336.529 111.938 335.872 109.795 333.276C109.056 332.379 108.732 331.122 108.258 330.014C107.884 329.151 107.733 328.139 107.199 327.401C105.053 324.456 104.314 321.173 105.137 317.46C101.512 315.302 100.773 312.816 103.352 308.69C104.889 306.23 105.473 303.726 105.708 301.008C105.864 299.204 106.712 298.378 108.628 298.702C108.128 297.657 107.695 296.747 107.258 295.837C102.907 297.333 100.336 294.324 99.534 291.699C98.6599 288.841 100.319 286.97 104.268 286.187C102.23 282.988 104.364 280.893 106.162 278.647C106.624 278.066 106.591 277.084 107.053 276.507C107.863 275.491 108.884 274.644 110.06 273.485C108.333 268.356 106.447 262.591 104.415 256.873C104.032 255.798 102.986 254.981 102.399 253.961C101.76 252.844 102.756 250.084 103.869 249.873C105.515 249.565 106.359 250.581 106.57 252.051C106.725 253.139 106.582 254.272 106.578 255.385C106.578 256.148 106.389 256.974 106.62 257.661C108.237 262.473 109.934 267.26 111.614 272.052C112.316 274.054 115.239 274.787 116.84 273.477C121.859 269.368 127.681 267.012 134.003 265.857C136.158 265.465 138.358 265.019 140.53 265.052C146.432 265.145 152.191 266.101 158.155 269.106C158.155 265.638 158.487 262.444 158.075 259.355C157.487 254.955 158.306 250.779 159.344 246.619C159.596 245.612 160.65 244.567 161.612 244.027C163.574 242.928 164.973 241.524 165.422 239.295C165.771 237.576 168.417 236.564 166.892 234.17C166.653 233.791 167.623 232.637 168.148 231.613C166.657 228.701 166.018 225.401 168.077 222.076C168.413 221.533 168.921 221.018 169.471 220.702C173.004 218.667 176.57 216.69 180.262 214.621C176.288 209.804 173.336 204.903 172.185 198.944C169.232 198.464 168.11 197.12 167.891 194.009C167.69 191.139 167.304 188.282 166.905 185.429C166.728 184.165 162.814 180.988 161.423 180.663C161.028 180.57 160.537 180.031 160.445 179.618C159.117 173.819 157.761 168.024 156.614 162.188C156.026 159.187 155.837 156.111 155.467 153.064C155.735 152.963 156.005 152.862 156.278 152.76C156.656 153.203 157.248 153.591 157.383 154.1C158.836 159.507 160.293 164.914 161.562 170.363C161.872 171.703 162.444 171.783 163.524 171.724C165.38 171.619 167.266 171.568 169.328 173.402C166.913 173.92 164.998 174.329 162.645 174.83C163.33 176.044 163.964 177.418 164.825 178.632C165.737 179.925 166.867 181.063 167.887 182.281C168.06 182.483 168.119 182.901 168.303 182.955C171.425 183.849 170.278 186.386 170.45 188.426C170.584 190.014 170.307 191.898 171.072 193.103C171.807 194.262 173.613 194.772 175.007 195.451C175.801 195.838 176.709 195.986 177.561 196.243C176.881 196.887 176.204 197.528 175.528 198.173C175.377 198.316 175.235 198.472 174.957 198.758C176.276 201.207 177.612 203.732 178.998 206.226C179.414 206.976 179.846 207.263 180.955 206.972C182.783 206.492 184.765 206.589 187.029 206.42C185.836 208.692 183.757 208.936 181.712 209.661C186.121 213.74 190.923 216.303 196.997 214.84C201.667 213.715 206.284 212.371 210.896 211.005C211.908 210.706 212.782 209.922 213.714 209.366C214.735 210.993 214.429 211.89 212.051 213.976C210.803 215.072 209.493 216.096 208.195 217.171C208.901 217.596 209.75 217.946 210.387 218.523C214.059 221.84 218.381 221.941 222.62 220.461C228.857 218.287 234.943 215.67 241.034 213.095C242.202 212.602 243.092 211.452 244.537 210.251C243.597 213.538 242.151 215.768 239.678 217.221C234.254 220.403 228.664 223.412 222.414 224.33C217.76 225.013 212.828 225.371 208.758 221.979C207.624 221.035 206.708 219.83 205.641 218.692C204.763 219.1 203.655 219.614 202.542 220.129L203.142 220.112C203.154 222.261 203.537 224.486 203.112 226.547C201.042 236.67 198.597 246.72 196.614 256.86C195.413 262.996 194.72 269.241 193.989 275.461C193.473 279.852 193.279 284.281 192.943 288.698C192.742 288.753 192.54 288.808 192.335 288.862C192.036 287.573 191.553 286.3 191.469 284.998C191.23 281.37 190.931 277.725 191.074 274.1C191.23 270.046 191.717 265.988 192.288 261.968C193.162 255.824 194.01 249.658 195.266 243.59C196.842 235.97 198.824 228.435 200.626 220.875C194.779 223.412 189.247 221.962 184.521 218.123C180.976 220.605 177.675 223.15 174.134 225.308C171.811 226.724 170.588 228.11 170.874 230.707C170.928 231.2 171.361 231.848 171.798 232.064C173.806 233.054 175.864 233.943 177.931 234.807C178.696 235.127 179.582 235.178 180.321 235.54C181.002 235.873 181.816 236.333 182.119 236.956C183.299 239.388 184.273 241.917 185.391 244.381C185.567 244.769 186.181 244.942 186.407 245.326C186.769 245.941 187.289 246.704 187.184 247.311C186.584 250.754 186.033 254.23 185.051 257.568C184.105 260.771 182.51 263.78 181.48 266.961C180.905 268.736 180.737 270.686 180.657 272.57C180.4 278.572 180.262 284.577 180.107 290.582C180.069 292.103 179.851 293.405 177.633 293.317C178.242 293.633 178.7 293.755 178.998 294.042C180.615 295.597 182.178 294.809 183.87 294.13C186.554 293.056 189.264 291.901 192.069 291.341C193.494 291.058 195.258 291.792 196.707 292.432C203.012 295.218 209.258 298.138 215.575 301.029C215.815 299.061 217.663 299.17 219.095 299.212C223.451 299.343 227.807 299.655 232.146 300.085C232.692 300.14 233.124 301.341 233.839 302.327C236.998 301.863 240.921 301.628 244.643 300.646C248.221 299.701 251.531 297.763 255.089 296.705C256.697 296.225 258.945 296.238 260.352 297.021C265.943 300.144 271.34 303.62 276.767 307.038C281.677 310.132 286.533 313.313 291.385 316.436C290.587 318.345 289.209 319.053 287.638 318.337C277.708 313.802 267.443 309.968 258.121 304.16C257.706 303.903 257.219 303.714 256.887 303.372C254.383 300.806 251.67 301.918 248.91 302.79C247.074 303.372 245.197 303.928 243.294 304.169C240.761 304.489 238.187 304.506 235.628 304.619C234.952 304.649 234.271 304.556 233.57 304.519C233.339 308.471 233.099 312.601 232.856 316.727C232.65 316.752 232.448 316.778 232.243 316.803C231.948 315.918 231.541 315.054 231.386 314.148C231.142 312.719 230.739 311.198 230.995 309.828C231.461 307.325 229.836 305.791 228.836 303.949C228.685 303.672 228.273 303.435 227.95 303.376C225.228 302.887 222.497 302.445 219.927 302.011C219.834 312.955 219.061 323.406 211.719 331.59C214.936 332.673 218.364 333.866 221.83 334.953C222.321 335.109 223.186 334.941 223.523 334.583C226.824 331.089 230.029 327.507 233.314 324C233.776 323.508 234.511 323.276 235.213 322.876C235.918 325.964 235.729 327.317 226.85 338.59C232.751 343.597 237.972 349.239 242.492 355.514C243.126 356.395 243.483 357.697 243.454 358.793C243.411 360.318 243.954 361.048 245.31 361.549C247.768 362.459 250.199 363.45 252.59 364.524C253.161 364.782 253.522 365.502 253.942 365.595C256.463 365.958 259.021 366.16 261.499 366.711C266.069 367.731 270.588 368.957 275.133 370.083C275.499 370.171 275.935 370.281 276.259 370.163C284.382 367.247 292.855 365.873 301.319 364.507C305.057 363.905 308.871 363.779 312.602 363.138C313.949 362.906 315.147 361.793 316.424 361.107C323.266 357.445 329.983 353.504 337.014 350.247C340.715 348.531 343.324 346.567 343.941 342.392C344.407 339.264 345.268 336.184 345.504 333.049C345.638 331.266 345.05 329.357 344.47 327.612C343.278 324.043 341.916 320.528 340.526 317.026C340.11 315.972 339.324 315.075 338.8 314.059C338.535 313.545 338.489 312.926 338.334 312.357C337.812 310.452 337.3 308.547 336.758 306.651C334.91 300.199 332.906 293.784 331.235 287.286C329.735 281.454 328.592 275.529 327.32 269.781C326.501 270.379 325.22 271.34 323.909 272.267C316.058 277.817 306.401 275.55 301.546 267.762C299.571 264.593 299.349 261.04 299.702 257.281C300.164 252.363 302.264 248.461 305.843 245.334C308.708 242.831 312.017 241.242 315.975 240.939C319.196 240.694 322.09 241.339 324.934 242.881C324.653 239.021 324.375 235.271 324.064 231.01C321.527 229.636 318.457 228.068 315.474 226.341C311.06 223.783 306.868 220.925 303.852 216.656C303.654 216.374 303.134 216.126 302.802 216.168C299.147 216.627 295.535 217.36 292.305 219.173C291.574 219.581 291.331 220.997 291.011 222C288.957 228.456 286.811 234.883 284.975 241.398C283.912 245.157 283.081 249.034 282.665 252.915C281.884 260.197 281.065 267.518 281.027 274.825C280.989 282.006 282.03 289.166 283.601 296.221C284.076 298.344 284.081 300.574 283.908 302.917C283.53 302.18 283.152 301.438 282.631 300.422C282.341 301.876 282.089 303.132 281.842 304.392C281.715 304.582 281.585 304.771 281.46 304.965C281.707 304.868 281.955 304.771 282.203 304.674H289.327C288.159 301.851 289.806 300.469 291.859 299.343C299.79 295.011 307.725 290.691 315.689 286.418C316.067 286.216 316.727 286.537 317.255 286.612C317.1 287.569 317.276 288.841 316.727 289.419C315.668 290.531 314.231 291.311 312.891 292.129C306.586 295.951 300.26 299.748 293.93 303.528C293.187 303.97 292.351 304.257 291.389 304.696C294.619 305.26 297.656 305.681 300.647 306.339C308.917 308.159 316.403 311.704 322.901 317.161C324.131 318.193 324.908 319.782 325.841 321.152C326.017 321.409 325.929 321.847 326.013 322.694C319.726 316.339 312.232 313.473 304.301 311.885C297.937 310.608 291.419 310.111 284.967 309.264C283.95 309.129 282.849 309.175 281.942 308.779C281.207 308.463 280.094 307.472 280.195 307.017C280.8 304.307 278.049 303.271 277.54 301.13C277.019 298.943 276.309 296.764 275.365 294.729C273.008 289.642 271.349 284.391 270.357 278.849C268.48 268.352 268.4 257.762 268.837 247.205C269.156 239.51 270.425 231.844 273.76 224.465C270.051 225.064 266.535 225.629 263.267 226.155C263.141 225.574 262.935 224.638 262.729 223.702C262.532 223.745 262.339 223.787 262.142 223.829C260.839 231.196 260.474 238.608 260.932 246.075C261.318 252.342 261.599 258.613 262.024 264.879C262.28 268.638 261.722 271.879 258.911 274.838C256.643 277.223 254.879 280.228 253.442 283.22C252.246 285.711 251.888 288.593 251.078 291.282C250.892 291.897 250.376 292.415 250.011 292.98C249.779 292.9 249.553 292.816 249.322 292.735C249.557 289.537 249.67 286.321 250.074 283.148C250.292 281.433 250.687 279.583 251.577 278.154C253.11 275.693 254.946 273.371 256.933 271.247C259.084 268.946 259.764 266.788 258.748 263.564C256.605 256.759 255.748 249.7 255.601 242.514C255.471 236.075 256.256 229.783 257.487 223.534C257.823 221.818 259.117 220.255 260.121 218.717C260.717 217.807 261.604 217.887 262.524 218.519C263.023 218.861 263.759 219.139 264.326 219.054C268.501 218.422 272.659 217.655 276.83 216.994C283.185 215.986 289.553 215.025 295.917 214.056C296.19 214.014 296.526 213.943 296.749 214.056C299.685 215.573 301.814 213.024 304.52 212.522C301.411 211.78 300.114 209.939 300.462 206.841C300.714 204.575 298.257 201.953 301.378 200.061C299.702 195.379 295.212 194.962 291.44 193.904C284.454 191.944 277.318 190.52 270.013 188.822C269.244 192.285 268.564 195.336 267.892 198.388C267.585 199.791 267.392 201.228 266.972 202.598C266.43 204.372 265.443 205.784 263.255 205.813V185.606C261.444 184.051 258.647 184.262 256.068 184.195C253.48 184.123 250.876 184.692 247.629 185.05C248.557 185.829 249.099 186.293 249.654 186.744C251.296 188.097 253.064 189.327 254.518 190.857C255.038 191.405 255.147 192.791 254.871 193.6C252.064 201.844 249.099 210.032 246.264 218.266C245.088 221.68 244.042 225.14 243.088 228.62C242.731 229.923 242.84 231.351 242.681 232.712C242.038 238.191 241.387 243.674 240.706 249.148C240.274 252.625 239.669 256.08 239.35 259.566C238.69 266.759 238.17 273.97 237.594 281.159C235.91 280.965 235.783 280.982 235.565 279.208C235.069 275.167 234.436 271.117 234.351 267.058C234.234 261.327 234.267 255.562 234.788 249.864C235.372 243.459 236.56 237.108 237.514 230.736C237.694 229.527 237.796 228.241 238.308 227.171C238.716 226.32 239.724 225.763 240.417 225.03C240.803 224.621 241.232 224.166 241.404 223.652C244.138 215.435 246.831 207.208 249.532 198.982C250.178 197.005 250.809 195.025 251.447 193.049C251.153 193.154 250.863 193.259 250.569 193.369C249.737 192.716 248.852 192.117 248.083 191.392C247.213 190.57 245.831 189.694 245.747 188.746C245.42 185.007 243.088 182.091 242.076 178.665C241.95 178.235 241.786 177.814 241.559 177.169C239.661 178.632 238.392 181.181 235.54 180.309C234.674 180.043 233.885 179.546 232.835 179.049C237.153 177.544 238.816 174.253 240.156 170.692C240.37 170.128 240.56 169.508 240.535 168.918C240.526 168.682 239.913 168.475 239.576 168.248C240.194 166.001 240.807 163.759 241.42 161.518C241.585 161.56 241.748 161.602 241.912 161.644C241.568 161.079 241.224 160.519 240.883 159.959C241.614 160.283 242.336 160.603 243.34 161.046C244.966 160.148 244.945 157.826 243.067 156.545C242.748 157.147 242.462 157.767 242.105 158.34C241.748 158.918 241.324 159.457 240.934 160.013C240.081 161.025 239.228 162.04 238.375 163.052C238.446 163.254 238.522 163.46 238.594 163.663C237.598 163.524 236.603 163.385 235.271 163.199C235.116 163.443 234.653 164.169 234.137 164.986C235.384 164.923 236.41 164.868 237.435 164.817C237.481 165.062 237.523 165.302 237.569 165.547C236.809 165.917 236.048 166.292 235.414 166.6C235.96 167.481 236.569 168.463 236.901 168.998C238.056 168.652 238.833 168.421 239.614 168.189L239.597 168.168ZM157.429 272.124C156.945 272.048 156.462 271.972 155.979 271.9C155.522 271.567 155.11 271.079 154.597 270.923C148.057 268.942 141.454 268.546 134.658 269.553C128.555 270.459 123.098 272.777 117.847 275.879C118.998 275.866 120.158 275.828 121.229 275.504C123.451 274.834 125.782 275.036 127.883 273.211C129.89 271.471 133.015 270.497 135.708 271.904C137.8 272.996 139.77 272.587 141.786 272.532C146.537 272.402 151.283 272.082 156.042 271.829C156.383 272.022 156.719 272.212 157.059 272.406C162.599 278.723 168.144 285.045 173.978 291.699C171.513 282.179 166.128 275.735 157.429 272.124ZM308.321 431.913C308.216 431.918 308.065 431.892 307.943 431.935C300.101 434.821 292.254 437.717 283.941 438.952C282.266 439.2 280.501 438.838 278.46 438.741C279.17 436.756 280.216 436.006 281.631 435.669C283.223 435.293 284.858 435.041 286.412 434.552C296.787 431.286 307.157 428.003 317.491 424.602C318.327 424.328 319.024 423.207 319.503 422.327C320.712 420.114 321.372 417.471 322.968 415.626C325.4 412.811 325.614 409.684 324.699 406.649C323.064 401.243 320.758 396.038 318.881 390.699C317.306 386.219 315.798 381.706 314.538 377.129C313.711 374.12 313.374 370.976 312.782 367.694C304.129 369.645 295.274 371.638 285.853 373.762C289.839 375.654 292.225 378.351 294.355 381.449C295.766 383.501 296.421 385.68 296.375 388.006C296.316 391.023 295.753 394.028 295.619 397.046C295.384 402.271 295.304 407.505 295.178 412.735C295.149 413.927 295.258 415.128 295.153 416.312C295.103 416.899 294.708 417.455 294.472 418.024C294.195 417.969 293.922 417.914 293.645 417.859C293.313 411.205 292.977 404.547 292.653 397.893C292.502 394.753 292.38 391.613 292.221 388.478C292.204 388.162 292.112 387.749 291.897 387.563C289.574 385.566 287.504 383.004 284.824 381.748C278.145 378.616 271.194 376.063 264.334 373.319C263.086 372.822 261.293 371.802 260.558 372.274C258.852 373.374 257.685 372.502 256.307 372.068C255.437 371.794 254.568 371.528 253.585 371.225C253.585 380.72 253.505 390.033 253.635 399.342C253.673 402.018 254.144 404.719 254.719 407.345C255.597 411.348 256.811 415.276 257.697 419.275C257.849 419.967 257.063 420.864 256.71 421.665C256.089 421.256 255.194 420.995 254.883 420.413C250.939 413.063 248.919 405.086 248.213 396.864C247.642 390.21 247.776 383.488 247.742 376.796C247.73 374.268 248.137 371.735 248.364 369.067C247.41 368.672 246.364 368.123 245.251 367.803C241.606 366.762 240.026 363.665 239.913 360.592C239.758 356.475 236.426 355.223 234.742 352.172C235.447 360.58 236.187 368.494 236.763 376.417C237.283 383.56 237.456 390.733 238.094 397.859C238.703 404.673 239.635 411.462 240.576 418.239C242.038 428.741 245.222 438.771 249.242 448.543C249.46 449.074 249.876 449.55 250.292 449.959C251.057 450.705 252.073 451.257 252.661 452.116C253.9 453.929 254.862 455.935 256.089 457.755C256.404 458.223 257.369 458.657 257.887 458.526C264.888 456.723 271.853 454.784 278.847 452.942C287.659 450.625 296.337 447.928 304.596 444.026C306.721 443.023 308.746 441.8 310.795 440.688C310.01 437.907 309.166 434.91 308.321 431.905V431.913ZM107.141 768.775C107.023 769.047 106.906 769.326 106.783 769.606C105.662 769.238 104.306 769.156 103.453 768.455C97.1356 763.285 89.3772 762.417 81.8164 761.039C78.0987 760.361 74.3145 760.002 70.5466 759.686C69.076 759.564 67.2199 759.475 66.1361 760.23C63.9644 761.743 62.2005 763.845 59.9155 766.051C60.81 766.051 61.0448 766.113 61.2212 766.045C65.0651 764.424 68.4883 765.309 71.7981 767.604C76.2378 770.675 80.6572 773.8 85.2816 776.578C91.6453 780.404 98.2276 783.87 104.633 787.622C106.746 788.861 108.762 789.848 111.316 789.732C112.857 789.657 114.572 789.875 115.957 790.515C118.835 791.829 121.784 793.212 124.274 795.125C128.227 798.162 132.394 800.66 137.157 802.063C141.202 803.255 142.593 802.499 144.588 798.877C145.718 796.834 147.205 794.996 148.49 793.028C148.872 792.442 149.275 791.789 149.393 791.121C149.897 788.214 150.002 785.198 150.787 782.372C153.425 772.887 154.887 763.032 159.47 754.38C156.652 752.307 153.908 750.251 151.128 748.253C148.847 746.614 147.696 746.66 146.125 748.03C145.507 748.565 144.605 748.771 143.832 749.125C143.45 748.223 142.639 747.25 142.777 746.437C143.105 744.464 142.261 742.914 141.03 741.902C138.77 740.048 136.309 738.308 133.671 737.073C130.802 735.729 128.802 736.697 127.005 739.428C126.584 740.065 126.127 740.685 125.619 741.253C123.405 743.731 121.166 746.188 119.041 748.535C123.401 749.72 127.807 750.916 132.209 752.109L132.247 752.771C131.722 753.108 131.138 753.803 130.676 753.728C126.299 753.019 121.926 752.261 117.588 751.346C115.877 750.984 114.479 751.026 113.24 752.497C114.891 753.824 118.507 752.973 117.717 757.094C115.235 756.715 112.853 756.463 110.526 755.957C108.707 755.56 107.174 755.67 105.448 756.576C101.328 758.734 96.9293 760.04 92.1869 759.766C91.7926 759.745 91.3895 759.926 90.8011 760.057C93.8842 761.287 96.8201 762.168 99.4668 763.593C102.167 765.044 104.587 767.032 107.128 768.782L107.141 768.775ZM162.284 302.019C158.474 294.564 154.396 286.587 150.422 278.816C136.3 280.396 122.103 281.989 107.792 283.59C109.292 288.34 110.837 293.224 112.463 298.361C114.118 298.816 116.289 299.2 118.285 300.017C122.057 301.56 125.744 303.317 129.42 305.091C129.928 305.336 130.445 306.2 130.415 306.739C130.386 307.245 129.71 307.894 129.168 308.147C127.702 308.817 126.156 309.31 124.43 309.951C124.804 310.675 125.034 311.412 125.493 311.952C126.933 313.638 128.441 315.273 129.962 316.887C131.718 318.75 131.86 320.309 130.496 322.576C130.281 322.934 130.369 323.473 130.298 324.064C129.26 323.895 128.273 323.735 126.946 323.52C129.702 329.58 132.339 335.383 134.855 340.916C149.851 340.621 164.481 339.812 179.195 336.234C177.553 332.943 176.049 329.681 174.318 326.546C173.357 324.805 172.441 322.926 170.383 322.05C168.593 321.286 167.816 319.727 167.455 317.877C167.254 316.84 166.897 315.981 165.489 315.901C164.855 315.863 164.023 315.117 163.712 314.48C163.011 313.044 162.574 311.481 161.948 309.74C159.6 310.216 158.873 307.885 159.046 306.343C159.209 304.902 160.986 303.642 162.276 302.024L162.284 302.019ZM180.174 323.781C180.064 324.11 179.951 324.439 179.842 324.768C180.783 325.362 181.665 326.352 182.669 326.487C187.722 327.182 192.809 327.65 197.879 328.206C200.336 328.476 202.789 328.801 205.251 329.02C206.553 329.134 208.518 329.627 209.052 328.995C210.459 327.313 212.727 326.036 212.488 323.188C212.32 321.211 212.605 319.171 212.887 317.19C213.509 312.769 214.244 308.37 214.958 303.962C215.143 302.812 214.554 302.382 213.568 302.12C207.363 300.485 201.168 298.808 194.96 297.177C193.762 296.861 192.473 296.368 191.313 296.545C189.239 296.857 187.189 297.497 185.202 298.214C177.637 300.941 170.105 303.755 162.561 306.537C162.553 306.731 162.54 306.925 162.532 307.119C166.632 308.214 170.769 306.811 174.852 306.503C179.028 306.191 183.169 305.378 187.323 304.784C187.365 305.037 187.411 305.294 187.453 305.547C180.552 307.198 173.651 308.85 166.695 310.515C167.463 311.392 166.766 313.469 169.123 313.49C173.919 313.537 178.717 313.722 183.513 313.891C186.361 313.992 189.209 314.106 192.049 314.337C193.099 314.422 194.119 314.852 195.153 315.121L195.073 315.837C186.882 316.263 178.691 316.693 170.005 317.144C170.669 317.839 171.131 318.792 171.722 318.876C179.048 319.959 186.395 320.895 193.724 321.923C194.972 322.1 196.19 322.522 197.421 322.833C197.354 323.149 197.287 323.469 197.224 323.786H180.183L180.174 323.781ZM329.47 241.798C329.676 243.914 329.831 245.844 330.063 247.765C330.739 253.447 331.478 259.119 332.133 264.8C332.507 268.028 332.579 271.302 333.121 274.497C333.898 279.073 335.002 283.594 335.918 288.146C336.405 290.565 336.485 293.119 337.296 295.416C338.682 299.343 340.505 303.115 342.118 306.9C354.329 290.548 348.591 254.858 329.474 241.794L329.47 241.798ZM173.172 283.86C173.415 279.954 173.319 276.566 173.907 273.308C174.713 268.824 175.604 264.403 175.537 259.793C175.499 257.146 176.171 254.483 176.578 251.836C177.036 248.899 178.746 246.063 177.158 242.97C176.633 241.946 176.431 240.732 175.814 239.78C175.167 238.781 175.747 236.859 173.915 236.792C171.949 236.72 172.126 238.625 171.722 239.775C170.698 242.696 169.303 245.262 166.699 247.091C166.09 247.521 165.661 248.373 165.414 249.114C164.633 251.487 164.061 253.927 163.25 256.287C161.755 260.644 160.146 264.964 158.575 269.325C164.956 272.507 169.74 277.215 173.172 283.856V283.86ZM315.768 253.354C317.978 254.525 318.847 256.477 318.65 258.832C318.507 260.569 317.571 261.942 315.71 262.292C312.921 262.815 309.774 262.916 307.897 260.876C305.637 258.423 303.776 260.155 301.659 260.109C302.382 263.737 303.549 266.3 305.074 267.531C311.719 272.895 321.687 271.433 326.702 265.529C327.139 265.015 327.105 264.096 327.223 263.632C325.858 263.843 324.547 264.475 323.897 264.062C322.015 262.869 321.334 263.476 320.784 265.322C320.103 267.598 319.28 267.914 317.159 266.957C316.243 266.544 315.336 266.106 314.416 265.676C314.172 266.064 314.03 266.295 313.886 266.528C313.441 267.256 312.996 267.989 312.551 268.719C312.362 267.808 312.139 266.902 311.996 265.988C311.946 265.668 311.996 265.263 312.156 264.985C312.879 263.746 313.4 262.199 315.411 263.527C316.336 264.138 317.579 264.256 318.835 264.644C319.225 263.737 319.44 262.751 320.011 262.064C320.494 261.483 321.75 260.737 322.044 260.948C323.183 261.757 324.258 262.389 325.421 261.339C326.45 260.409 326.925 259.173 326.711 257.648C326.139 253.556 325.69 249.443 325.182 245.241C324.505 245.085 323.665 245.035 322.951 244.71C321.015 243.834 320.213 244.71 319.457 246.442C318.436 248.773 317.075 250.952 315.773 253.358L315.768 253.354ZM292.321 724.919C295.846 723.979 299.005 722.803 302.697 722.921C307.065 723.065 308.372 726.727 311.32 728.851C312.929 726.491 314.534 724.131 315.928 722.078C313.022 718.867 311.887 714.931 310.262 711.728C304.024 714.986 297.787 718.244 291.423 721.569C291.675 722.513 292.007 723.743 292.321 724.911V724.919ZM175.116 297.354C168.887 289.571 162.654 281.775 156.278 273.806C154.883 275.225 153.791 276.338 152.791 277.354C157.114 285.424 161.356 293.342 165.585 301.244C168.879 299.899 172.075 298.598 175.112 297.354H175.116ZM127.362 321.864C128.139 319.34 126.992 317.81 125.631 316.335C124.593 315.214 123.476 314.126 122.64 312.863C121.855 311.678 120.884 311.202 119.553 310.89C115.307 309.895 110.711 310.262 106.767 307.337C106.536 309.23 106.255 310.785 106.213 312.349C106.2 312.85 106.704 313.65 107.162 313.84C113.866 316.558 120.603 319.196 127.366 321.868L127.362 321.864ZM125.009 323.166C118.86 321.636 112.517 320.056 106.2 318.484C106.956 321.809 109.266 323.979 112.257 325.652C115.1 327.246 117.898 328.931 120.641 330.697C121.347 331.152 121.754 332.067 122.296 332.77C122.179 332.943 122.065 333.116 121.947 333.284C120.528 333.141 119.112 332.998 117.692 332.855L117.642 333.158C120.145 334.123 122.645 335.088 125.593 336.226C124.652 334.262 123.968 332.833 123.262 331.367C124.22 330.735 125.005 330.216 125.514 329.884C125.333 327.477 125.169 325.282 125.009 323.166ZM301.949 257.462C305.233 256.459 308.372 255.73 310.476 252.903C310.829 252.431 311.959 252.578 312.71 252.359C313.32 252.182 314.181 252.056 314.433 251.622C315.777 249.274 316.961 246.839 318.209 244.415C311.908 243.838 303.776 249.48 301.949 257.462ZM107.561 300.051C106.914 302.23 108.359 302.79 109.909 303.364C113.442 304.67 117.012 305.918 120.456 307.435C121.914 308.08 122.846 307.847 123.883 306.861C124.434 306.339 125.093 305.934 125.614 305.538C119.986 301.564 113.883 300.494 107.561 300.051ZM241.66 138.158C240.429 135.862 240.459 135.883 238.875 137.901C238.275 138.668 237.627 139.587 236.792 139.941C234.104 141.079 234.611 143.178 234.826 145.377C236.17 145.377 237.502 145.103 238.657 145.436C240.913 146.081 242.185 145.516 242.987 143.055C243.466 141.589 242.563 140.413 240.337 139.962C240.807 139.321 241.198 138.79 241.66 138.158ZM108.414 281.779C116.101 280.797 123.628 279.84 131.1 278.888C130.105 278.323 129.243 277.813 128.366 277.337C128.025 277.151 127.63 276.861 127.298 276.907C124.652 277.273 122.01 277.678 119.376 278.133C118.331 278.314 117.104 278.374 116.327 278.968C114.827 280.114 113.421 280.805 111.497 280.228C110.165 279.827 109.039 280.295 108.414 281.779ZM134.57 278.593C138.434 278.226 142.294 277.864 145.831 277.531C144.962 276.822 143.932 275.988 142.903 275.154C139.661 274.206 137.489 277.206 134.57 278.593ZM188.457 332.909C188.411 332.77 188.369 332.631 188.323 332.492C185.576 332.109 182.829 331.725 179.611 331.274C180.447 332.972 181.14 334.38 181.993 336.108C184.223 335.004 186.34 333.954 188.453 332.905L188.457 332.909ZM189.209 458.32C189.352 458.581 189.499 458.838 189.642 459.1C193.296 457.077 196.955 455.059 200.609 453.036C200.483 452.808 200.357 452.584 200.235 452.357C196.371 454.004 192.221 455.134 189.209 458.32ZM144.705 274.134C146.251 274.703 147.839 274.947 147.192 277.017C150.334 278.15 151.813 276.018 153.392 274.134H144.701H144.705ZM103.146 292.562C103.125 292.803 103.104 293.039 103.083 293.279C104.175 293.763 105.267 294.244 106.359 294.729C106.464 294.548 106.57 294.362 106.67 294.181C106.044 292.213 105.419 290.245 104.625 287.733C103.738 289.221 103.151 290.211 102.441 291.403C103.491 291.509 104.087 291.568 104.893 291.648C104.162 292.036 103.654 292.302 103.151 292.567L103.146 292.562ZM129.193 275.15C131.503 276.426 134.952 275.87 137.119 274.008C134.276 272.802 131.751 273.531 129.193 275.15Z" fill="#090909"/>
<path d="M161.595 812.844C161.035 812.32 160.116 811.537 161.527 811.264C163.14 810.951 164.854 811.189 166.731 811.189C165.723 811.829 164.921 812.34 164.118 812.844H161.595Z" fill="#090909"/>
<path d="M173.933 409.194C173.605 408.234 173.101 407.294 172.98 406.308C172.349 401.095 171.69 395.882 171.286 390.648C170.737 383.518 170.417 376.37 169.993 369.232C169.716 364.587 169.388 359.943 169.174 355.291C169.064 352.884 169.153 350.469 169.51 348.03C171.744 350.006 171.863 352.606 172.072 355.101C172.648 362.016 173.118 368.941 173.571 375.865C173.647 377.053 173.379 378.258 173.37 379.455C173.345 384.537 173.235 389.624 173.396 394.698C173.546 399.456 174.004 404.205 174.328 408.955C174.198 409.03 174.063 409.111 173.933 409.186V409.194Z" fill="#090909"/>
<path d="M276.873 339.782C266.33 341.362 256.589 345.657 246.159 347.882C245.87 346.141 247.017 345.177 248.453 344.688C253.212 343.056 257.98 341.443 262.81 340.056C266.469 339.006 270.274 338.467 273.937 337.426C277.213 336.491 279.347 337.216 281.418 340.14C283.435 342.981 286.362 345.164 288.84 347.688C289.277 348.13 289.466 348.821 289.768 349.399C289.122 349.479 288.366 349.824 287.849 349.601C283.245 347.629 278.953 345.252 276.877 339.786L276.873 339.782Z" fill="#090909"/>
<path d="M296.904 322.609C299.029 325.5 300.961 328.387 303.158 331.055C306.506 335.117 310.017 339.045 313.52 342.977C314.042 343.562 314.86 343.921 315.596 344.271C317.116 345 318.549 344.89 319.527 343.368C320.669 341.595 320.3 340.01 318.754 338.767C315.7 336.31 312.684 333.802 309.689 331.274C309.089 330.768 308.568 330.119 308.173 329.44C307.909 328.99 307.711 327.978 307.858 327.894C308.409 327.586 309.186 327.321 309.749 327.486C310.425 327.688 311.017 328.29 311.567 328.808C314.255 331.345 316.885 333.942 319.59 336.457C321.93 338.632 322.287 340.769 320.754 343.217C319.275 345.581 316.348 346.424 313.424 345.113C309.43 343.326 306.565 340.144 303.843 336.971C301.411 334.14 299.542 330.806 297.563 327.607C296.131 325.286 296.177 324.835 296.904 322.605V322.609Z" fill="#090909"/>
<path d="M219.752 205.099C219.802 204.37 219.646 203.548 219.932 202.925C222.876 196.405 225.85 189.899 228.929 183.439C229.362 182.528 230.391 181.909 231.147 181.154C231.483 182.313 232.281 183.561 232.079 184.619C230.845 191.154 227.787 196.84 223.477 201.867C222.503 203.005 221.537 204.147 220.566 205.285C220.293 205.221 220.02 205.163 219.752 205.099Z" fill="#090909"/>
<path d="M193.956 170.551C189.982 171.032 186.534 171.428 183.094 171.874C181.338 172.102 179.598 172.494 177.835 172.662C177.356 172.709 176.822 172.207 176.314 171.955C176.587 171.436 176.73 170.703 177.162 170.429C180.711 168.166 184.618 166.889 188.819 167.361C190.591 167.559 192.553 168.212 193.96 170.551H193.956Z" fill="#090909"/>
<path d="M317.78 230.698C307.809 236.109 297.841 241.521 287.869 246.932C287.714 246.78 287.558 246.628 287.403 246.476C287.969 245.878 288.436 245.094 289.125 244.715C294.804 241.583 300.504 238.482 306.246 235.469C309.182 233.926 312.218 232.574 315.226 231.166C315.99 230.808 316.81 230.576 317.608 230.286C317.667 230.424 317.721 230.563 317.78 230.703V230.698Z" fill="#090909"/>
<path d="M245.48 329.605C245.391 328.648 245.059 327.771 245.29 327.076C247.504 320.376 248.352 313.498 248.113 306.38C249.906 306.178 250.167 307.346 250.213 308.542C250.474 315.112 249.394 321.45 246.848 327.519C246.593 328.13 246.248 328.707 245.937 329.297C245.908 329.352 245.828 329.373 245.48 329.605Z" fill="#090909"/>
<path d="M182.249 179.224C183.241 179.937 184.232 180.649 185.21 181.349C188.155 181.151 191.2 180.944 194.816 180.695C192.893 183.207 190.822 184.458 188.339 184.884C186.912 185.128 185.399 184.977 183.938 184.88C183.539 184.855 182.959 184.433 182.833 184.063C182.337 182.621 181.989 181.129 181.585 179.659C181.808 179.511 182.031 179.368 182.253 179.22L182.249 179.224Z" fill="#090909"/>
<path d="M206.205 156.708C209.855 157.226 214.786 161.651 215.299 164.626C212.333 162.043 209.464 159.548 206.205 156.708Z" fill="#090909"/>
<path d="M215.185 152.761C217.335 151.779 219.377 150.847 221.536 149.861C220.767 152.381 216.877 154.248 215.185 152.761Z" fill="#090909"/>
<path d="M225.471 570.998L225.08 570.543C226.626 566.919 228.176 563.298 229.722 559.675C229.902 559.75 230.087 559.831 230.268 559.906C228.667 563.602 227.072 567.302 225.471 570.998Z" fill="#F6F6F6"/>
<path d="M333.776 765.194C333.225 766.542 332.965 768.129 332.083 769.191C325.812 776.755 317.705 782.175 309.913 787.942C306.691 790.325 303.209 792.354 299.807 794.485C298.912 795.044 297.887 795.391 296.539 796.017C303.167 795.759 309.422 795.507 315.68 795.262C315.764 795.555 315.844 795.847 315.928 796.14C315.004 796.644 314.118 797.468 313.143 797.597C309.787 798.033 306.397 798.196 303.029 798.53C297.686 799.054 292.351 799.66 287.008 800.171C283.429 800.511 279.842 800.736 276.263 801.056C273.592 801.294 270.925 801.784 268.253 801.819C265.494 801.859 262.721 801.587 259.974 801.267C256.71 800.879 253.459 800.334 250.22 799.762C248.57 799.463 246.932 799.034 245.34 798.509C244.075 798.094 243.428 795.854 244.029 794.697C244.206 794.356 244.167 793.852 244.1 793.444C243.785 791.49 243.458 789.529 243.08 787.581C242.668 785.471 243.626 783.911 244.995 782.509C245.176 782.318 245.533 782.053 245.667 782.114C247.524 782.992 248.162 781.297 249.128 780.439C252.409 777.511 255.673 774.57 258.865 771.54C266.304 764.486 273.709 757.399 281.081 750.272C281.85 749.531 282.661 748.818 281.606 747.28C280.716 745.982 280.695 744.01 280.522 742.312C280.148 738.591 279.85 734.861 279.661 731.127C279.54 728.717 280.779 728.506 282.997 728.788C286.445 729.227 286 731.435 285.912 733.567C285.731 738.005 285.399 742.434 285.126 746.922C288.407 747.124 291.641 747.39 294.879 747.499C297.996 747.605 301.164 747.322 303.915 749.143C303.911 749.362 303.902 749.581 303.898 749.8C297.164 750.171 290.435 750.542 283.463 750.926C282.387 754.993 279.38 758.402 276.255 761.499C270.009 767.7 263.385 773.521 256.874 779.527C265.17 780.01 273.596 780.773 282.131 779.03C280.951 779.595 279.825 780.384 278.582 780.684C272.256 782.209 265.884 782.924 259.331 782.175C255.185 781.705 250.83 780.773 247.087 783.591C247.456 786.22 247.835 788.909 248.158 791.21C252.85 792.559 257.407 793.655 261.814 795.194C266.497 796.835 271.076 796.664 275.827 795.67C280.905 794.615 286.05 793.873 291.17 793.049C293.371 792.695 295.178 791.912 296.959 790.353C300.269 787.452 303.936 784.933 307.59 782.454C315.332 777.212 323.153 772.091 330.953 766.937C331.882 766.318 332.885 765.821 333.851 765.262L333.78 765.187L333.776 765.194Z" fill="#090909"/>
<path d="M286.882 756.099C288.507 756.621 290.138 756.929 291.548 757.658C292.754 758.281 292.44 759.423 291.208 759.588C289.604 759.803 287.878 759.777 286.319 759.381C285.631 759.209 285.236 757.877 284.702 757.072C285.399 756.76 286.101 756.449 286.882 756.099Z" fill="#090909"/>
<path d="M165.633 331.923C162.415 330.035 160.534 327.663 159.437 324.637C159.277 324.19 158.345 323.713 157.82 323.764C153.641 324.194 149.469 324.759 145.298 325.256C141.972 325.652 138.645 326.019 135.041 326.431C137.406 329.82 139.615 333.006 141.862 336.163C142.047 336.423 142.513 336.664 142.82 336.63C147.806 336.103 152.792 335.543 157.774 334.962C160.542 334.637 163.306 334.266 166.242 334.228C165.066 334.742 163.932 335.505 162.705 335.724C157.324 336.677 151.922 337.498 146.521 338.307C144.882 338.552 143.215 338.687 141.564 338.683C141.174 338.683 140.762 337.924 140.405 337.477C140.182 337.199 140.069 336.837 139.871 336.538C138.014 333.747 136.175 330.945 134.281 328.181C133.76 327.422 132.966 326.841 132.521 326.048C132.361 325.766 132.773 324.767 133.087 324.674C135.167 324.076 137.271 323.44 139.409 323.187C146.114 322.386 152.83 321.725 159.55 321.084C160.189 321.025 161.227 321.316 161.482 321.779C162.928 324.388 164.234 327.076 165.477 329.79C165.754 330.398 165.599 331.206 165.641 331.923H165.633Z" fill="#090909"/>
<path d="M121.854 298.317C120.989 297.133 120.119 295.949 118.935 294.335C119.07 295.603 119.195 296.256 119.187 296.906C119.178 297.496 119.019 298.077 118.922 298.667C118.17 298.46 116.923 298.452 116.747 298.014C115.751 295.511 114.928 292.928 114.264 290.314C114.155 289.889 115.049 288.806 115.634 288.663C119.594 287.702 123.589 286.897 127.583 286.079C128.575 285.877 129.625 285.59 130.591 285.725C132.767 286.033 133.712 287.723 134.246 289.644C134.645 291.086 134.729 292.632 135.266 294.01C135.972 295.814 135.215 296.467 133.678 297.078C130.524 298.334 123.782 299.413 120.094 298.701C120.674 298.566 121.254 298.435 121.829 298.296C125.781 297.546 129.73 296.796 133.678 296.046C131.923 293.193 131.944 293.256 128.962 294.276C128.331 294.491 127.424 294.133 126.731 293.842C126.214 293.623 125.828 293.083 125.185 292.506C125.038 295.979 122.086 293.964 120.863 295.199C121.19 296.24 121.514 297.276 121.837 298.317H121.854ZM132.179 293.324C131.641 291.444 131.364 290.116 130.856 288.882C130.654 288.397 129.868 287.748 129.469 287.82C125.878 288.477 122.312 289.278 118.641 290.054C119.015 290.787 119.237 291.368 119.582 291.869C120.014 292.502 120.459 293.446 121.048 293.572C122.064 293.792 123.295 294.044 123.908 292.401C124.11 291.865 125.685 291.478 126.529 291.629C128.344 291.95 130.087 292.666 132.187 293.319L132.179 293.324Z" fill="#090909"/>
<path d="M146.902 294.497C143.055 294.481 140.615 292.332 140.594 288.948C140.573 285.846 143.139 283.512 146.541 283.541C149.419 283.562 152.002 286.87 151.947 290.393C151.901 293.14 149.645 294.7 146.902 294.502V294.497ZM150.053 290.949C149.057 288.261 147.827 286.575 145.298 286.061C144.676 288.016 145.037 289.951 146.218 291.257C146.722 291.813 148.621 291.101 150.053 290.949ZM143.773 285.791C141.282 288.155 141.156 289.402 143.042 290.41C143.278 288.918 143.533 287.321 143.773 285.791Z" fill="#090909"/>
<path d="M155.665 327.404C152.842 329.714 142.329 330.578 139.779 328.711C142.497 326.595 154.027 325.647 155.665 327.404Z" fill="#090909"/>
<path d="M154.921 307.229C155.034 309.07 153.635 310.857 152.014 310.95C149.813 311.076 148.263 309.867 148.162 307.899C148.078 306.331 148.179 304.443 150.015 304.287C154.202 303.938 154.753 304.439 154.925 307.224L154.921 307.229ZM149.897 305.998C150.182 307.756 150.85 308.27 152.795 308.198C152.749 306.196 151.771 305.543 149.897 305.998Z" fill="#090909"/>
<path d="M153.031 332.619C150.515 333.243 148.003 333.867 145.281 334.545C145.68 331.97 150.099 330.82 153.031 332.619Z" fill="#090909"/>
<path d="M323.75 255.535C323.011 254.082 322.221 252.653 321.574 251.157C321.436 250.836 321.822 250.289 321.969 249.846C322.385 250.028 323.049 250.107 323.17 250.411C323.788 251.949 324.266 253.542 324.792 255.118C324.447 255.257 324.099 255.396 323.754 255.535H323.75Z" fill="#090909"/>
<path d="M166.767 295.579C163.033 293.556 161.844 290.046 160.021 287.045C159.908 286.864 160.34 286.034 160.584 286.005C161.39 285.903 162.642 285.693 162.978 286.118C164.722 288.318 166.326 290.648 167.746 293.067C168.002 293.501 167.183 294.572 166.763 295.579H166.767Z" fill="#090909"/>
<path d="M236.673 140.896C237.409 141.376 238.253 141.76 238.84 142.384C239.134 142.695 238.963 143.45 239.005 144.006C238.79 144.086 238.576 144.162 238.366 144.242C237.605 143.357 236.845 142.472 236.089 141.587C236.287 141.355 236.48 141.128 236.678 140.896H236.673Z" fill="#090909"/>
<path d="M143.773 285.791C143.529 287.321 143.278 288.914 143.042 290.41C141.156 289.407 141.282 288.155 143.773 285.791Z" fill="#F6F6F6"/>
</g>
<defs>
<clipPath id="clip0_1976_915">
<rect y="0.84375" width="456" height="520" rx="8" fill="white"/>
</clipPath>
</defs>
</svg>
