<svg width="456" height="521" viewBox="0 0 456 521" fill="none" xmlns="http://www.w3.org/2000/svg">
<g clip-path="url(#clip0_1976_931)">
<rect y="0.84375" width="456" height="520" rx="8" fill="#07BCFF"/>
<path d="M406.235 328.128C406.983 329.795 407.732 331.467 408.484 333.134C408.807 333.855 408.95 334.971 409.497 335.222C413.01 336.839 411.733 339.971 411.496 342.359C411.191 345.438 410.649 348.732 408.113 351.048C407.306 351.787 406.24 352.236 405.42 352.962C404.389 353.871 402.632 354.176 403.367 356.519C403.641 357.389 401.799 358.961 400.845 360.153C400.481 360.606 399.899 360.879 399.487 361.184C400.352 362.524 401.087 363.536 401.687 364.616C403.3 367.51 402.552 369.975 399.608 371.562C398.711 372.045 397.802 372.538 396.848 372.874C395.221 373.448 394.714 374.577 394.567 376.222C394.19 380.312 393.576 384.336 390.628 387.598C389.199 389.18 388.258 390.968 388.186 393.32C388.155 394.346 386.779 395.717 385.686 396.251C381.998 398.039 378.163 399.509 374.39 401.113C372.109 402.08 369.796 402.994 367.561 404.065C359.769 407.802 351.421 409.671 343.05 411.468C341.482 411.804 339.919 412.162 338.095 412.57C338.726 413.461 339.34 414.331 339.958 415.196C338.812 417.382 339.555 418.915 342.486 420.519C347.63 423.333 351.031 427.644 352.872 433.133C353.491 434.975 353.639 437 353.8 438.958C354.051 441.983 354.325 445.03 354.181 448.045C354.123 449.286 353.007 450.474 352.371 451.688C352.107 452.194 351.909 452.746 351.564 453.194C351.013 453.915 350.457 454.726 349.704 455.156C349.458 455.295 348.427 454.488 348.06 453.915C347.092 452.4 346.124 450.841 345.461 449.183C344.574 446.961 346.671 443.277 349.306 442.072C349.319 441.857 349.311 441.633 349.346 441.414C350.189 436.26 348.356 432.376 344.368 428.97C341.178 426.241 338.292 422.997 335.908 419.547C334.34 417.28 333.9 414.237 332.713 410.854C331.27 411.007 329.052 411.083 326.911 411.517C324.881 411.93 324.137 413.489 324.571 415.456C325.791 420.976 326.704 426.577 325.983 432.21C324.742 441.938 320.351 449.725 311.254 454.328C308.163 455.891 305.151 457.625 302.077 459.234C300.464 460.076 299.402 462.447 299.573 464.656C299.68 466.063 299.474 467.488 299.496 468.904C299.514 469.921 299.752 470.933 299.77 471.95C299.783 472.699 299.743 473.501 299.496 474.195C296.49 482.579 293.304 490.904 290.513 499.36C289.997 500.919 290.746 503.092 291.387 504.8C293.403 510.195 295.643 515.509 297.803 520.854C297.942 521.195 298 521.683 298.255 521.845C302.077 524.224 302.799 528.709 305.205 532.039C305.877 532.971 306.129 534.145 307.876 533.643C308.467 533.472 309.96 534.673 310.22 535.507C310.721 537.12 310.515 538.863 309.197 540.256C306.231 543.398 303.296 546.566 300.093 549.998C299.627 548.833 299.407 548.295 299.103 547.534C297.897 548.528 296.727 549.312 295.804 550.316C295.155 551.02 293.994 551.889 295.321 553.058C295.423 553.148 295.554 553.367 295.513 553.435C293.587 556.625 296.136 559.103 297.167 561.554C300.724 570.018 304.905 578.218 308.53 586.66C310.676 591.66 312.639 596.819 313.943 602.092C316.748 613.415 321.466 624.013 325.656 634.816C327.865 640.511 330.437 646.068 332.574 651.79C333.744 654.917 334.209 658.3 335.236 661.491C336.571 665.662 338.135 669.762 339.614 673.889C341.921 680.333 344.215 686.78 346.568 693.206C349.117 700.169 351.689 707.123 354.338 714.047C356.663 720.131 359.155 726.154 361.498 732.235C363.958 738.619 366.333 745.036 368.721 751.448C369.053 752.344 369.255 753.29 369.497 754.218C370.093 756.525 370.706 758.461 373.032 760.11C375.801 762.073 378.055 764.9 378.983 768.632C379.874 772.226 381.653 775.591 382.894 779.104C384.315 783.135 385.753 787.175 386.838 791.302C387.573 794.089 386.327 795.189 383.531 796C381.259 796.659 379.108 797.832 377.011 798.961C370.406 802.545 363.412 804.63 355.883 804.898C348.697 805.158 341.509 805.441 334.322 805.803C330.423 805.991 326.538 806.483 322.64 806.628C318.666 806.773 314.664 806.903 310.708 806.613C303.767 806.099 296.79 806.91 289.854 805.448C285.638 804.565 281.193 804.782 276.855 804.42C274.52 804.217 272.173 803.964 269.883 803.493C267.046 802.914 265.855 801.213 265.998 798.266C266.275 792.525 267.423 792.54 271.092 791.374C276.68 789.586 282.312 787.928 287.864 786.039C292.332 784.518 296.727 782.769 301.123 781.049C302.055 780.681 303.014 780.143 303.704 779.431C308.812 774.175 313.826 768.834 318.93 763.578C320.834 761.619 322.609 759.146 324.966 758.125C327.771 756.915 331.141 757.018 334.6 756.503C335.187 754.276 333.842 751.493 332.247 749.741C325.925 742.796 323.438 734.085 320.243 725.674C319.589 723.953 319.082 722.305 317.563 721.046C313.701 717.846 311.757 713.28 309.48 709.001C305.411 701.357 301.468 693.645 297.534 685.929C292.816 676.681 288.143 667.41 283.491 658.13C278.737 648.653 273.718 639.293 269.408 629.613C265.998 621.96 263.323 613.958 260.634 606.009C258.013 598.261 255.839 590.366 253.344 582.573C253.008 581.516 251.973 580.674 251.229 579.76C250.342 578.671 249.32 577.685 248.527 576.533C245.045 571.488 241.527 566.465 238.221 561.308C236.164 558.099 233.507 555.68 230.469 553.435C228.793 552.198 227.78 550.025 226.58 548.201C225.5 546.552 225.119 544.29 222.345 544.415C221.83 544.437 221.212 543.371 220.741 542.735C220.239 542.045 219.859 541.265 219.361 540.418C218.344 540.973 217.479 541.439 216.413 542.022C219.012 544.697 217.242 547.233 215.875 548.927C211.21 554.703 206.169 560.187 201.115 565.631C199.358 567.522 197.105 568.844 194.282 568.791C193.744 568.782 193.054 569.266 192.673 569.722C189.998 572.967 187.43 576.3 184.747 579.536C181.802 583.089 178.442 585.679 173.414 585.912C170.999 586.024 168.673 587.686 166.276 588.569C164.242 589.317 162.163 589.949 159.743 590.756C159.165 594.018 158.726 597.697 157.803 601.25C157.337 603.042 157.754 604.198 159.066 605.018C160.111 605.668 160.128 606.439 160.267 607.474C161.28 615.136 156.839 619.985 151.606 624.385C150.306 625.478 149.487 626.661 149.011 628.274C147.161 634.588 145.441 640.937 141.206 646.278C140.104 647.662 140.018 649.831 139.377 651.61C137.303 657.368 134.932 656.629 130.466 656.521C129.596 656.499 128.601 656.445 127.907 656.015C126.925 655.405 125.375 654.353 125.451 653.631C125.756 650.714 122.678 648.375 124.394 645.229C125.805 642.648 126.692 639.781 127.88 637.075C129.107 634.273 130.425 631.514 131.782 628.561C128.915 627.961 128.243 625.89 127.88 623.538C127.365 620.213 126.585 616.919 126.258 613.577C125.796 608.845 128.028 605.005 131.137 601.721C133.539 599.184 135.744 596.191 139.463 595.461C141.331 595.094 143.29 595.174 145.319 595.049C146.758 590.966 148.42 586.893 149.553 582.681C149.984 581.077 149.267 579.132 148.949 577.367C148.415 574.405 147.995 571.403 147.13 568.535C146.448 566.273 145.548 564.122 145.924 561.697C145.969 561.406 145.808 561.048 145.924 560.81C147.555 557.49 145.691 555.447 143.37 553.48C141.573 551.956 139.844 550.338 138.186 548.667C137.214 547.686 135.753 546.843 136.882 544.912C137.124 544.5 136.026 543.339 135.609 542.493C135.269 541.802 134.592 540.884 134.807 540.395C135.282 539.333 136.107 537.819 137.003 537.653C141.945 536.744 143.975 532.8 146.18 529.157C150.02 522.817 153.667 516.356 157.297 509.886C163.046 499.633 169.063 489.506 174.284 478.99C177.277 472.959 178.926 466.26 180.973 460.457C171.456 453.337 162.58 446.481 153.461 439.961C148.599 436.484 146.883 431.77 147.358 426.295C147.739 421.895 148.806 417.513 149.979 413.229C152.708 403.259 155.554 393.311 158.605 383.436C160.94 375.881 163.955 368.533 166.115 360.932C167.997 354.305 169.086 347.459 170.551 340.711C172.402 332.188 174.337 323.679 176.13 315.143C177.783 307.27 179.795 299.491 179.634 291.282C179.54 286.412 180.646 281.514 181.251 276.635C182.698 264.899 187.081 254.055 191.477 243.225C192.391 240.972 190.688 239.296 190.357 237.324C189.604 232.861 188.636 228.42 188.134 223.93C187.964 222.411 188.636 220.583 189.447 219.212C190.652 217.178 192.332 215.426 193.941 213.392C189.501 206.998 186.682 202.135 181.753 195.042C177.174 197.319 170.574 198.005 165.662 200.164C162.024 201.764 160.03 201.257 157.991 198.009C155.666 194.312 153.161 190.705 150.49 187.25C148.268 184.374 147.981 181.425 149.084 178.114C149.679 176.326 149.979 174.43 150.629 172.665C151.09 171.401 150.544 171.106 149.536 170.832C148.088 170.438 146.659 169.968 145.225 169.52C143.513 168.982 143.2 167.907 143.908 166.32C145.373 163.04 146.726 159.706 148.25 156.458C148.572 155.772 149.442 155.342 149.858 154.966C150.777 149.006 150.736 143.047 151.741 137.114C152.533 132.431 154.062 127.677 155.402 123.143C156.759 118.554 158.883 114.19 160.697 109.74C160.944 109.131 161.253 108.477 161.724 108.051C162.145 107.67 162.831 107.581 163.4 107.366C163.449 107.885 163.548 108.405 163.529 108.92C163.511 109.498 163.395 110.076 163.283 110.955C168.557 106.698 174.279 104.874 180.691 106.366C184.903 107.348 189.115 108.499 193.152 110.036C200.667 112.895 207.321 117.206 212.882 123.084C217.913 128.408 221.136 134.69 222.655 141.563C223.68 140.744 224.845 139.811 225.925 138.947C228.682 141.635 228.206 144.619 227.857 147.537C227.516 150.386 226.956 153.204 226.615 156.055C226.365 158.178 226.382 160.338 226.154 162.467C225.589 167.705 226.987 172.616 228.502 177.518C228.762 178.356 228.085 180.547 228.377 181.582C231.76 179.861 234.646 180.905 236.809 182.684C240.524 185.736 244.091 188.98 247.931 191.861C249.306 192.892 251.296 193.617 252.999 193.599C258.062 193.546 262.574 195.177 267.239 196.867C275.027 199.685 280.941 204.816 286.467 210.663C287.555 211.814 289.087 212.536 290.36 213.521C291.243 214.207 292.507 214.87 292.779 215.789C293.869 219.432 296.526 221.932 298.927 224.531C306.944 233.219 315.085 241.801 323.312 250.296C327.439 254.562 331.822 258.586 336.168 262.636C336.661 263.093 337.692 263.25 338.408 263.142C340.631 262.806 342.804 262.134 345.031 261.852C348.365 261.435 351.125 262.484 353.061 265.432C358.994 274.474 363.73 284.086 366.812 294.468C367.96 298.327 368.918 302.238 370.048 306.1C370.15 306.454 370.85 306.844 371.284 306.862C374.139 306.979 376.998 307.033 379.857 307.033C380.882 307.033 381.945 306.956 382.93 306.692C385.887 305.89 388.603 307.333 389.687 310.29C390.35 312.105 391.081 313.911 391.928 315.649C392.886 317.612 394.253 319.18 396.39 319.207C396.081 320.179 395.454 321.147 395.548 322.039C395.808 324.485 396.202 326.954 396.883 329.311C397.233 330.521 398.331 331.503 399.052 332.618C401.32 336.131 401.611 340.187 402.225 344.161C402.422 345.433 402.655 346.751 403.183 347.907C403.565 348.75 404.434 349.901 405.123 349.927C405.881 349.959 406.903 348.996 407.409 348.207C408.171 347.019 408.655 345.635 409.112 344.286C409.372 343.515 410.792 342.602 409.067 341.804C409.031 341.786 409.264 341.217 409.349 340.903C409.551 340.119 409.744 339.335 409.936 338.546C409.667 338.376 409.398 338.21 409.13 338.04C409.018 338.439 408.905 338.838 408.794 339.236C408.619 339.219 408.449 339.201 408.274 339.182C407.611 335.482 406.943 331.78 406.28 328.075L406.235 328.128ZM295.016 236.76C300.388 250.076 301.585 264.455 308.924 277.065C310.107 275.998 310.967 275.205 311.846 274.434C314.324 272.252 315.543 267.498 314.122 264.518C311.461 258.944 308.754 253.379 305.824 247.943C304.488 245.465 302.777 243.113 300.868 241.043C299.438 239.493 297.427 238.475 295.016 236.755V236.76ZM154.129 596.791C153.927 597.388 153.779 598.006 153.515 598.57C151.033 603.849 151.557 604.359 145.812 604.1C143.473 603.992 141.761 604.906 140.104 606.381C137.128 609.028 133.857 611.462 133.468 615.862C133.319 617.565 132.844 620.379 133.602 620.814C135.923 622.149 137.177 624.066 138.374 626.209C138.396 626.244 138.63 626.168 138.898 626.114C139.516 624.783 140.319 623.528 142.519 624.846C142.201 619.819 145.938 617.47 148.792 614.513C150.007 613.258 151.328 611.981 152.117 610.462C154.357 606.174 154.594 601.478 154.129 596.787V596.791Z" fill="#F6F6F6"/>
<path d="M405.742 326.708C403.251 324.665 400.907 322.747 398.192 320.529C403 321.43 405.827 323.853 405.742 326.708Z" fill="#F6F6F6"/>
<path d="M402.857 331.794C400.629 330.087 400.146 328.491 401.091 326.363C403.721 327.784 404.227 329.235 402.857 331.794Z" fill="#F6F6F6"/>
<path d="M406.441 340.881C405.397 338.546 404.353 336.207 403.246 333.729C403.488 333.563 403.878 333.295 404.707 332.726C405.5 335.597 406.217 338.183 406.934 340.773C406.768 340.809 406.603 340.84 406.441 340.877V340.881Z" fill="#F6F6F6"/>
<path d="M406.284 328.079C406.114 327.891 405.939 327.703 405.769 327.514C405.868 327.456 405.966 327.394 406.069 327.335C406.128 327.599 406.181 327.868 406.24 328.133L406.284 328.079Z" fill="#F6F6F6"/>
<path d="M210.578 516.531C214.454 525.824 218.335 535.113 222.193 544.411C222.327 544.733 222.345 545.244 222.18 545.526C218.406 551.948 214.714 558.418 210.744 564.718C209.145 567.259 207.15 569.678 204.892 571.637C203.517 572.824 201.317 573.433 199.434 573.567C196.477 573.782 194.573 574.889 192.911 577.425C188.519 584.115 182.434 588.888 174.924 591.729C170.304 593.476 165.147 594.511 160.097 593.436C160.039 593.485 159.944 593.525 159.931 593.583C159.483 595.896 159.918 599.875 160.787 601.999C164.162 610.225 161.983 619.142 154.492 624.201C152.73 625.388 150.947 626.536 148.89 627.893C149.961 627.893 150.857 627.826 151.745 627.907C153.376 628.059 154.048 629.367 153.143 630.712C145.947 641.421 142.819 653.631 140.081 665.994C139.297 669.53 138.137 673.029 140.067 676.582C142.801 681.615 145.409 686.718 148.209 691.714C149.823 694.591 151.731 697.297 153.474 700.098C155.898 703.992 155.231 708.652 151.915 711.762C148.411 715.046 145.31 718.877 141.43 721.615C131.979 728.291 122.135 734.417 112.533 740.882C107.335 744.382 102.335 748.178 97.1815 751.749C94.4572 753.635 91.594 755.329 88.7481 757.139C90.3842 759.093 92.0551 761.087 93.5878 762.92C94.0359 762.099 94.5108 761.239 95.0436 760.262C98.5527 764.044 98.8213 782.873 95.743 790.904C99.1261 794.06 100.013 800.33 98.0285 804.724C96.6928 804.985 95.7386 805.144 94.7888 805.354C92.0819 805.94 89.4026 806.766 86.6696 807.077C83.2996 807.468 79.8854 807.49 76.4842 807.569C73.348 807.649 70.1438 807.953 67.0836 807.468C64.5114 807.062 62.0919 805.672 59.6138 804.702C47.4303 799.902 35.1932 795.247 23.0907 790.259C14.0796 786.553 5.1532 782.604 -3.62481 778.374C-7.53202 776.487 -11.3538 774.05 -14.5356 771.129C-18.6354 767.369 -18.6267 762.359 -16.9239 757.238C-16.032 754.558 -14.9562 752.13 -12.4296 750.638C-12.0756 750.427 -11.618 750.207 -11.2372 750.247C-3.16726 751.139 4.88896 752.219 12.977 752.936C17.7718 753.362 22.6202 753.295 27.441 753.335C29.8743 753.358 32.348 752.789 34.732 753.07C40.8394 753.783 45.2526 749.607 50.5042 747.913C54.5815 746.596 58.4265 744.58 62.4365 743.029C63.1221 742.765 64.3188 743.02 64.9103 743.495C65.9854 744.355 66.9576 745.458 67.6657 746.641C68.7545 748.464 70.2828 749.011 72.2592 748.912C72.9578 748.876 73.6702 749.06 74.4767 749.154C75.5206 744.768 79.1325 742.339 82.3316 739.717C90.5942 732.951 99.8073 727.673 109.495 723.215C114.307 720.997 119.222 718.975 123.927 716.547C126.23 715.36 128.57 713.774 130.161 711.779C132.997 708.222 133.158 704.032 131.312 699.829C128.888 694.317 126.396 688.838 124.085 683.277C122.521 679.513 120.536 675.74 121.306 671.474C122.274 666.11 123.085 660.68 125.581 655.724C125.679 655.531 125.711 655.307 125.814 654.962C124.537 654.286 123.269 653.609 121.992 652.937C117.556 650.598 116.745 646.552 119.568 642.698C123.067 637.917 126.679 633.216 130.282 628.427C126.916 627.925 124.048 626.526 122.552 622.906C121.15 619.523 121.158 616.467 123.314 613.429C123.636 612.977 123.372 612.13 123.439 611.471C123.573 610.163 123.493 608.755 123.959 607.568C127.387 598.835 134.216 594.596 143.267 593.166C141.842 589.326 144.24 586.803 146.655 584.299C141.085 576.26 139.611 567.362 143.581 552.942C140.681 553.354 138.862 551.374 137.442 549.537C135.197 546.633 133.53 543.291 131.549 540.172C131.142 539.531 130.438 539.074 129.721 538.393C131.814 534.468 133.835 530.439 136.089 526.545C137.128 524.749 138.813 523.629 141.111 523.933C142.541 524.121 143.5 523.749 144.302 522.284C147.949 515.603 152.238 509.241 155.428 502.358C162.042 488.091 168.104 473.568 174.534 458.822C170.157 457.406 165.559 456.137 161.123 454.435C153.936 451.671 147.197 448.023 141.344 442.937C138.706 440.643 136.246 438.147 133.682 435.763C131.908 434.11 131.491 432.237 132.513 429.997C135.085 424.364 137.832 418.794 140.108 413.041C142.577 406.79 144.772 400.418 146.762 393.997C151.023 380.245 155.253 366.48 159.138 352.616C160.854 346.491 161.791 340.142 162.92 333.869C164.676 324.123 165.237 314.265 165.703 304.385C165.797 302.363 166.831 300.383 167.482 298.398C167.535 298.232 168.006 298.245 168.216 298.089C170.067 296.669 171.989 295.32 173.687 293.729C174.167 293.276 174.144 292.093 174.068 291.274C173.755 287.985 173.006 284.705 173.073 281.434C173.11 279.525 174.297 277.607 175.103 275.748C179.768 264.975 184.455 254.208 189.191 243.463C189.882 241.899 190.074 240.411 189.362 238.866C187.632 235.12 185.943 231.351 184.096 227.659C183.331 226.126 183.021 225.136 184.352 223.518C186.659 220.727 188.429 217.492 190.388 214.423C190.5 214.247 190.379 213.813 190.231 213.589C186.821 208.422 183.388 203.265 179.947 198.081C176.394 199.837 172.769 201.683 169.095 203.431C166.07 204.869 162.669 204.928 159.805 203.772C157.484 202.83 155.576 200.559 153.841 198.56C151.991 196.427 150.508 193.963 148.993 191.561C148.577 190.898 148.725 189.908 148.415 189.146C148.093 188.357 147.703 187.344 147.044 186.995C145.323 186.085 144.347 185.041 145.014 182.989C145.517 181.443 145.857 179.844 146.372 178.302C146.923 176.658 147.591 175.054 148.407 172.903C146.847 172.733 145.48 172.575 144.109 172.436C142.048 172.227 140.771 170.882 140.108 169.161C139.817 168.4 140.243 167.154 140.708 166.339C142.416 163.336 143.818 159.958 146.202 157.6C149.083 154.751 148.505 151.906 147.842 148.523C147.345 148.769 146.905 148.984 146.461 149.199C144.862 146.601 144.987 145.942 147.192 144.369C147.501 144.149 147.689 143.566 147.699 143.146C147.998 132.486 151.476 122.731 155.943 113.455C155.513 112.335 154.774 111.273 154.76 110.211C154.72 106.393 154.828 102.567 155.128 98.7671C155.19 97.9471 156.162 96.9747 156.965 96.4863C158.945 95.2809 161.092 94.3489 163.135 93.2467C168.153 90.5312 173.598 89.5096 179.208 89.3125C186.333 89.066 193.466 88.7523 200.59 88.8688C210.932 89.0391 220.911 91.2527 230.496 95.1734C232.006 95.7918 233.489 96.4953 235.039 96.9882C239.928 98.5341 242.63 101.971 243.678 106.837C244.597 111.107 245.61 115.369 246.183 119.688C246.38 121.176 245.328 122.811 244.937 124.398C244.714 125.307 244.575 126.257 244.57 127.189C244.548 131.473 241.447 134.332 239.659 137.778C237.109 142.698 234.381 147.537 231.468 152.246C229.205 155.903 229.492 159.904 229.313 163.834C229.125 168.001 229.317 172.186 229.29 176.362C229.282 177.666 229.106 178.97 228.995 180.457C229.967 180.027 231.437 180.301 230.711 178.396C230.639 178.208 231.908 177.084 232.346 177.2C233.771 177.567 235.291 178.065 236.424 178.956C238.207 180.354 239.359 182.326 241.738 183.258C245.852 184.867 247.712 188.725 249.441 192.524C249.558 192.78 249.777 192.986 249.674 192.847C253.111 192.354 256.243 191.75 259.402 191.485C266.464 190.893 272.105 194.388 276.962 198.766C283.657 204.806 289.957 211.312 296.15 217.877C301.24 223.268 305.922 229.044 310.806 234.631C314.279 238.601 317.797 242.531 321.269 246.501C322.725 248.168 324.078 249.924 325.548 251.573C326.336 252.456 326.924 253.442 328.622 253.258C329.536 253.159 330.777 254.58 331.61 255.543C333.246 257.434 334.689 259.486 336.231 261.463C336.463 261.763 336.831 262.238 337.077 262.206C338.946 261.946 340.797 261.57 342.656 261.243C344.726 260.88 346.819 260.62 348.867 260.167C352.783 259.303 354.32 262.318 355.959 264.702C362.099 273.614 366.329 283.459 369.51 293.769C370.724 297.708 371.907 301.66 373.247 305.554C373.417 306.056 374.457 306.585 375.066 306.554C379.036 306.343 382.997 305.98 386.963 305.666L386.927 305.59C385.139 306.509 383.347 307.427 381.559 308.351C381.093 308.422 380.631 308.489 380.165 308.56C380.179 308.65 380.187 308.744 380.201 308.834C380.739 308.785 381.281 308.731 381.819 308.682C384.624 307.938 387.424 307.194 390.395 306.41C391.695 309.829 392.886 313.077 394.19 316.281C394.437 316.886 395.087 317.702 395.615 317.751C399.384 318.109 402.27 320.193 404.591 322.801C409.905 328.769 412.517 335.916 412.504 343.924C412.495 347.741 411.177 351.151 408.74 354.135C408.381 354.575 408.224 355.448 408.39 355.991C409.317 358.979 410.496 361.892 411.343 364.903C411.885 366.825 411.28 368.819 409.703 369.98C405.675 372.951 401.198 375.039 396.243 375.89C396.435 377.114 396.668 378.395 396.834 379.685C397.009 381.03 397.013 382.073 395.387 382.898C394.37 383.414 393.944 385.107 393.267 386.281C392.331 387.908 391.363 389.517 390.498 391.183C390.22 391.721 390.229 392.407 390.109 393.02C390.646 393.092 391.188 393.164 391.771 393.24C391.91 394.056 392.062 394.965 392.254 396.112C375.066 402.945 358.124 410.644 340.129 415.613C342.087 419.471 345.851 421.474 349.122 423.894C352.707 426.541 354.131 430.135 354.629 434.23C354.925 436.677 354.064 439.465 354.952 441.584C356.031 444.165 355.261 446.571 355.633 449.009C355.92 450.895 355.337 451.98 353.307 452.078C352.895 452.101 352.492 452.351 352.093 452.494C352.841 455.241 351.38 457.594 348.593 458.11C347.003 458.405 346.151 457.316 345.797 456.03C345.143 453.651 344.43 451.236 344.246 448.798C344.113 446.988 344.592 445.052 345.175 443.296C345.429 442.529 346.622 442.072 347.553 441.342C346.38 436.014 343.597 431.529 338.695 428.321C334.313 425.453 332.14 421.344 332.749 415.98C332.78 415.689 332.754 415.389 332.74 415.088C332.74 415.026 332.677 414.963 332.565 414.762C331.301 414.613 329.94 414.453 328.223 414.251C328.442 415.371 328.622 416.527 328.891 417.656C330.423 424.028 332.171 430.355 333.452 436.776C334.142 440.244 333.784 443.833 332.332 447.194C331.929 448.13 331.606 448.655 330.231 448.879C328.317 449.188 326.534 450.541 324.778 451.585C317.603 455.851 310.434 460.13 303.332 464.517C302.476 465.046 301.67 466.206 301.495 467.187C299.649 477.601 296.467 487.62 292.632 497.442C291.825 499.508 291.476 501.215 292.524 503.388C296.252 511.104 299.748 518.937 303.336 526.734C298.408 527.961 293.667 529.149 288.926 530.332C288.989 530.65 289.052 530.972 289.114 531.291C296.813 530.188 304.506 529.086 312.2 527.984C314.485 530.323 316.264 537.935 315.032 540.512C313.683 539.002 312.715 540.27 311.752 541.023C309.538 542.753 307.486 544.711 305.187 546.306C302.337 548.282 299.304 549.98 296.7 551.584C301.719 564.036 306.921 576.323 311.608 588.807C314.579 596.715 316.448 605.032 319.423 612.936C322.129 620.119 325.835 626.921 328.779 634.023C331.521 640.633 333.9 647.398 336.325 654.133C338.655 660.608 340.828 667.137 343.077 673.643C343.194 673.983 343.297 674.495 343.543 674.593C345.865 675.529 345.546 677.734 346.066 679.571C347.365 684.173 348.607 688.801 350.139 693.332C354.459 706.084 359.002 718.756 363.263 731.527C365.002 736.742 366.194 742.137 367.717 747.429C368.515 750.203 369.487 752.927 370.281 755.374C372.189 754.993 374.035 754.459 375.913 754.294C377.952 754.11 379.036 755.826 379.256 757.341C380.416 765.263 382.473 772.912 385.435 780.341C385.914 781.546 385.999 782.908 386.335 784.518C387.361 786.553 388.545 789.014 389.844 791.403C390.463 792.54 391.39 793.51 392.031 794.646C392.81 796.022 392.12 796.949 390.924 797.752C385.699 801.213 379.789 803.102 373.879 804.818C366.898 806.838 359.796 808.46 352.689 810.002C350.758 810.414 348.62 809.806 346.577 809.835C343.467 809.893 340.362 810.19 337.252 810.241C332.4 810.306 327.547 810.212 322.694 810.27C313.988 810.385 305.268 810.856 296.57 810.624C288.469 810.407 280.341 809.77 272.472 807.54C270.828 807.077 269.296 806.208 267.552 805.462C267.235 805.687 266.705 806.056 265.635 806.816C265.11 804.615 264.349 802.726 264.263 800.8C264.085 796.797 263.448 792.634 266.015 789.043C266.603 788.218 267.436 787.248 268.328 787.023C276.908 784.83 285.52 782.734 294.146 780.713C296.566 780.144 299.066 779.893 301.096 779.566C304.255 775.703 307.181 771.903 310.34 768.305C314.799 763.229 319.378 758.26 324.002 753.335C326.072 751.13 326.772 751.318 329.312 753.129C330.047 753.653 331.333 753.407 332.368 753.514C332.202 752.685 332.256 751.717 331.839 751.041C328.071 744.942 324.186 738.915 320.409 732.822C314.83 723.824 309.318 714.781 303.762 705.766C302.458 703.651 300.845 701.693 299.819 699.457C298.829 697.306 297.086 695.518 297.83 692.458C298.251 690.719 296.289 688.349 295.28 686.324C291.054 677.864 286.825 669.399 282.505 660.985C279.566 655.258 276.461 649.612 273.436 643.926C268.897 635.399 263.946 627.078 261.691 617.488C261.136 615.123 258.936 613.196 257.99 610.866C254.28 601.725 250.749 592.508 247.205 583.299C246.277 580.894 245.547 578.411 244.754 576.058C243.674 576.162 242.661 576.207 241.662 576.363C239.592 576.69 238.44 575.257 237.745 573.845C233.292 564.771 228.901 555.662 224.666 546.485C220.113 536.619 215.758 526.666 211.309 516.75C211.228 516.566 211.063 516.419 210.932 516.257C210.847 515.984 210.758 515.711 210.672 515.437C210.569 515.464 210.462 515.487 210.359 515.514C210.426 515.85 210.498 516.186 210.565 516.526L210.578 516.531ZM298.237 226.875C298.385 227.022 298.538 227.171 298.686 227.318C298.874 227.685 299.066 228.053 299.255 228.416C299.394 228.331 299.537 228.246 299.676 228.156C299.429 227.775 299.187 227.399 298.941 227.018C298.82 226.888 298.704 226.758 298.583 226.633L298.269 225.634C298.067 225.826 297.865 226.023 297.664 226.216C297.852 226.436 298.045 226.651 298.233 226.87L298.237 226.875ZM287.479 427.115C287.38 427.617 287.282 428.123 287.179 428.62C286.995 428.764 286.811 428.903 287.098 428.683C286.981 429.042 287.057 428.804 287.134 428.567C287.34 428.164 287.546 427.765 287.748 427.362C287.842 427.012 287.936 426.663 288.025 426.313C289.025 424.041 290.02 421.77 291.019 419.502C296.154 406.593 303.354 394.544 307.042 381.007C306.37 381.415 306.052 381.997 305.783 382.607C302.418 390.238 298.981 397.837 295.733 405.517C293.86 409.94 292.296 414.492 290.593 418.987C289.603 421.34 288.608 423.696 287.618 426.049C287.573 426.407 287.528 426.761 287.479 427.12V427.115ZM194.026 485.223C193.695 485.102 193.368 484.986 193.036 484.864C188.922 483.161 184.809 481.459 180.7 479.757L180.396 480.536C184.518 482.117 188.64 483.699 192.758 485.277C193.112 485.33 193.466 485.38 193.816 485.433C194.219 485.631 194.622 485.828 195.025 486.025C195.075 485.868 195.128 485.711 195.177 485.559C194.792 485.447 194.411 485.33 194.026 485.218V485.223ZM259.254 328.586C259.303 328.895 259.353 329.209 259.402 329.518C259.527 329.5 259.648 329.481 259.773 329.46C259.715 329.088 259.657 328.715 259.595 328.339C259.2 327.506 258.811 326.668 258.416 325.834C257.466 322.671 256.521 319.512 255.571 316.348C255.342 316.42 255.113 316.496 254.89 316.568C255.965 319.741 257.04 322.913 258.116 326.085C258.492 326.919 258.868 327.752 259.249 328.586H259.254ZM155.522 528.069C155.343 528.069 155.159 528.078 154.98 528.082C155.083 528.203 155.186 528.32 155.289 528.441C156.454 529.1 157.552 530.004 158.802 530.372C162.257 531.389 165.779 532.178 169.274 533.06C169.291 532.962 169.305 532.863 169.323 532.765C164.721 531.201 160.124 529.637 155.522 528.073V528.069ZM197.889 545.432C201.814 538.67 205.811 531.94 208.486 524.542C207.616 525.546 206.931 526.644 206.344 527.796C203.351 533.666 200.384 539.548 197.414 545.428C196.616 546.875 195.823 548.318 195.025 549.765C195.222 549.859 195.415 549.953 195.612 550.052C195.778 549.756 195.953 549.465 196.1 549.165C196.701 547.923 197.293 546.678 197.889 545.436V545.432ZM136.066 637.303C137.872 634.874 139.682 632.445 141.407 630.124C138.921 629.488 136.541 628.879 134.054 628.243C133.36 629.565 132.566 631.07 131.819 632.495C133.772 633.656 136.447 633.871 135.829 637.021C135.39 637.254 134.946 637.693 134.52 637.675C132.844 637.603 131.173 637.334 129.498 637.254C129.005 637.232 128.493 637.59 127.992 637.778C128.041 637.948 128.086 638.118 128.135 638.294C130.143 638.974 132.155 639.655 134.274 640.373C134.897 639.311 135.484 638.307 136.07 637.303H136.066ZM72.4424 751.981C72.3258 751.879 72.2143 751.771 72.0977 751.668C72.1108 751.852 72.1289 752.036 72.1426 752.219C72.8282 754.975 73.482 757.74 74.2211 760.486C74.3514 760.974 74.7366 761.611 75.1579 761.772C76.9903 762.471 78.8458 763.17 80.7592 763.573C82.2375 763.888 83.8107 763.767 85.8132 763.856C83.4654 760.339 82.2151 756.749 77.8148 756.704C77.1741 756.7 76.4393 756.127 75.9239 755.634C74.7098 754.473 73.5985 753.205 72.4467 751.981H72.4424ZM324.666 265.791C325.136 265.666 325.611 265.544 326.082 265.419C328.644 264.639 331.203 263.864 334.357 262.905C331.418 260.266 328.935 258.043 326.449 255.816C323.084 257.434 319.449 259.177 315.888 260.889C316.981 263.358 318.083 265.853 319.266 268.524C320.781 267.758 322.725 266.777 324.666 265.791ZM345.65 392.971C337.781 393.464 329.913 394.355 322.009 392.608C323.635 398.671 325.163 404.384 326.61 409.774C330.464 410.509 334.044 411.19 337.839 411.916C336.454 408.125 335.155 404.791 338.708 401.588C341.438 399.128 343.66 396.107 346.111 393.338C346.258 393.128 346.402 392.918 346.55 392.707C346.25 392.796 345.949 392.886 345.65 392.971ZM376.294 393.052C376.231 393.178 376.19 393.379 376.096 393.41C364.366 397.39 352.635 401.355 340.868 405.334C341.039 406.875 341.244 408.708 341.469 410.738C356.677 405.311 371.867 399.889 387.137 394.437C386.443 392.904 385.874 391.636 385.283 390.332C383.979 390.686 382.782 391.013 381.581 391.34C381.407 389.181 383.14 389.086 384.525 388.62C385.587 388.262 387.16 388.217 387.621 387.482C389.131 385.067 390.243 382.401 391.789 379.251C378.01 383.692 364.787 387.953 352.164 392.021C350.99 397.385 345.828 398.738 343.489 402.564C344.144 402.466 344.731 402.452 345.269 402.282C351.802 400.194 358.299 397.998 364.858 396C368.618 394.857 372.471 394.024 376.285 393.052H376.294ZM201.661 413.798C201.765 413.923 201.863 414.054 201.966 414.179C200.595 416.993 199.224 419.803 197.852 422.617C197.758 422.751 197.664 422.885 197.571 423.02C197.737 422.957 197.907 422.899 198.072 422.836C204.48 419.171 210.892 415.51 217.277 411.858C216.717 410.63 216.211 409.658 215.817 408.641C212.156 399.222 208.387 389.844 204.91 380.358C202.379 373.457 200.34 366.382 197.893 359.45C196.473 355.422 194.658 351.532 193.063 347.567C192.798 346.912 192.539 346.146 192.628 345.479C193.286 340.693 194.111 335.93 194.739 331.14C195.433 325.803 195.872 320.426 196.607 315.094C197.539 308.332 198.597 301.584 199.704 294.849C200.711 288.724 201.671 282.58 203.001 276.522C205.488 265.218 208.239 253.975 210.842 242.697C211.282 240.797 211.519 238.856 211.851 236.93C211.685 236.876 211.519 236.823 211.354 236.768C208.047 241.007 204.745 245.241 201.047 249.978C199.009 243.091 197.163 236.854 195.281 230.491C194.851 233.749 192.691 236.571 193.717 240.102C194.147 241.581 193.941 243.288 193.806 244.87C193.659 246.59 193.058 248.28 193.005 249.996C192.767 257.515 192.83 265.047 192.453 272.557C192.086 279.847 191.364 287.12 190.711 294.393C190.441 297.377 189.976 300.343 189.528 303.309C188.918 307.355 188.259 311.397 187.592 315.434C186.767 320.395 185.956 325.359 185.056 330.306C184.325 334.308 183.2 338.26 182.743 342.288C182.161 347.428 182.219 352.634 181.731 357.788C181.139 364.02 180.373 370.24 179.49 376.437C177.94 387.339 175.892 398.178 174.736 409.12C173.863 417.388 174.059 425.767 173.786 433.984C174.776 434.352 175.31 434.585 175.865 434.746C185.033 437.443 194.259 439.971 203.341 442.924C205.807 443.726 207.276 443.417 209.36 442.046C214.513 438.653 219.948 435.691 225.522 432.412C223.255 426.488 220.965 420.506 218.729 414.654C211.439 418.825 204.543 422.773 197.647 426.721C197.338 426.528 197.029 426.336 196.719 426.143C196.795 424.776 196.491 423.226 197.029 422.074C198.368 419.22 200.097 416.545 201.671 413.798H201.661ZM337.315 676.112C335.742 671.707 333.918 666.899 332.305 662.029C328.743 651.288 325.552 640.435 320.682 630.152C317.523 623.484 314.678 616.637 312.226 609.678C308.646 599.516 305.644 589.156 302.221 578.935C299.353 570.372 296.239 561.895 293.246 553.412C279.53 560.725 265.433 568.038 250.158 573.016C250.924 575.423 251.48 577.591 252.299 579.666C256.099 589.291 260.033 598.862 263.788 608.5C266.293 614.926 268.189 621.616 271.07 627.858C274.337 634.928 278.49 641.587 282.097 648.509C288.339 660.492 294.442 672.545 300.648 684.544C301.705 686.593 302.978 688.528 303.982 690.236C315.775 686.525 328.111 684.948 337.32 676.12L337.315 676.112ZM212.51 146.695C209.718 144.956 207.24 143.41 204.708 141.833C204.395 142.178 203.955 142.594 203.597 143.069C201.191 146.228 201.276 146.134 204.404 148.644C205.156 149.249 205.685 150.875 205.457 151.825C204.829 154.433 203.75 156.933 202.831 159.469C202.639 160.002 202.379 160.514 202.146 161.033C201.899 160.966 201.653 160.903 201.406 160.836C201.671 158.779 201.881 156.714 202.213 154.665C202.45 153.21 202.701 152.027 200.721 151.444C199.667 151.135 198.865 149.979 197.934 149.19C196.943 150.068 195.061 150.956 194.958 152.017C194.81 153.577 194.209 153.375 193.273 153.388C192.767 153.398 192.252 153.465 191.755 153.554C191.086 153.68 190.428 153.855 189.765 154.012C189.671 153.236 189.321 152.394 189.518 151.704C190.715 147.528 192.037 143.383 193.237 139.489C189.451 137.692 185.714 135.783 181.861 134.143C179.678 133.216 177.971 130.823 175.063 131.755C174.835 131.827 173.916 130.653 173.826 129.994C173.732 129.277 174.225 128.48 174.481 127.722C175.946 123.309 177.416 118.895 178.926 114.365C178.478 114.396 178.11 114.405 177.752 114.446C172.68 115.015 167.616 115.772 162.53 116.108C158.251 116.39 158.242 116.175 156.844 120.271C154.29 127.758 152.529 135.402 151.696 143.293C151.082 149.132 151.203 155.127 148.303 160.572C147.138 162.763 146.516 165.236 145.431 168.158C147.959 168.754 150.445 169.336 153.112 169.963C152.13 172.477 151.14 175.112 150.069 177.716C148.98 180.368 149.249 182.326 151.426 184.105C152.493 184.978 153.86 185.61 155.195 186.005C156.364 186.35 157.292 186.753 156.647 187.986C156.096 189.038 155.038 189.827 153.841 191.131C156.45 194.102 159.308 197.355 162.355 200.827C170.43 198.412 178.384 194.783 186.032 190.441C186.834 189.984 187.771 189.764 188.644 189.433C188.783 189.648 188.922 189.867 189.061 190.082C187.565 191.633 186.068 193.183 184.952 194.339C188.864 201.298 192.74 208.185 196.571 214.992C205.515 202.53 217.299 192.811 227.404 182.277C226.898 181.192 226.427 180.391 226.145 179.525C225.876 178.701 225.983 177.72 225.603 176.967C222.099 170.021 218.527 163.112 215.037 156.315C214.566 157.807 214.293 159.599 213.468 161.087C212.366 163.085 211.143 165.254 209.395 166.589C208.1 167.579 205.878 167.642 204.076 167.611C201.688 167.571 199.219 167.293 197.409 165.093C199.502 164.833 201.558 164.81 203.57 165.119C204.695 165.29 205.134 165.043 205.529 164.049C207.836 158.232 210.193 152.434 212.51 146.695ZM313.553 276.679C315.601 280.708 318.128 284.678 319.714 288.998C323.501 299.276 327.031 309.659 330.316 320.108C334.6 333.743 338.525 347.491 342.66 361.175C343.898 365.27 345.331 369.312 346.675 373.39C350.081 372.014 350.032 372.05 347.948 369.38C347.656 369.003 348.087 368.066 348.181 367.39C349.413 367.628 350.69 367.744 351.847 368.174C352.218 368.313 352.433 369.281 352.461 369.881C352.581 372.503 350.703 373.842 348.795 374.958C347.666 375.616 347.294 376.056 347.916 377.329C348.445 378.408 348.575 379.685 349.064 381.58C349.973 380.169 350.47 379.197 351.165 378.395C351.6 377.888 352.33 377.633 352.926 377.261C353.119 378 353.701 378.946 353.433 379.439C352.729 380.752 351.663 381.868 350.74 383.064C350.435 383.454 349.812 383.893 349.866 384.216C350.238 386.322 350.758 388.405 351.228 390.471C364.643 384.547 378.727 381.339 392.358 376.903C388.119 364.19 383.956 351.734 379.811 339.272C376.218 328.478 372.4 317.755 369.115 306.867C364.401 291.242 359.594 275.712 349.185 262.327C337.351 267.095 325.279 271.956 313.557 276.675L313.553 276.679ZM308.557 279.485C309.175 282.523 309.807 285.439 310.354 288.374C311.487 294.473 312.504 300.594 313.692 306.679C314.893 312.827 316.291 318.934 317.519 325.077C318.02 327.582 317.846 330.32 318.809 332.605C320.073 335.607 320.108 338.502 319.4 341.433C317.89 347.674 316.116 353.854 314.508 360.077C314.18 361.341 313.683 362.792 314.005 363.953C316.514 373.023 319.203 382.038 321.838 391.067C326.184 390.847 330.603 390.628 335.02 390.39C339.471 390.153 343.982 390.959 348.481 389.812C347.934 388.391 347.791 386.693 346.899 386.075C346.008 385.457 344.332 386.097 343.059 385.855C342.007 385.659 340.564 385.228 340.165 384.453C339.69 383.534 340.151 382.136 340.2 381.048C342.298 381.662 343.798 382.105 345.676 382.656C344.825 380.434 344.17 378.731 343.534 377.069C340.559 377.583 337.732 377.924 335.482 375.747C334.891 375.178 334.474 373.672 334.819 373.094C335.2 372.458 336.54 372.157 337.467 372.153C338.184 372.153 338.91 372.825 339.618 373.219C340.438 373.672 341.244 374.147 342.06 374.613C340.792 369.63 339.103 365.172 337.691 360.628C333.219 346.227 328.792 331.812 324.459 317.37C320.763 305.052 316.887 292.806 311.689 281.017C311.08 279.637 310.335 278.781 308.548 279.485H308.557ZM307.464 780.359C308.561 783.065 310.645 783.802 313.333 783.382C313.902 783.295 314.525 783.403 315.099 783.526C322.08 784.953 329.03 786.553 336.051 787.74C338.028 788.08 338.677 788.905 339.049 790.542C339.193 791.164 339.457 791.765 339.739 792.605C353.693 790.216 367.713 788.261 380.412 782.51C377.029 775.376 373.758 768.475 370.478 761.553C367.336 764.698 364.151 767.84 361.028 771.039C360.257 771.827 359.679 772.804 359.016 773.696C359.164 773.96 359.311 774.224 359.459 774.494C358.433 774.305 357.304 774.323 356.403 773.88C354.45 772.92 352.608 771.743 350.735 770.631C344.045 766.67 337.404 762.633 330.661 758.77C327.497 756.96 327.412 757.108 325.163 759.944C325.122 759.993 325.145 760.088 325.132 760.245C327.802 762.458 331.808 763.417 333 768.104C329.182 766.356 325.924 764.864 322.582 763.332C321.193 764.926 319.754 766.585 318.379 768.166C320.444 769.815 322.38 771.361 324.692 773.212C320.789 774.171 318.737 771.518 316.08 770.904C313.172 774.099 310.278 777.285 307.472 780.368L307.464 780.359ZM92.2166 769.529C87.521 770.098 82.7486 770.765 77.9539 771.191C77.0352 771.272 75.6821 770.685 75.1355 769.954C73.3524 767.557 71.7213 765.026 70.2603 762.417C67.7105 757.874 65.3316 753.236 63.0729 749.007C54.8284 752.094 46.9597 755.038 38.9976 758.018C38.7109 759.089 38.2584 760.536 37.958 762.014C37.8327 762.637 37.8233 763.421 38.0926 763.968C40.2479 768.323 42.4205 772.67 44.7371 776.944C45.2663 777.922 46.2118 778.921 47.2066 779.346C50.9436 780.937 54.7386 782.406 58.5836 783.707C65.4482 786.024 72.3128 788.37 79.2802 790.339C83.3807 791.497 87.6817 791.946 91.7011 792.677C94.1655 784.555 91.6606 776.868 92.2209 769.533L92.2166 769.529ZM148.294 550.325C148.088 555.366 147.838 560.044 147.721 564.722C147.452 575.279 156.723 584.936 166.688 584.953C174.377 584.967 180.028 581.369 185.665 576.234C183.724 575.925 182.201 575.785 180.731 575.423C178.773 574.934 176.806 574.401 174.946 573.643C173.446 573.034 173.325 571.466 173.8 570.225C174.01 569.664 175.413 569.073 176.071 569.248C179.391 570.131 182.824 570.897 185.862 572.421C188.174 573.577 189.182 572.783 190.302 571.152C191.028 570.094 191.71 569.006 192.547 567.72C177.917 561.971 163.435 556.276 148.294 550.321V550.325ZM-14.5848 765.953C-13.079 766.661 -11.6629 767.203 -10.3728 767.961C-0.129524 773.964 10.6785 778.795 21.6298 783.324C35.0361 788.862 48.4612 794.364 61.8812 799.866C64.2203 800.829 66.55 802.349 68.9565 802.516C76.1526 802.994 83.385 802.936 90.6036 803.073C92.0016 803.102 93.3995 803.073 94.8829 803.073C94.4703 800.351 94.0895 797.868 93.7492 795.624C92.6336 796.094 91.5621 797.007 90.6883 796.855C84.0301 795.638 77.2777 794.668 70.8163 792.742C61.3839 789.933 52.1621 786.393 42.8599 783.135C35.9012 780.699 28.8976 778.36 22.0149 775.717C15.5493 773.235 9.16829 770.519 2.84595 767.696C-2.30719 765.393 -7.317 762.771 -12.51 760.231C-13.0833 761.817 -13.85 763.923 -14.5892 765.953H-14.5848ZM383.06 785.973C379.946 787.132 376.648 788.428 373.296 789.579C361.005 793.807 348.284 796.08 335.433 797.702C331.252 798.23 327.05 798.614 322.855 799.055C315.677 799.801 308.516 800.8 301.32 801.198C296.023 801.488 290.683 801.061 285.368 800.807C281.703 800.641 278.033 800.322 274.39 799.866C272.961 799.692 271.603 798.94 269.752 798.288C269.309 799.888 268.798 801.748 268.301 803.537C269.556 803.537 270.653 803.464 271.742 803.551C278.876 804.116 286 805.064 293.143 805.238C308.507 805.615 323.886 805.629 339.255 805.738C341.536 805.759 343.821 805.39 346.106 805.332C346.886 805.31 347.769 806.02 348.441 805.824C354.409 804.08 360.342 802.205 366.288 800.387C373.35 798.223 380.416 796.087 387.428 793.951C385.816 791.005 384.418 788.449 383.055 785.966L383.06 785.973ZM203.808 240.12C205.662 237.728 207.424 235.657 208.957 233.426C211.13 230.267 214.387 227.878 215.615 224.048C215.682 223.841 215.817 223.483 215.911 223.487C218.061 223.563 217.954 221.61 218.406 220.449C222.587 209.709 228 199.631 234.56 190.172C237.607 185.776 237.634 185.87 233.592 182.492C232.471 181.555 231.858 181.828 231.047 182.747C224.545 190.109 218.07 197.503 211.483 204.793C207.522 209.18 203.378 213.405 199.497 217.509C202.486 224.751 202.799 232.364 203.803 240.12H203.808ZM271.469 457.854C260.338 453.682 249.378 449.573 238.355 445.442C237.916 446.813 237.513 448.081 237.096 449.381C242.057 456.124 245.964 463.777 252.067 469.374C258.6 465.494 264.971 461.712 271.473 457.85L271.469 457.854ZM309.588 700.286C309.861 700.837 310.241 701.872 310.86 702.746C311.16 703.172 311.94 703.57 312.428 703.499C317.734 702.692 323.039 701.895 328.309 700.891C333.229 699.95 338.094 698.717 342.324 695.859C342.938 695.442 343.566 694.353 343.458 693.703C343.167 692.001 342.468 690.37 341.966 688.801C336.688 691.087 331.624 693.596 326.336 695.469C320.915 697.391 315.274 698.686 309.596 700.291L309.588 700.286ZM345.08 698.44C335.809 705.332 325.194 707.603 314.064 708.23C314.041 708.374 313.952 708.553 314.005 708.656C314.749 710.068 315.229 711.828 316.381 712.729C317.044 713.249 318.809 712.407 320.063 712.115C329.222 710.005 338.372 707.881 347.545 705.757C346.626 703.037 345.9 700.873 345.075 698.44H345.08ZM256.637 377.149C256.023 380.088 255.723 383.095 254.759 385.874C250.001 399.567 245.005 413.184 240.228 426.874C239.01 430.359 238.279 434.015 237.325 437.592C237.575 437.668 237.822 437.744 238.073 437.824C238.723 436.265 239.408 434.719 240.013 433.142C244.059 422.594 248.123 412.055 252.112 401.485C254.074 396.278 256.113 391.085 257.694 385.757C258.546 382.889 258.142 379.806 256.637 377.149ZM299.873 228.326C299.729 228.452 299.582 228.582 299.438 228.708C300.419 230.276 301.396 231.848 302.382 233.412C306.944 240.671 311.496 247.939 316.111 255.163C316.375 255.575 317.272 255.91 317.756 255.794C319.893 255.284 321.99 254.594 323.976 254.002C315.937 245.439 307.902 236.88 299.868 228.322L299.873 228.326ZM395.821 320.211C399.321 329.966 402.735 339.483 406.311 349.435C410.653 337.919 405.473 326.022 395.821 320.211ZM298.945 243.508C298.878 243.534 298.811 243.561 298.743 243.593C301.342 252.824 303.937 262.054 306.536 271.284C308.019 267.893 309.081 264.572 310.089 261.229C310.215 260.822 310.196 260.212 309.973 259.876C306.321 254.401 302.629 248.956 298.945 243.508ZM349.919 442.838C349.919 442.838 350.26 442.959 350.609 443.063C352.809 443.694 353.235 443.313 352.944 441.086C352.747 439.567 352.774 438.008 352.461 436.516C351.47 431.807 350.368 427.218 345.667 424.48C342.392 422.576 339.408 420.116 337.884 416.504C337.239 414.977 336.423 414.932 335.258 415.147C335.728 418.817 337.834 421.29 340.752 423.289C344.076 425.565 346.922 428.379 347.971 432.394C348.835 435.701 349.243 439.124 349.915 442.838H349.919ZM340.814 685.651C340.398 684.456 340.053 683.465 339.699 682.444C334.053 687.211 314.942 694.685 306.612 694.726C307.083 697.244 308.565 697.768 310.828 696.845C311.774 696.459 312.777 696.213 313.763 695.935C323.039 693.3 332.023 689.922 340.819 685.651H340.814ZM262.31 357.662C262.606 357.671 262.902 357.68 263.197 357.689C263.385 355.766 263.426 353.813 263.807 351.926C264.29 349.516 264.712 346.998 265.76 344.816C269.04 337.991 272.616 331.31 276.035 324.553C276.393 323.84 276.461 322.98 276.662 322.187C276.482 322.119 276.304 322.053 276.129 321.986C275.891 322.303 275.627 322.599 275.425 322.94C271.684 329.271 267.929 335.589 264.232 341.947C263.367 343.435 262.18 345.017 262.077 346.617C261.844 350.277 262.194 353.974 262.305 357.657L262.31 357.662ZM236.814 285.515C237.347 284.571 237.808 284.131 237.741 283.8C236.702 278.642 235.55 273.507 234.542 268.345C234.372 267.467 234.484 266.311 234.941 265.576C236.607 262.892 238.508 260.356 240.246 257.712C240.927 256.672 241.407 255.499 241.976 254.383C241.577 254.051 241.173 253.715 240.775 253.384C240.367 254.181 240.053 255.046 239.538 255.767C237.701 258.344 236.025 261.09 233.856 263.362C231.123 266.225 230.791 268.999 232.333 272.58C234.036 276.536 235.187 280.73 236.814 285.511V285.515ZM241.371 208.315C240.623 209.085 240.111 209.363 240.049 209.718C239.812 211.097 239.565 212.509 239.592 213.903C239.668 218.424 239.861 222.941 240.009 227.457C240.273 235.523 240.537 243.588 240.802 251.654C240.99 251.654 241.183 251.654 241.371 251.649V208.315ZM192.413 234.685C192.893 232.543 193.085 230.159 193.981 228.08C194.999 225.718 194.465 223.469 194.25 221.202C194.098 219.611 193.354 218.079 192.754 216.125C191.046 218.85 189.747 220.915 188.891 222.282C190.181 226.817 191.302 230.764 192.418 234.68L192.413 234.685ZM134.695 613.573C132.621 613.039 130.81 612.564 128.991 612.121C128.758 612.062 128.292 612.121 128.247 612.237C127.589 614.088 126.289 616.046 126.518 617.803C126.903 620.809 129.291 622.66 132.289 623.896C130.725 619.895 131.975 616.718 134.695 613.573ZM148.008 586.1C147.595 587.472 147.009 588.749 146.865 590.075C146.686 591.733 147.165 593.239 149.07 593.79C151.135 594.39 153.192 595.022 155.321 595.658C155.455 595.237 155.867 594.484 155.894 593.718C155.916 592.996 155.773 591.97 155.294 591.576C153.026 589.717 150.62 588.031 148.012 586.096L148.008 586.1ZM221.257 375.478C221.48 375.393 221.709 375.307 221.933 375.218C217.676 363.729 213.419 352.24 209.162 340.756L208.275 341.083C211.421 352.984 216.56 364.15 221.257 375.478ZM293.178 469.432C293.12 469.217 293.066 468.998 293.008 468.783C292.349 468.89 291.637 468.868 291.037 469.123C288.456 470.216 285.915 471.404 283.343 472.529C281.336 473.407 279.126 475.186 277.334 474.841C275.385 474.469 273.825 472.094 272.065 470.633C271.42 470.095 270.689 469.665 269.994 469.186C269.838 469.397 269.685 469.612 269.529 469.822C272.378 472.238 275.21 474.675 278.1 477.037C278.459 477.332 279.283 477.485 279.646 477.279C284.181 474.711 288.671 472.062 293.174 469.432H293.178ZM134.265 649.769C138.598 643.684 142.891 637.657 147.219 631.581C145.4 631.191 144.078 631.469 143.366 633.293C143.057 634.086 142.398 634.735 141.945 635.48C140.377 638.047 138.966 640.727 137.236 643.177C135.771 645.248 133.942 647.054 132.181 649.088C133.073 649.379 133.606 649.554 134.269 649.769H134.265ZM168.423 397.492C168.965 396.981 169.131 396.901 169.148 396.793C170.363 389.642 171.626 382.495 172.738 375.325C173.11 372.933 173.118 370.481 173.231 368.053C173.244 367.744 172.863 367.417 172.666 367.098C172.41 367.358 171.958 367.596 171.927 367.878C171.581 370.956 171.335 374.048 170.99 377.127C170.65 380.188 170.224 383.238 169.838 386.295C169.386 389.879 168.933 393.469 168.427 397.492H168.423ZM345.416 449.842C347.186 450.129 348.445 450.255 349.664 450.55C353.997 451.59 354.544 450.097 353.495 447.095C353.276 446.463 353.321 445.738 353.289 445.464C351.344 445.37 349.7 445.294 347.441 445.186C346.949 446.32 346.219 447.996 345.416 449.842ZM131.94 642.837C130.075 642.196 128.189 641.546 126.146 640.848C125.54 641.739 124.904 642.68 124.268 643.626C124.483 643.478 124.698 643.325 124.909 643.177C126.455 644.929 128.005 646.686 129.6 648.492C130.366 646.637 131.128 644.804 131.94 642.842V642.837ZM258.842 502.317C258.483 502.501 258.125 502.684 257.766 502.868C261.077 509.173 264.394 515.473 267.705 521.777C267.956 521.648 268.202 521.523 268.453 521.392L258.842 502.317ZM396.431 354.113C396.139 354.145 395.852 354.18 395.561 354.212C395.27 355.627 394.979 357.039 394.692 358.455C395.723 358.629 396.973 359.243 397.739 358.867C398.819 358.338 400.271 357.088 400.285 356.13C400.324 353.347 397.524 355.301 396.435 354.113H396.431ZM389.951 336.315C389.606 336.486 389.257 336.656 388.912 336.83C388.912 338.22 388.787 339.626 389.01 340.975C389.06 341.267 390.749 341.732 391.049 341.45C391.824 340.715 392.891 339.371 392.649 338.703C392.291 337.713 390.901 337.095 389.951 336.32V336.315ZM249.302 214.48C254.19 210.851 258.698 207.504 263.287 204.098C260.011 204.802 252.587 210.274 249.302 214.48ZM382.966 322.362C382.702 323.881 382.903 325.584 384.839 326.305C385.318 326.484 386.757 325.642 386.739 325.324C386.671 324.096 386.196 322.886 385.941 321.932C384.543 322.133 383.795 322.241 382.97 322.362H382.966ZM261.822 361.215C261.593 361.045 261.36 360.875 261.132 360.704C259.447 363.075 256.691 364.688 255.844 367.646C256.041 367.784 256.238 367.927 256.431 368.066C258.228 365.781 260.02 363.496 261.817 361.211L261.822 361.215ZM348.078 455.318C349.471 454.444 350.52 453.785 351.573 453.127C351.506 453.001 351.443 452.876 351.376 452.754H348.078V455.318ZM193.824 552.982L194.021 553.045C194.133 552.759 194.246 552.476 194.358 552.189C194.228 552.153 194.102 552.118 193.972 552.082C193.923 552.382 193.874 552.683 193.829 552.982H193.824ZM268.373 522.387L268.171 522.409L268.193 522.297L268.373 522.387ZM194.371 551.549C194.43 551.607 194.479 551.656 194.532 551.71C194.582 551.611 194.649 551.513 194.671 551.41C194.68 551.374 194.582 551.311 194.532 551.261C194.479 551.361 194.425 551.455 194.371 551.549ZM195.204 550.59C195.155 550.54 195.093 550.442 195.057 550.451C194.949 550.473 194.855 550.54 194.757 550.59C194.806 550.639 194.864 550.737 194.904 550.729C195.012 550.706 195.106 550.639 195.204 550.59Z" fill="#090909"/>
<path d="M386.959 305.67C387.16 305.554 387.366 305.433 387.567 305.316C387.612 305.424 387.653 305.531 387.698 305.639C387.442 305.626 387.182 305.612 386.927 305.594L386.959 305.666V305.67Z" fill="#090909"/>
<path d="M290.588 418.987C292.291 414.492 293.855 409.94 295.728 405.517C298.977 397.837 302.413 390.238 305.778 382.607C306.047 382.002 306.365 381.415 307.038 381.007C303.35 394.544 296.15 406.593 291.014 419.502C290.87 419.328 290.727 419.157 290.588 418.982V418.987Z" fill="#F6F6F6"/>
<path d="M221.252 375.483C216.552 364.155 211.412 352.988 208.271 341.087L209.158 340.76C213.415 352.249 217.672 363.738 221.928 375.223C221.705 375.307 221.476 375.393 221.252 375.483Z" fill="#F6F6F6"/>
<path d="M168.418 397.497C168.924 393.469 169.377 389.884 169.829 386.299C170.215 383.243 170.64 380.192 170.981 377.131C171.326 374.053 171.573 370.961 171.917 367.882C171.949 367.596 172.402 367.363 172.657 367.103C172.854 367.421 173.239 367.749 173.221 368.058C173.11 370.486 173.1 372.937 172.729 375.33C171.618 382.499 170.354 389.646 169.139 396.797C169.121 396.905 168.951 396.986 168.413 397.497H168.418Z" fill="#F6F6F6"/>
<path d="M258.837 502.322L268.449 521.397C268.197 521.527 267.951 521.652 267.7 521.782C264.389 515.478 261.073 509.178 257.762 502.873C258.12 502.689 258.479 502.506 258.837 502.322Z" fill="#F6F6F6"/>
<path d="M197.409 545.436C200.385 539.558 203.351 533.674 206.339 527.804C206.927 526.653 207.612 525.555 208.482 524.552C205.807 531.949 201.81 538.675 197.884 545.441C197.727 545.441 197.566 545.441 197.409 545.441V545.436Z" fill="#F6F6F6"/>
<path d="M249.298 214.485C252.577 210.278 260.002 204.811 263.282 204.103C258.698 207.508 254.191 210.856 249.298 214.485Z" fill="#F6F6F6"/>
<path d="M155.522 528.073C160.124 529.637 164.721 531.201 169.323 532.765C169.306 532.863 169.291 532.962 169.273 533.06C165.779 532.182 162.257 531.389 158.802 530.372C157.552 530.004 156.454 529.1 155.289 528.441C155.387 528.333 155.468 528.208 155.522 528.073Z" fill="#F6F6F6"/>
<path d="M192.754 485.285C188.631 483.704 184.508 482.122 180.391 480.541L180.695 479.761C184.809 481.464 188.922 483.166 193.031 484.869C192.937 485.007 192.848 485.146 192.754 485.281V485.285Z" fill="#F6F6F6"/>
<path d="M261.817 361.22C260.02 363.505 258.228 365.79 256.431 368.075C256.234 367.937 256.036 367.793 255.844 367.654C256.691 364.697 259.447 363.083 261.132 360.713C261.36 360.883 261.593 361.054 261.822 361.224L261.817 361.22Z" fill="#F6F6F6"/>
<path d="M258.12 326.09C257.045 322.917 255.969 319.745 254.894 316.573C255.122 316.501 255.351 316.425 255.575 316.353C256.525 319.517 257.471 322.675 258.42 325.839C258.322 325.92 258.223 326.005 258.12 326.085V326.09Z" fill="#F6F6F6"/>
<path d="M290.588 418.987C290.731 419.162 290.875 419.332 291.019 419.507C290.019 421.778 289.024 424.05 288.025 426.318L287.613 426.049C288.603 423.696 289.598 421.34 290.588 418.987Z" fill="#F6F6F6"/>
<path d="M258.416 325.844C258.811 326.677 259.2 327.514 259.595 328.348C259.474 328.415 259.357 328.496 259.249 328.59C258.873 327.757 258.492 326.923 258.116 326.09C258.215 326.009 258.313 325.924 258.416 325.844Z" fill="#F6F6F6"/>
<path d="M259.595 328.348C259.653 328.719 259.711 329.092 259.774 329.468C259.648 329.486 259.527 329.505 259.402 329.527C259.353 329.218 259.304 328.904 259.254 328.595C259.361 328.5 259.474 328.42 259.599 328.353L259.595 328.348Z" fill="#F6F6F6"/>
<path d="M194.026 485.228C194.411 485.339 194.792 485.456 195.177 485.568C195.128 485.725 195.075 485.881 195.025 486.034C194.622 485.837 194.219 485.639 193.816 485.443C193.882 485.371 193.954 485.299 194.026 485.228Z" fill="#F6F6F6"/>
<path d="M287.179 428.63C287.277 428.128 287.376 427.621 287.474 427.12C287.56 427.209 287.649 427.29 287.743 427.366C287.537 427.769 287.331 428.168 287.125 428.571L287.174 428.63H287.179Z" fill="#F6F6F6"/>
<path d="M288.025 426.318C287.931 426.667 287.838 427.016 287.748 427.366C287.654 427.29 287.563 427.205 287.479 427.12C287.523 426.761 287.568 426.407 287.618 426.049C287.757 426.138 287.891 426.228 288.03 426.318H288.025Z" fill="#F6F6F6"/>
<path d="M287.129 428.571C287.053 428.809 286.977 429.046 287.093 428.688C286.811 428.907 286.991 428.764 287.179 428.63L287.134 428.576L287.129 428.571Z" fill="#F6F6F6"/>
<path d="M193.032 484.868C193.363 484.989 193.69 485.106 194.022 485.223C193.95 485.294 193.883 485.366 193.811 485.438C193.457 485.384 193.103 485.335 192.754 485.281C192.848 485.142 192.937 485.003 193.032 484.868Z" fill="#F6F6F6"/>
<path d="M268.368 522.391L268.189 522.302L268.171 522.414L268.368 522.391Z" fill="#F6F6F6"/>
<path d="M155.289 528.445C155.186 528.324 155.083 528.208 154.98 528.087C155.159 528.087 155.343 528.078 155.522 528.073C155.468 528.212 155.388 528.333 155.289 528.441V528.445Z" fill="#F6F6F6"/>
<path d="M171.057 147.34C170.22 147.59 169.547 147.936 168.866 147.967C164.412 148.164 159.954 148.253 155.504 148.455C153.698 148.536 152.206 148.536 152.713 145.991C152.852 145.296 152.511 144.508 152.394 143.759C157.982 140.349 169.391 142.33 171.057 147.34Z" fill="#090909"/>
<path d="M164.421 153.267C164.21 153.949 164.206 154.272 164.076 154.339C162.462 155.145 161.715 156.364 161.347 158.206C161.06 159.626 157.901 159.496 157.108 158.13C156.57 157.197 156.082 156.239 155.486 155.136H153.716C153.098 152.856 154.097 152.148 156.082 152.358C158.78 152.645 161.473 152.95 164.425 153.272L164.421 153.267Z" fill="#090909"/>
<path d="M201.657 413.807C201.962 413.354 202.266 412.902 202.567 412.449C202.661 412.579 202.759 412.709 202.854 412.839C202.557 413.287 202.258 413.739 201.962 414.188C201.859 414.062 201.76 413.932 201.657 413.807Z" fill="#090909"/>
<path d="M202.567 412.449C202.782 412.306 202.997 412.158 203.212 412.015C203.091 412.288 202.97 412.566 202.849 412.839C202.755 412.709 202.657 412.58 202.563 412.449H202.567Z" fill="#090909"/>
<path d="M353.885 286.322C353.885 292.268 349.825 296.588 344.107 298.268C339.269 299.688 335.998 297.435 333.587 294.397C331.064 291.215 330.984 286.994 333.107 283.204C335.267 279.341 338.861 277.799 343.095 277.486C343.763 277.437 344.435 277.477 345.107 277.477C351.147 277.477 353.885 280.237 353.89 286.318L353.885 286.322ZM336.365 284.673C338.534 285.296 340.702 285.914 342.871 286.538L342.696 287.469H336.244C337.691 292.488 339.99 295.015 345.505 292.828C345.833 292.698 346.285 292.851 346.586 292.69C348.409 291.704 350.757 291.076 351.9 289.553C354.1 286.618 352.048 281.788 348.396 280.766C343.404 279.373 339.421 279.794 336.037 284.436C336.037 284.619 336.033 284.803 336.029 284.987C336.141 284.884 336.258 284.781 336.369 284.673H336.365Z" fill="#090909"/>
<path d="M366.033 311.321C366.669 311.169 367.256 311.026 367.838 310.887C367.946 311.061 368.053 311.236 368.165 311.411C367.247 312.105 366.422 313.05 365.387 313.449C357.474 316.519 349.525 319.489 341.576 322.456C340.711 322.778 339.766 322.994 338.847 323.052C337.794 323.124 335.415 319.329 335.921 318.365C336.221 317.787 336.777 317.249 337.351 316.927C344.013 313.199 351.022 310.255 358.343 308.104C359.723 307.7 361.292 307.427 362.672 307.674C364.553 308.01 365.97 309.233 366.033 311.321ZM358.509 310.506C352.926 313.199 347.585 315.78 342.244 318.356C342.311 318.508 342.374 318.656 342.441 318.809C348.409 316.877 354.378 314.946 360.431 312.993C359.835 312.222 359.222 311.424 358.513 310.506H358.509Z" fill="#090909"/>
<path d="M355.704 354.006C355.211 353.437 354.642 352.921 354.244 352.289C351.026 347.176 348.902 341.593 347.271 335.809C347.097 335.186 346.908 334.366 347.163 333.864C347.54 333.124 348.221 332.381 348.956 332.049C349.274 331.906 350.403 332.694 350.564 333.237C352.169 338.65 353.669 344.094 355.153 349.542C355.529 350.927 355.731 352.356 356.013 353.768C355.91 353.848 355.807 353.924 355.699 354.006H355.704Z" fill="#090909"/>
<path d="M365.902 350.945C365.02 349.718 364.003 348.799 363.599 347.661C361.619 342.06 359.772 336.409 357.958 330.75C357.59 329.612 357.456 328.308 359.737 328.083C361.05 331.749 362.511 335.495 363.725 339.317C364.876 342.942 367.914 346.195 365.902 350.945Z" fill="#090909"/>
<path d="M362.193 351.527C358.307 344.824 354.49 338.466 353.41 330.934C353.352 330.517 353.751 330.037 353.934 329.585C354.391 329.809 355.117 329.917 355.269 330.271C356.452 333.062 357.631 335.862 358.608 338.73C359.938 342.62 361.094 346.568 362.309 350.492C362.367 350.685 362.264 350.922 362.193 351.527Z" fill="#090909"/>
<path d="M366.575 326.063C371.441 332.605 372.539 340.653 375.608 348.001C373.439 348.776 372.723 347.517 372.355 346.276C370.365 339.555 368.488 332.807 366.57 326.063H366.575Z" fill="#090909"/>
<path d="M370.222 348.987C369.434 348.032 368.269 347.195 367.924 346.097C366.248 340.787 364.778 335.41 363.282 330.042C363.12 329.464 363.259 328.805 363.617 328.097C366.728 334.671 368.972 341.509 371.114 348.382C370.818 348.584 370.518 348.781 370.222 348.983V348.987Z" fill="#090909"/>
<path d="M356.319 276.724C356.883 279.202 355.996 280.031 353.375 279.887C354.517 278.659 355.418 277.692 356.319 276.724Z" fill="#090909"/>
<path d="M356.193 354.221C356.242 354.221 356.295 354.225 356.345 354.229C356.313 354.319 356.282 354.413 356.255 354.503C356.206 354.454 356.143 354.413 356.116 354.35C356.103 354.323 356.166 354.265 356.193 354.216V354.221Z" fill="#090909"/>
<path d="M325.736 265.078C325.396 265.338 325.06 265.603 324.719 265.863C324.424 265.863 324.128 265.831 323.832 265.858C322.156 265.992 320.7 265.916 320.65 263.635C320.583 260.687 321.059 260.055 323.585 259.773C324.827 259.634 326.323 257.994 327.175 259.943C327.986 261.817 327.121 263.613 325.741 265.078H325.736Z" fill="#090909"/>
</g>
<defs>
<clipPath id="clip0_1976_931">
<rect y="0.84375" width="456" height="520" rx="8" fill="white"/>
</clipPath>
</defs>
</svg>
