<svg width="456" height="521" viewBox="0 0 456 521" fill="none" xmlns="http://www.w3.org/2000/svg">
<g clip-path="url(#clip0_1976_940)">
<rect y="0.96875" width="456" height="520" rx="8" fill="#FBFF41"/>
<path d="M205.04 442.726C206.77 442.703 208.156 443.425 209.18 444.578C212.615 448.442 216.662 451.504 221.389 453.502C224.182 454.686 227.24 455.245 230.166 456.126C235.937 457.857 241.699 459.614 247.466 461.361C250.644 462.323 253.795 462.416 256.989 461.31C257.446 461.152 258.366 461.613 258.743 462.063C260.97 464.752 262.282 467.938 262.596 471.353C263.015 475.878 266.787 477.978 270.349 477.981C277.762 477.985 285.158 477.326 292.189 475.117C296.672 473.708 300.777 471.027 304.941 468.722C309.279 466.32 313.59 463.844 317.72 461.108C321.34 458.706 322.334 455.734 321.026 451.636C319.28 446.161 317.25 440.778 315.356 435.353C313.424 429.8 311.375 424.286 309.632 418.675C308.367 414.604 307.549 410.393 306.47 406.261C305.736 403.455 305.768 403.218 308.515 402.559C312.454 401.608 316.389 400.719 319.046 397.246C319.147 397.118 319.345 397.064 319.726 396.846C323.401 400.754 327.122 404.658 330.766 408.632C331.6 409.544 332.493 409.757 333.642 409.734C336.622 409.68 336.804 409.707 337.456 412.516C338.706 417.875 340.503 423.172 339.819 428.826C339.622 430.471 339.528 432.128 339.455 433.785C339.381 435.454 340.467 436.063 341.829 435.656C343.118 435.268 344.363 434.542 345.446 433.723C347.565 432.116 349.556 430.34 351.71 428.543C355.117 433.778 357.441 439.257 359.618 444.81C359.754 445.159 359.858 445.524 360.014 445.865C361.329 448.714 362.361 448.873 364.243 446.366C366.215 443.743 368.237 441.135 369.929 438.334C372.56 433.987 374.252 429.257 374.318 424.111C374.356 420.976 374.22 417.821 373.926 414.697C373.541 410.634 370.565 407.976 368.244 404.988C367.107 403.525 365.808 402.178 364.783 400.641C362.983 397.941 360.604 395.993 357.313 394.553C361.143 392.861 364.95 390.987 364.892 386.575C364.845 383.109 363.615 379.605 360.949 376.648C365.027 373.187 363.068 368.01 363.786 363.462C364.263 360.435 364.092 357.257 363.816 354.18C363.483 350.45 360.778 343.481 355.578 342.263C351.465 341.296 349.392 338.243 348.085 334.82C346.909 331.738 345.395 329.491 342.272 328.215C340.808 327.617 340.363 326.228 340.479 324.365C340.7 320.768 343.331 318.758 345.136 316.24C347.239 313.31 348.229 310.384 347.026 306.814C344.686 299.871 342.504 292.875 340.196 285.917C339.299 283.212 337.561 282.009 334.585 282.118C332.446 282.195 330.308 282.533 328.189 282.87C327.064 283.049 326.404 282.688 325.857 281.734C323.61 277.826 321.216 274 319.078 270.03C317.378 266.875 314.068 265.509 311.848 262.994C309.466 260.289 306.703 260.488 303.68 261.291C303.195 261.419 302.516 261.395 302.1 261.147C299.962 259.878 297.525 258.928 296.512 256.328C296.38 255.99 296.132 255.61 295.83 255.439C291.522 252.948 288.654 249.009 285.725 245.194C283.439 242.222 281.56 238.943 279.391 235.877C278.495 234.608 277.303 233.549 276.465 232.637C278.704 229.664 281.188 226.843 283.116 223.684C285.542 219.718 286.978 215.283 287.036 210.584C287.086 206.369 285.86 202.392 284.242 198.507C281.696 192.404 280.392 185.949 278.813 179.547C276.73 171.099 273.287 163.097 267.901 156.113C265.173 152.573 262.018 149.344 259.515 145.666C257.051 142.045 255.2 138.009 253.007 134.202C251.37 131.359 249.787 128.447 247.846 125.817C246.589 124.109 244.645 122.922 243.162 121.354C241.614 119.713 239.922 118.071 238.89 116.115C237.178 112.875 234.695 110.446 231.971 108.156C230.962 107.307 229.973 106.437 228.94 105.545C227.92 107.074 227 106.038 225.836 105.157C221.52 101.878 217.268 98.4744 212.688 95.5989C210.531 94.2446 207.709 93.9108 205.152 93.2511C202.599 92.5914 199.653 92.6767 197.507 91.3922C194.442 89.5529 191.667 89.6421 188.501 90.4803C184.616 91.5126 180.615 92.1297 176.758 93.2473C171.31 94.8228 167.127 98.4704 164.181 103.077C161.849 106.724 160.056 110.888 160.246 115.494C160.273 116.127 160.394 116.759 160.526 117.376C161.038 119.744 160.278 121.008 158.461 122.646C155.904 124.951 153.261 127.334 151.36 130.159C149.23 133.33 149.668 137.245 149.885 140.962C150.18 146.007 152.621 150.482 153.661 155.313C154.693 160.11 155.574 164.944 156.315 169.795C156.692 172.251 156.645 174.777 156.739 177.273C156.893 181.573 157.895 185.639 160.262 189.256C161.551 191.224 161.333 193.51 162.563 195.128C159.952 199.513 156.214 201.569 157.208 207.541C157.747 210.785 158.438 211.857 159.458 215.306C157.258 217.344 155.221 221.55 152.924 224.01C150.048 227.091 144.262 231.814 141.608 235.097C140.324 236.688 144.336 236.928 145.143 238.376C146.944 241.613 148.931 244.744 150.774 247.953C151.682 249.533 152.854 251.124 153.169 252.843C153.49 254.597 152.668 253.041 152.474 254.888C152.416 255.454 149.784 253.933 149.757 254.5C149.486 260.266 152.105 271.598 151.666 277.349C151.189 283.62 150.503 289.879 149.718 296.123C149.416 298.54 149.09 300.853 150.021 303.209C150.204 303.666 149.905 304.45 149.602 304.943C147.343 308.595 145.116 312.27 142.691 315.805C141.767 317.148 140.308 318.118 139.156 319.313C135.337 323.279 133.502 327.862 134.615 333.45C135.287 336.811 132.555 340.734 129.346 341.948C122.737 344.447 116.389 347.645 112.76 354.017C110.661 357.707 107.067 358.572 103.966 360.462C103.373 360.827 102.682 361.037 102.089 361.405C99.256 363.159 99.5199 363.78 99.8146 366.725C100.079 369.36 98.9726 371.118 96.318 371.363C96.0346 371.39 95.7556 371.627 95.511 371.817C91.1066 375.193 86.5585 378.402 82.3792 382.038C80.3145 383.835 78.8982 386.392 77.2687 388.662C76.5082 389.722 75.8712 390.886 75.2893 392.058C73.5589 395.527 74.8354 396.346 77.7571 398.111C80.3145 399.66 83.2136 399.54 85.988 400.024C86.9196 400.187 87.8626 400.385 88.8018 400.401C91.6502 400.451 94.6032 400.875 97.3274 400.288C99.8766 399.738 102.193 398.088 104.603 396.905C104.999 396.711 105.344 396.412 105.721 396.155C106.213 397.091 106.575 398.046 107.165 398.818C107.638 399.435 108.36 400.215 109.027 400.277C112.353 400.575 115.748 401.293 119 399.967C121.216 399.063 123.342 397.937 126.098 396.629C125.003 399.737 124.219 402.392 123.145 404.922C121.154 409.602 119.14 414.282 116.869 418.83C113.718 425.143 111.926 431.919 109.889 438.594C107.491 446.455 105.371 454.418 104.37 462.618C104.301 463.177 104.048 463.716 104.013 464.275C103.769 468.288 105.038 470.34 109.015 471.734C114.51 473.658 120.106 475.187 125.954 475.711C130.932 476.157 136.024 475.847 140.824 477.616C142.412 478.203 143.909 479.013 145.45 479.72C149.338 481.497 153.32 482.133 157.643 481.563C161.512 481.055 165.45 481.338 169.362 481.893C171.461 482.188 173.677 482.102 175.784 481.807C178.904 481.369 181.962 480.527 185.07 479.972C189.196 479.238 192.401 476.872 195.517 474.314C196.347 473.631 197.062 472.762 197.973 472.226C200.015 471.035 200.026 468.548 201.408 467.065C204.046 464.232 203.79 460.542 204.834 457.244C205.595 454.845 206.829 452.521 206.387 449.882C206.006 447.612 205.525 445.353 205.02 442.738L205.04 442.726Z" fill="#F6F6F6"/>
<path d="M395.401 617.658C395.253 606.172 393.282 595.841 390.034 585.717C388.26 580.187 383.965 578.033 378.765 577.327C375.482 576.881 372.113 576.835 368.791 576.931C366.63 576.994 364.484 577.618 362.338 578.038C361.989 578.107 361.566 578.336 361.384 578.627C360.507 580.013 359.521 579.473 358.504 578.872C355.765 577.253 352.873 578.584 351.818 581.51C349.982 586.602 351.077 591.755 351.143 596.878C351.159 598.115 351.791 599.237 353.584 599.019C355.303 598.814 357.072 599.074 358.807 598.946C360.211 598.841 360.728 599.575 361.143 600.704C363.63 607.471 366.23 614.2 368.617 621.007C369.591 623.785 370.294 626.684 370.813 629.587C371.586 633.878 372.346 638.202 372.625 642.544C372.862 646.18 373.778 649.533 375.133 652.839C375.392 653.476 375.606 654.135 375.928 654.741C377.049 656.848 378.423 657.279 380.402 655.913C384.174 653.312 387.356 650.088 389.254 645.866C392.017 639.723 393.922 633.289 394.861 626.618C395.315 623.393 395.261 620.099 395.393 617.65L395.401 617.658Z" fill="#F6F6F6"/>
<path d="M76.9508 648.877C77.9671 649.711 77.8123 650.406 76.8455 651.217C75.0643 652.707 73.3997 653.286 70.8467 652.734C67.7576 652.067 64.4202 652.622 61.1995 652.455C59.6508 652.373 58.1374 651.791 56.5894 651.543C56.015 651.45 55.3749 651.593 54.8006 651.756C51.3623 652.738 48.2186 651.826 45.1026 650.417C42.3552 649.176 39.6235 647.806 36.752 646.948C34.2955 646.215 31.6409 646.126 28.5406 645.672C28.486 648.516 28.4007 651.097 28.4283 653.673C28.4321 654.096 28.8471 654.639 29.2277 654.915C30.5469 655.869 31.8741 656.856 33.3099 657.604C35.2191 658.598 36.3557 660.197 37.6479 661.834C39.2705 663.887 41.3621 665.656 43.5076 667.193C52.4213 673.565 61.3932 679.852 70.4272 686.05C72.752 687.642 75.379 688.79 77.8625 690.144C79.8568 691.235 81.8437 692.345 83.8344 693.435C86.5861 694.94 86.8344 694.445 89.042 692.282C93.4038 688.012 94.5374 682.388 94.8358 677.03C95.1656 671.147 97.8121 666.064 98.6622 660.449C99.3256 656.076 100.917 652.005 103.214 648.19C104.196 646.56 103.788 646.021 101.996 645.411C101.553 645.26 101.08 644.608 100.983 644.115C100.575 642.04 99.0077 641.131 97.3776 640.246C95.9731 639.486 94.6189 638.597 93.1443 637.996C89.225 636.397 87.1366 636.288 84.1993 640.925C82.3096 643.914 80.2374 646.89 76.9389 648.877H76.9508Z" fill="#F6F6F6"/>
<path d="M279.923 236.87C282.547 236.401 284.153 235.023 285.115 232.951C285.589 231.93 286.09 231.938 286.881 232.493C288.286 233.479 289.532 234.53 289.47 236.49C289.438 237.418 289.651 238.396 290.742 238.601C291.7 238.784 292.5 238.26 293.02 237.46C294.25 235.574 295.022 233.584 293.983 230.91C297.172 232.148 299.745 230.844 302.345 229.633C306.392 227.747 311.185 231.209 312.314 235.466C313.005 238.073 312.555 240.553 311.74 243.021C311.553 243.588 311.259 244.282 311.965 244.511C312.57 244.709 313.323 245.314 313.994 244.48C316.959 240.79 319.815 237.026 319.579 231.942C319.392 227.942 317.053 225.318 313.634 223.619C311.332 222.474 308.895 221.6 306.548 220.545C301.957 218.481 298.076 215.795 295.496 211.119C293.889 208.209 291.953 205.469 290.746 202.322C292.675 203.851 292.857 206.532 294.669 208.193C294.821 207.708 294.429 206.606 295.647 207.417C299.12 209.73 303.327 209.819 307.157 211.068C307.723 211.255 308.398 211.096 309.547 211.096C307.2 208.76 304.452 207.409 303.036 204.32C306.462 205.931 309.765 206.656 313.273 206.482C316.315 206.33 319.024 205.364 321.465 203.606C321.825 203.346 322.485 203.09 322.12 202.419C321.821 201.864 321.236 201.554 320.661 201.619C308.565 202.962 299.462 196.606 290.54 189.866C288.34 188.2 288.281 187.785 287.688 185.173C288.868 185.492 289.408 186.516 290.195 187.16C293.334 189.73 297.005 191.022 300.901 191.681C306.602 192.644 312.244 194.278 318.088 193.936C321.278 193.75 324.324 192.671 327.277 191.406C328.422 190.917 328.783 190.009 328.919 188.829C324.588 190.114 320.219 190.474 315.217 189.656C317.239 189.233 318.799 189.12 320.176 188.558C321.74 187.917 323.859 188.363 324.717 186.02C324.999 185.247 326.843 185.189 327.817 184.46C328.271 184.118 328.911 184.029 329.288 183.21C321.348 185.93 313.35 186.691 304.708 185.721C308.476 185.344 311.798 185.624 315.1 185.17C320.285 184.456 325.38 183.373 330.095 181.142C333.358 179.601 335.112 176.648 335.264 172.954C335.329 171.335 334.724 171.11 333.281 171.735C330.572 172.907 327.852 174.033 325.357 175.628C325.066 175.814 324.767 175.83 324.379 175.511C326.843 173.854 329.384 172.29 330.762 169.547C331.36 168.352 331.876 167.133 331.131 165.755C330.58 164.735 329.92 164.603 329.191 165.422C324.154 171.068 317.289 171.894 310.37 172.764C306.234 173.283 301.961 173.71 298.24 171.98C294.122 170.063 290.013 169.884 285.721 169.974C285.146 169.985 284.572 169.974 283.99 169.83C287.079 169.675 290.164 169.554 293.237 169.228C299.764 168.534 305.585 166.396 309.83 161.079C310.343 160.439 311.383 159.573 310.42 158.817C309.617 158.188 308.197 157.859 307.312 158.701C303.269 162.57 298.414 161.382 293.66 161.153C289.423 160.947 285.263 160.362 281.211 159.131C276.504 157.699 272.655 154.921 269.286 151.374C262.767 144.513 258.243 136.283 253.31 128.327C249.822 122.697 246.027 117.295 241.358 112.53C239.918 111.059 239.223 108.971 237.408 107.648C234.544 105.556 231.428 104.047 228.013 103.395C225.855 102.983 224.249 101.955 222.608 100.678C215.607 95.2379 207.861 91.3186 198.994 90.1661C188.323 88.7768 178.012 90.395 168.396 95.2457C164.352 97.2829 160.503 99.8595 159.028 104.668C158.408 106.693 158.167 108.719 158.838 110.698C159.141 111.59 158.861 111.808 158.248 112.118C151.504 115.541 148.17 121.552 145.97 128.39C144.814 131.987 143.793 135.631 143.964 139.472C144.099 142.468 144.329 145.93 146.575 147.695C149.789 150.222 150.223 153.474 150.941 156.888C151.74 160.707 152.59 164.51 153.498 168.305C153.669 169.019 153.696 169.706 153.693 170.404C153.658 176.834 153.273 183.299 155.9 189.423C156.149 190.005 155.873 190.525 155.707 191.091C154.438 195.302 151.648 198.503 148.57 201.406C143.77 205.935 140.91 211.348 140.588 217.937C140.487 219.998 140.728 222.163 141.837 224.069C142.493 223.665 142.881 223.25 142.741 222.35C141.942 217.215 143.773 213.036 147.511 209.567C149.684 207.549 151.884 205.554 153.759 203.23C154.422 202.407 155.101 201.538 156.432 200.921C155.404 202.209 154.69 203.339 153.743 204.219C152.579 205.306 152.73 206.529 153.083 207.778C153.743 210.126 154.581 212.423 156.044 214.406C156.781 215.403 156.579 216.168 155.811 216.951C150.192 222.664 145.741 229.35 140.491 235.372C139.924 236.021 139.909 236.195 140.572 237.084C142.031 239.043 142.695 241.574 144.003 243.673C146.536 247.736 147.022 252.074 147.227 256.793C147.724 268.191 146.335 279.475 145.962 290.81C145.73 297.892 144.755 304.928 143.851 311.921C142.167 324.916 140.999 338.002 138.197 350.839C136.405 359.057 134.243 367.184 131.538 375.158C128.857 383.07 125.981 390.909 122.877 398.663C118.938 408.5 114.84 418.279 111.169 428.217C108.371 435.796 105.294 443.327 104.095 451.411C103.47 455.621 103.109 459.851 103.276 464.116C103.304 464.857 103.711 465.672 102.659 466.262C102.24 466.498 102.539 467.402 102.783 468.047C103.653 470.375 105.511 471.625 107.56 472.735C112.066 475.176 117.041 476.091 121.957 477.158C125.085 477.838 128.255 478.322 131.542 478.92C130.141 481.644 128.721 484.365 127.339 487.101C121.814 498.028 116.718 509.134 113.377 520.966C112.457 524.23 110.983 527.299 109.4 530.256C107.684 533.469 107.133 536.973 106.183 540.365C103.168 551.122 99.8848 561.805 97.3701 572.709C95.2822 581.759 93.3612 590.855 90.8777 599.815C88.5686 608.147 86.3767 616.513 84.1372 624.864C82.8839 629.532 81.0638 634.147 80.5866 638.896C80.218 642.575 78.0217 645.163 77.001 648.369C76.7333 649.207 76.3333 650.006 76.1238 650.852C75.7088 652.536 74.1451 652.191 73.6599 651.64C72.1156 649.89 70.2335 650.452 68.5375 650.631C64.4471 651.054 60.3925 650.907 56.3291 650.511C53.8105 650.266 51.4745 649.273 49.0844 648.516C45.5414 647.398 42.0605 646.095 38.4943 645.016C36.1695 644.314 33.8146 644.142 31.4935 643.662C26.7248 642.676 23.1348 646.351 24.183 651.093C24.474 652.408 25.2069 653.731 26.0533 654.798C28.1681 657.469 30.1781 660.197 32.7161 662.563C35.5682 665.226 38.2849 668.031 41.4548 670.321C44.7847 672.727 48.1609 675.067 51.5365 677.399C55.7391 680.302 59.9147 683.253 64.207 686.012C66.9813 687.799 69.8491 689.517 72.8567 690.852C76.1978 692.338 79.5196 693.881 82.9497 695.197C87.3736 696.89 88.9492 696.432 91.2502 692.188C93.4621 688.112 95.0885 683.83 96.3537 679.374C97.0753 676.828 98.2973 674.186 97.723 671.687C97.0284 668.66 98.4214 666.444 99.2328 663.91C99.9312 661.725 100.443 659.474 100.94 657.228C101.239 655.877 101.864 654.62 101.821 653.153C101.798 652.299 102.861 652.292 103.358 652.567C106.237 654.143 109.435 654.387 112.551 654.496C115.651 654.605 118.938 654.748 121.763 653.18C122.838 652.583 123.789 651.539 124.053 649.82C124.41 647.507 125.275 645.225 125.892 642.92C127.138 638.291 128.705 633.75 130.207 629.206C132.221 623.098 134.014 616.924 135.97 610.797C137.608 605.667 139.179 600.513 140.98 595.437C142.474 591.231 144.402 587.161 145.659 582.888C146.405 580.35 147.437 577.909 148.101 575.325C148.83 572.496 149.618 569.617 150.623 566.838C151.954 563.167 152.4 559.286 153.169 555.495C154.601 548.452 156.758 541.588 158.147 534.544C158.787 531.304 159.777 528.087 159.498 524.73C159.23 521.494 161.492 519.538 163.153 517.322C170.022 508.156 176.972 499.049 183.88 489.914C187.104 485.649 190.286 481.357 193.503 477.085C194.322 475.998 194.5 475.206 193.421 473.953C191.062 471.214 188.362 468.815 186.196 465.847C187.504 467.007 188.885 468.097 190.103 469.347C193.251 472.572 196.883 475.273 199.937 478.602C201.924 480.764 204.047 482.778 205.676 485.269C206.216 486.091 207.194 486.782 208.024 487.461C210.989 489.886 212.851 493.193 215.079 496.197C216.984 498.765 218.664 501.497 220.419 504.179C222.576 507.477 224.707 510.791 226.845 514.101C229.678 518.482 232.398 522.941 235.363 527.233C240.458 534.602 245.483 542.026 250.932 549.146C252.006 550.551 253.19 551.746 254.897 552.604C256.17 553.244 257.156 554.696 258.347 555.709C261.615 558.491 264.932 561.172 268.623 563.431C270.877 564.812 272.872 566.706 274.755 568.6C279.294 573.159 284.188 577.327 289.209 581.309C293.587 584.782 298.181 588.065 303.008 590.862C306.23 592.729 309.454 594.639 312.543 596.676C316.89 599.54 321.438 602.101 325.624 605.217C328.473 607.332 331.511 609.191 334.496 611.119C336.444 612.376 337.825 614.158 339.276 615.9C340.15 616.948 341.065 617.98 342.656 616.664C343.312 616.121 344.441 616.191 345.244 615.772C346.929 614.903 348.256 613.587 349.513 612.151C352.268 609.004 353.96 605.361 354.876 601.325C355.097 600.355 355.377 600.192 356.436 600.405C357.305 600.575 358.179 601.15 359.164 600.82C359.964 600.549 359.92 601.375 359.971 601.705C360.588 605.807 361.687 609.792 362.851 613.754C363.34 615.423 364.624 616.765 365.067 618.507C365.978 622.101 366.719 625.71 367.267 629.389C367.709 632.365 368.217 635.361 368.757 638.333C369.424 642.02 370.449 645.61 371.24 649.257C372.028 652.874 373.732 656.079 376.93 658.109C379.394 659.672 383.832 658.004 385.3 655.245C385.362 655.133 385.517 654.993 385.49 654.919C384.574 652.583 386.599 651.504 387.612 650.033C390.581 645.71 392.65 641.062 394.05 635.955C395.331 631.29 396.514 626.583 396.941 621.841C397.352 617.247 397.671 612.566 397.12 607.879C396.336 601.224 394.408 594.883 392.44 588.542C391.606 585.849 390.403 583.264 389.347 580.641C387.675 576.477 384.038 575.519 380.131 575.112C377.22 574.809 374.31 574.525 371.372 574.518C367.795 574.506 364.092 574.685 361.403 577.114C359.587 578.755 358.256 578.119 356.471 577.812C354.725 577.514 353.879 576.562 353.417 575.061C352.94 573.501 351.558 572.74 350.476 571.774C348.174 569.721 346.634 567.024 344.484 564.898C342.261 562.698 340.355 560.198 337.86 558.243C336.199 556.939 334.779 555.34 332.99 554.145C331.573 553.202 330.343 551.98 329.028 550.889C327.351 549.5 325.687 548.099 323.994 546.729C321.468 544.684 318.965 542.643 316.024 541.141C312.104 539.142 308.232 537.039 304.545 534.594C300.137 531.664 295.705 528.743 290.858 526.554C290.35 526.325 289.69 526.437 289.182 526.212C286.594 525.056 284.362 523.675 283.691 520.504C282.515 514.955 280.932 509.499 279.469 504.016C278.037 498.653 276.093 493.464 274.564 488.14C273.788 485.435 272.554 482.835 271.747 480.006C274.649 479.739 277.467 479.894 280.28 479.564C290.009 478.428 299.364 476.142 308.061 471.5C313.428 468.637 318.391 465.214 322.718 460.918C323.537 460.107 324.352 459.273 325.019 458.341C325.648 457.464 326.067 456.44 324.608 455.835C324.095 455.621 324.049 455.218 324.014 454.74C323.455 446.731 320.494 439.389 317.526 432.078C315.069 426.028 312.303 420.106 309.768 414.088C309.132 412.574 308.953 410.875 308.387 409.326C308.003 408.282 308.364 407.961 309.276 407.754C310.964 407.382 312.601 406.843 314.107 405.981C315.19 405.361 316.245 404.673 315.795 403.106C316.994 403.882 317.945 403.665 318.934 402.904C320.176 401.949 321.069 401.814 322.124 403.517C324.511 407.359 327.7 410.584 330.91 413.762C331.585 414.433 332.02 414.79 332.874 413.793C333.719 412.807 335.147 413.078 336.315 413.218C337.173 413.323 336.746 414.266 336.839 414.837C337.573 419.323 336.789 423.874 337.383 428.364C337.701 430.774 337.278 433.223 337.926 435.609C338.62 438.163 339.948 440.165 342.516 441.108C345.439 442.179 347.573 440.801 347.589 437.724C347.596 436.54 348.232 435.955 348.974 435.365C350.091 434.472 351.007 433.417 351.686 432.179C352.024 431.562 352.256 430.766 351.562 430.278C350.98 429.866 350.347 429.878 349.691 430.526C349.028 431.185 348.019 431.503 347.651 432.485C347.488 432.924 347.034 433.231 346.785 432.963C344.829 430.89 344.104 433.114 342.99 433.991C342.951 434.022 342.881 434.018 342.602 434.076C342.687 431.562 342.369 429.105 342.222 426.641C341.988 422.66 341.461 418.733 340.506 414.868C340.184 413.568 339.696 412.295 338.566 411.394C337.84 410.82 337.739 410.292 338.578 409.583C344.674 404.429 351.011 399.683 358.679 397.036C359.56 396.734 360.08 396.656 360.806 397.417C365.551 402.396 369.339 408.023 372.362 414.173C373.681 416.855 374.318 419.563 372.851 422.493C371.524 425.14 371.43 428.089 371.314 430.987C371.166 434.728 369.25 437.86 368.186 441.62C366.522 435.974 366.906 430.429 365.101 425.271C364.833 424.511 364.675 423.156 363.929 423.339C362.781 423.619 363.254 424.895 363.371 425.834C363.926 430.242 364.667 434.643 364.923 439.071C365.097 442.047 363.995 444.904 362.63 447.938C361.019 443.848 359.552 440.072 358.043 436.308C356.242 431.818 353.587 427.685 352.532 422.881C352.408 422.314 351.942 421.22 351.337 421.375C350.495 421.593 350.456 422.516 350.596 423.475C351.504 429.641 353.755 435.404 355.761 441.24C356.37 443.006 357.204 444.697 357.747 446.479C358.555 449.121 360.51 450.763 362.556 452.327C363.991 453.425 365.974 452.556 366.537 450.499C367.042 448.655 367.368 446.758 367.658 444.868C367.798 443.952 367.887 443.246 369.091 443.401C369.424 443.444 369.886 443.254 370.138 443.013C372.54 440.677 374.911 438.24 375.509 434.802C376.141 431.162 376.541 427.534 377.783 423.975C379.382 419.393 377.604 415.12 375.249 411.197C372.203 406.125 368.648 401.41 364.321 397.036C367.938 395.663 368.423 392.546 368.512 389.338C368.539 388.379 368.035 387.358 367.605 386.443C366.84 384.813 365.955 383.237 365.105 381.65C364.578 380.66 363.534 379.951 365.377 378.829C366.483 378.157 366.184 376.14 365.524 374.739C365.303 374.265 364.973 373.862 365.148 373.307C365.874 370.994 365.509 368.572 365.742 366.209C366.091 362.705 366.324 359.162 366.3 355.608C366.277 352.255 365.195 349.48 363.014 347.04C359.87 343.524 355.963 340.877 352.47 337.761C353.009 336.224 355.101 335.355 354.333 333.221C354.181 332.802 354.923 332.949 355.248 332.832C358.435 331.669 359.145 330.395 358.248 327.062C355.497 316.814 351.818 306.903 347.239 297.33C345.66 294.027 344.177 290.698 343.432 287.081C342.621 283.15 340.293 280.833 336.265 280.034C332.784 279.347 329.26 279.168 325.768 278.687C324.056 278.45 324.166 279.289 324.732 280.472C327.328 285.921 329.47 291.563 331.717 297.158C331.993 297.846 332.221 298.548 332.147 299.406C330.983 297.139 329.788 294.889 328.667 292.603C325.155 285.44 321.639 278.276 318.189 271.085C316.036 266.592 313.754 262.172 311.162 257.918C307.793 252.389 302.597 249.633 296.466 248.373C294.855 248.043 293.183 247.86 291.693 248.935C291.293 249.222 290.956 249.043 290.711 248.691C287.68 244.352 284.133 240.468 279.954 236.866L279.923 236.87ZM204.268 172.251C204.171 170.944 203.297 169.903 203.007 168.67C202.731 167.51 203.232 166.427 204.403 166.877C207.108 167.921 209.844 168.134 212.669 168.033C213.732 167.994 213.721 169.027 213.962 169.655C214.233 170.362 213.464 170.366 213.026 170.486C211.296 170.967 209.553 171.153 207.733 171.157C206.585 171.157 204.892 170.28 204.268 172.248C204.59 173.078 205.413 173.357 206.096 173.439C207.721 173.629 208.459 174.568 209.052 175.969C210.151 178.565 211.649 180.971 213.317 183.225C214.419 184.716 215.021 185.86 214.648 187.987C213.236 196.027 211.296 203.858 207.795 211.27C206.491 214.033 201.951 216.793 198.816 216.556C198.082 216.501 197.923 216.447 198.086 215.562C198.35 214.134 198.796 212.679 198.567 211.189C197.985 207.417 196.84 203.858 194.423 200.731C196.045 200.164 197.609 199.64 199.157 199.07C200.985 198.399 202.626 197.409 204.101 196.136C205.055 195.313 205.307 194.126 204.784 193.21C204.245 192.263 203.177 192.954 202.37 193.273C201.714 193.528 201.085 193.854 200.442 194.145C191.21 198.282 181.687 200.626 171.508 198.697C168.691 198.162 165.753 197.766 164.046 194.948C162.129 191.782 160.336 188.565 159.063 185.073C157.162 179.846 158.031 174.169 156.397 168.895C156.06 167.801 156.867 167.475 157.717 167.777C158.706 168.127 159.614 168.157 160.499 167.641C161.725 166.923 162.167 165.79 161.492 164.552C160.937 163.536 160.429 162.138 158.636 163.237C157.387 164.001 156.316 163.318 156.067 161.863C155.928 161.044 155.959 160.19 155.765 159.387C155.221 157.148 154.422 154.929 157.55 153.811C158.435 153.493 159.218 152.434 158.908 151.553C158.559 150.559 157.169 150.776 156.483 151.071C153.972 152.15 153.468 150.571 152.889 148.758C152.582 147.804 152.625 147.106 153.296 146.322C153.917 145.6 154.34 144.715 154.861 143.908C156.665 141.122 157.538 137.947 158.527 134.633C162.319 138.083 166.37 140.788 170.736 142.984C177.069 146.17 183.487 149.131 190.892 148.297C191.601 148.215 192.083 148.545 192.595 148.995C194.24 150.431 195.862 151.918 197.64 153.175C200.759 155.383 203.794 157.835 207.989 158.118C207.066 160.206 206.945 162.453 206.278 164.766C204.687 162.348 202.564 163.221 200.624 163.276C201.303 163.54 201.982 163.804 202.743 164.098C199.428 166.388 199.036 168.472 201.202 170.851C202.072 171.809 203.235 171.809 204.26 172.251H204.268ZM209.74 223.835C207.931 227.394 205.715 230.017 203.647 232.765C202.514 231.861 202.46 230.929 202.882 229.684C203.825 226.905 204.901 224.138 205.319 221.224C205.681 218.698 207.155 217.464 209.355 216.432C214.466 214.037 219.254 211.08 223.368 207.13C223.74 207.669 224.07 208.321 224.563 208.803C224.905 209.132 225.359 209.792 225.995 209.198C227.931 207.394 230.411 206.428 232.537 204.926C239.682 199.881 247.695 198.938 256.003 200.339C263.5 201.6 270.082 205.198 276.345 209.42C281.716 213.04 282.791 218.252 282.007 224.158C281.642 226.913 279.45 228.434 277.665 230.308C275.767 232.303 273.796 232.466 271.289 232.291C266.531 231.969 261.751 231.849 256.981 232.384C246.768 233.525 236.814 235.722 227.318 239.738C220.17 242.765 213.837 246.843 209.759 253.735C209.18 254.713 208.529 255.679 208.87 257.336C214.369 252.024 219.717 246.902 227.058 244.026C224.928 249.711 224.117 255.361 223.965 261.058C223.752 269.056 225.541 276.778 228.319 284.221C232.119 294.411 237.4 303.779 244.652 311.963C245.328 312.727 246.116 314.21 246.659 314.124C248.269 313.872 248.238 314.932 248.533 315.785C252.643 327.733 258.592 338.774 265.188 349.488C268.603 355.037 272.763 360.004 277.692 364.293C282.193 368.212 285.255 372.787 285.616 379.038C285.888 383.699 286.354 388.414 287.568 392.935C289.307 399.407 293.272 404.227 300.968 402.943C302.054 402.76 302.077 403.494 302.279 404.161C303.191 407.219 304.254 410.199 304.809 413.389C305.95 419.939 308.624 426.071 310.816 432.322C313.404 439.711 315.981 447.1 317.335 454.985C313.482 453.91 309.741 453.185 305.896 453.138C299.21 453.052 292.547 453.126 285.907 454.224C280.54 455.113 275.104 455.548 269.725 456.374C263.621 457.313 257.478 457.829 251.323 458.144C245.983 458.415 240.706 457.763 235.464 456.661C227.33 454.954 219.453 452.501 211.971 448.862C209.914 447.86 207.834 446.758 207.524 443.999C207.457 443.425 206.81 442.513 205.847 443.25C205.463 443.545 205.385 444.558 204.632 443.825C203.728 442.947 201.901 443.211 201.769 441.384C201.54 438.221 202.68 435.322 203.531 432.392C205.591 425.279 208.249 418.344 210.073 411.162C211.373 406.04 211.924 400.801 212.378 395.543C212.906 389.469 212.743 383.432 211.649 377.452C210.81 372.872 209.669 368.352 208.435 363.854C205.102 351.68 204.221 339.127 202.96 326.647C202.366 320.76 201.598 314.9 200.779 309.049C199.724 301.478 198.684 293.891 198.357 286.27C197.954 276.863 198.141 267.446 199.39 258.066C200.679 248.431 203.092 239.206 208.102 230.77C209.242 228.849 210.213 226.785 209.735 223.824L209.74 223.835ZM363.223 370.171C363.223 371.456 363.266 372.744 363.211 374.025C363.122 376.128 362.544 376.761 360.437 376.702C353.305 376.509 346.735 378.635 340.32 381.448C331.612 385.274 323.579 389.993 318.333 398.328C318.007 398.845 317.611 399.012 317.033 398.849C312.256 397.502 307.452 397.975 302.663 398.74C299.637 399.225 297.315 398.278 295.802 395.62C295.011 394.231 294.382 392.748 294.029 391.158C293.067 386.807 293.016 382.353 292.547 377.952C291.937 372.24 289.908 367.486 285.736 363.327C282.857 360.454 280.163 357.284 277.599 354.067C273.656 349.123 270.377 343.749 267.09 338.366C261.708 329.565 257.342 320.299 254.106 310.504C251.75 303.376 250.035 296.061 247.947 288.858C245.153 279.226 243.167 269.428 241.385 259.58C241.215 258.644 241.207 257.616 241.401 256.688C242.852 249.766 246.038 243.681 250.485 238.224C250.982 237.616 251.529 237.162 252.41 237.095C257.342 236.731 262.274 236.405 267.222 236.56C269.027 236.618 270.815 236.781 272.612 236.366C273.477 236.164 274.413 236.23 275.08 237.041C279.523 242.458 283.92 247.911 287.622 253.879C291.666 260.402 294.801 267.387 298.006 274.337C302.481 284.042 307.157 293.636 313.024 302.603C318.919 311.614 325.329 320.237 332.4 328.355C335.702 332.15 339.109 335.89 342.936 339.15C347.286 342.856 351.923 346.216 356.409 349.764C359.164 351.944 361.841 354.277 362.288 358.037C362.765 362.061 363.087 366.108 363.215 370.171H363.223ZM162.885 360.936C163.875 354.459 164.511 348.025 164.915 341.564C164.961 340.811 164.589 339.938 166.04 339.969C169.424 340.043 171.602 338.048 173.277 335.347C173.541 334.92 173.759 334.381 174.151 334.121C176.797 332.382 178.4 330.167 178.543 326.814C178.691 323.356 178.415 320.128 176.359 317.198C175.707 316.267 175.129 315.354 176.953 314.586C179.913 313.341 181.873 311.028 182.809 307.835C183.192 306.53 182.89 304.268 184.167 304.155C185.288 304.058 186.576 305.77 187.771 306.708C188.528 307.302 189.273 307.989 190.286 307.939C193.15 307.796 193.15 307.768 193.317 310.547C193.34 310.931 193.32 311.323 193.371 311.703C194.473 320.287 195.723 328.851 196.643 337.455C197.434 344.867 198.265 352.263 199.883 359.535C201.338 366.093 203.022 372.601 204.691 379.109C205.087 380.653 204.962 381.596 203.317 382.267C202.23 382.709 201.349 383.648 200.682 384.692C197.744 389.279 198.28 396.369 203.484 399.435C205.25 400.475 205.475 401.717 205.195 403.365C204.543 407.211 203.79 411.034 202.723 414.794C200.333 423.211 196.821 431.345 196.312 440.235C196.274 440.93 195.855 441.17 195.152 441.236C191.299 441.586 187.593 442.664 183.868 443.626C179.894 444.655 175.897 445.547 171.826 446.083C171.221 446.164 170.262 446.638 170.057 445.645C169.859 444.69 169.346 443.848 169.207 442.912C168.718 439.68 166.669 437.658 163.991 436.176C162.85 435.543 161.625 435.159 160.744 436.797C160.367 437.495 159.571 437.705 158.69 437.441C157.348 437.033 156.137 437.763 155.714 438.776C155.268 439.851 154.643 440.262 153.7 440.51C152.128 440.925 151.185 442.327 151.318 443.541C151.57 445.885 150.515 445.206 149.187 445.028C143.925 444.329 140.945 441.193 139.583 436.281C138.686 433.036 138.383 429.726 138.512 426.358C138.546 425.407 138.857 425.217 139.761 425.186C142.78 425.077 146.723 421.472 147.026 418.391C147.417 414.41 146.967 410.487 144.573 407.142C143.661 405.868 143.766 404.934 144.356 403.707C147.93 396.249 152.299 389.198 155.602 381.596C157.13 378.076 159.723 375.135 161.388 371.661C165.411 363.268 168.939 354.653 172.672 346.131C172.909 345.588 173.173 345.068 172.381 344.467C169.199 349.981 166.04 355.457 162.882 360.932L162.885 360.936ZM150.98 255.656C153.234 257.472 154.748 259.75 156.661 261.656C160.324 265.303 163.126 269.599 165.621 274.105C165.971 274.737 166.052 275.354 165.951 276.119C165.439 279.933 164.861 283.751 164.631 287.59C163.852 300.639 161.725 313.554 160.813 326.593C160.313 333.71 159.486 340.807 158.752 347.905C158.318 352.123 157.747 356.333 156.684 360.447C153.867 371.374 148.752 381.374 143.719 391.355C140.223 398.286 137.149 405.302 135.19 412.807C133.265 420.18 133.106 427.452 136.257 434.562C137.06 436.374 138.158 438.089 138.721 439.971C139.645 443.04 141.208 445.645 143.918 447.263C147.026 449.114 150.514 450.165 154.041 451.042C153.335 451.198 152.66 451.244 151.954 451.069C149.106 450.371 149.098 450.383 147.623 452.921C147.076 453.864 146.545 454.818 146.009 455.769C145.722 456.281 145.551 456.65 144.705 456.425C139.369 454.988 134.003 453.677 128.655 452.296C128.058 452.141 127.328 451.581 127.006 452.37C126.68 453.169 127.693 453.169 128.131 453.366C132.924 455.555 137.883 457.313 142.924 458.823C143.952 459.13 144.146 459.261 143.657 460.286C142.105 463.557 139.843 466.37 137.991 469.417C135.655 473.262 133.215 473.786 129.144 472.61C122.291 470.628 115.069 470.34 108.096 468.776C106.761 468.478 106.326 467.849 106.376 466.723C106.528 463.456 106.606 460.169 107.289 456.964C108.558 451.015 110.847 445.396 113.032 439.777C117.002 443.995 121.957 446.583 127.32 448.489C129.982 449.436 132.718 450.134 135.593 449.727C136.307 449.626 137.46 449.874 137.518 448.924C137.569 448.105 136.862 447.29 135.935 446.952C135.52 446.801 135.097 446.669 134.674 446.537C127.821 444.391 120.878 442.497 114.635 438.741C113.696 438.174 113.719 437.891 114.052 437.029C117.014 429.474 119.819 421.852 122.877 414.336C126.781 404.735 130.32 395.007 133.734 385.224C139.338 369.171 143.537 352.756 146.238 335.976C147.685 326.977 149.11 317.974 150.227 308.925C151.155 301.396 152.144 293.888 152.101 286.286C152.074 281.07 152.109 275.85 151.907 270.643C151.717 265.695 151.779 260.728 150.976 255.656H150.98ZM202.607 219.66C201.381 222.477 200.294 224.996 199.18 227.499C198.998 227.906 198.866 228.881 198.307 228.411C197.182 227.476 195.769 228.12 194.679 227.437C193.053 226.416 191.431 226.8 189.836 227.452C184.908 229.466 183.592 236.215 185.369 240.732C186.27 243.017 188.028 244.29 189.863 245.59C190.888 246.316 191.644 247.01 190.973 248.508C190.27 250.072 189.836 251.76 189.382 253.421C187.12 261.698 185.571 270.135 183.876 278.54C182.983 282.971 182.641 287.512 181.097 291.846C180.713 292.921 180.123 294.349 180.251 295.455C180.771 299.922 179.358 304.055 178.442 308.265C178.031 310.147 177.216 311.878 174.958 312.448C174.038 312.681 173.627 312.662 173.468 311.726C172.765 307.555 172.299 303.352 171.861 299.142C171.489 295.54 171.59 291.931 171.365 288.331C171.132 284.628 170.825 280.93 171.085 277.205C171.193 275.63 172.047 275.094 173.293 275.23C176.336 275.56 178.947 274.857 180.666 272.241C181.559 270.887 182.63 269.634 182.68 267.713C182.746 265.28 182.622 263.041 181.822 260.662C180.592 256.983 178.361 254.325 174.911 253.793C174.042 253.662 174.267 253.203 174.333 252.711C174.566 250.996 174.682 249.257 175.059 247.577C177.434 237.01 180.538 226.707 186.347 217.421C186.794 216.711 187.666 216.008 186.794 215.104C185.94 214.223 184.892 214.499 183.957 214.984C182.238 215.869 181.078 217.359 180.069 218.938C172.983 230.049 169.832 242.416 168.59 255.369C168.186 259.583 167.848 263.797 167.146 268.217C165.714 266.238 164.539 264.337 163.095 262.668C158.341 257.189 153.692 251.679 150.064 245.322C148.039 241.776 146.168 238.023 142.85 235.171C147.685 231.671 151.05 226.785 155.051 222.513C157.154 220.269 158.92 217.499 161.539 216.008C167.791 212.454 174.383 209.392 181.893 210.785C185.668 211.484 189.328 212.823 193.119 213.89C191.233 216.195 192.051 219.156 194.675 220.025C197.26 220.879 199.828 220.405 202.607 219.656V219.66ZM386.906 614.441C387.387 611.756 386.96 609.606 386.708 607.448C386.088 602.209 385.191 597.021 384.066 591.867C383.348 588.577 382.424 585.344 381.419 582.127C381.264 581.627 380.135 581.08 380.969 580.649C381.446 580.405 382.42 580.959 382.928 581.615C383.204 581.968 383.592 582.267 383.759 582.667C384.551 584.568 385.404 586.454 386.002 588.418C386.696 590.703 387.356 593.028 388.109 595.271C389.312 598.864 390.197 602.547 390.806 606.21C391.365 609.563 391.617 613.048 391.753 616.517C391.924 620.941 391.353 625.229 391.039 629.567C390.802 632.843 390.092 636.033 389.316 639.226C388.377 643.087 387.26 646.84 385.381 650.355C384.027 652.889 381.683 653.972 379.094 654.38C375.994 654.869 372.995 650.538 373.192 647.682C373.387 644.837 373.387 641.989 373.751 639.125C374.116 636.269 374.073 633.246 373.825 630.246C373.382 624.84 372.602 619.723 368.974 615.427C368.702 615.104 368.621 614.616 368.474 614.196C368.264 613.599 368.548 613.289 369.11 613.432C371.217 613.959 373.309 613.63 375.424 613.556C376.398 613.525 377.29 613.203 377.57 612.633C377.795 612.178 377.228 611.228 376.37 610.816C375.796 610.541 375.432 610.246 374.663 610.374C372.556 610.731 370.383 610.374 368.256 610.909C367.798 611.022 366.413 611.414 366.591 609.726C366.65 609.191 366.51 608.228 366.087 607.631C365.532 606.846 365.641 606.812 366.549 606.85C368.408 606.924 370.274 607.386 372.137 606.882C372.684 606.734 373.339 606.614 373.064 605.787C372.835 605.097 372.408 605.352 371.85 605.45C370.007 605.76 368.124 605.85 366.281 606.148C365.819 606.222 365.633 606.303 365.439 605.826C364.849 604.379 363.933 603.071 363.564 601.522C363.456 601.068 363.541 600.607 363.984 600.657C365.198 600.797 366.316 600.222 367.441 600.222C369.777 600.222 371.691 598.853 372.847 597.475C374.034 596.063 374.314 593.661 373.642 591.452C372.214 586.765 369.001 583.625 365.035 581.107C363.789 580.316 362.439 579.694 360.643 578.728C362.342 578.728 363.507 578.802 364.655 578.717C368.92 578.394 373.142 578.86 377.356 579.372C377.861 579.435 378.528 579.687 378.61 580.401C378.881 582.721 379.956 584.879 380.344 587.071C380.895 590.156 381.932 593.094 382.595 596.128C383.402 599.823 384.244 603.521 385.11 607.204C385.638 609.443 385.365 611.872 386.91 614.441H386.906ZM228.719 139.468C230.019 139.309 231.334 139.29 232.565 138.96C234.129 138.541 234.916 140.248 236.27 140.117C237.575 139.993 238.009 140.443 237.761 141.731C237.656 142.282 237.699 142.914 237.85 143.462C238.626 146.244 238.304 149.418 241.141 151.448C242.235 152.232 243.496 153.59 243.578 154.762C243.667 156 244.035 156.709 244.862 157.28C245.758 157.901 246.256 158.763 246.671 159.683C248.491 163.726 249.197 167.836 248.832 172.395C248.056 182.092 239.65 186.571 232.386 186.598C224.87 186.629 217.085 181.374 214.497 174.161C214.303 173.621 214.07 173.357 214.73 172.95C216.305 171.98 216.422 170.261 215.987 168.829C215.607 167.564 215.316 165.472 213.562 165.596C212.041 165.705 212.211 165.379 212.518 164.362C212.755 163.567 212.844 162.728 213.1 161.937C215.18 155.476 219.654 151.211 225.715 148.425C226.011 148.821 226.181 149.344 226.204 149.942C226.224 150.427 226.022 151.153 226.709 151.227C227.349 151.296 227.645 150.718 227.792 150.085C228.579 146.64 229.258 143.186 228.723 139.472L228.719 139.468ZM30.2948 646.778C31.2766 646.428 31.7224 647.216 32.4095 647.437C35.6924 648.508 39.0065 649.517 42.2198 650.775C47.0079 652.653 51.6532 654.958 56.8219 655.617C58.7624 655.866 60 656.808 60.8696 658.446C61.0439 658.78 61.2339 659.118 61.4828 659.397C61.6765 659.61 61.9562 659.972 62.2784 659.688C62.5305 659.467 62.8408 659.141 62.6703 658.718C62.4565 658.187 62.212 657.666 61.9562 657.158C61.8007 656.852 61.6339 656.432 62.0841 656.413C63.3493 656.359 65.165 655.904 65.7901 656.549C68.4679 659.32 71.5256 661.745 73.7953 664.9C74.0517 665.253 74.1602 665.761 74.8047 665.564C74.8781 664.942 74.8398 664.357 74.7194 663.708C74.1915 660.926 72.3677 658.947 70.7031 656.859C70.4077 656.487 69.9112 656.114 70.1714 655.637C70.7494 654.585 73.7997 654.329 74.3896 655.28C77.1408 659.727 80.3421 663.937 81.2117 669.335C81.413 670.589 82.4531 671.446 84.0055 671.543C87.1799 671.741 90.257 672.381 93.0859 673.984C93.8502 674.419 94.1067 674.823 93.8389 675.622C92.306 680.208 90.8896 684.833 89.1974 689.36C88.6269 690.89 88.5341 692.733 87.1291 693.912C84.1648 691.548 80.7572 689.981 77.4512 688.407C72.7439 686.175 68.5839 683.122 64.3468 680.247C60.3806 677.562 56.4338 674.791 52.4525 672.129C48.9986 669.821 45.5139 667.527 42.3395 664.9C38.688 661.881 35.1996 658.59 32.3437 654.745C31.0358 652.983 29.7976 651.166 29.538 648.504C36.7401 655.656 45.2348 660.476 53.2676 665.955C61.343 671.466 69.135 677.395 77.6179 682.294C63.1355 668.73 46.5114 658.043 30.2985 646.785L30.2948 646.778ZM160.93 110.64C161.648 108.249 162.719 106.383 164.279 104.757C169.215 99.619 175.315 96.6621 182.211 95.2768C188.73 93.9651 195.253 93.4839 201.862 95.0168C207.182 96.2508 211.901 98.7575 216.608 101.319C221.94 104.221 226.767 107.78 230.299 112.906C226.655 112.374 223.015 112.37 219.561 113.473C217.578 114.105 216.534 113.539 214.955 112.421C205.58 105.785 195.102 102.452 183.561 103.053C178.415 103.321 173.185 103.907 168.842 106.996C166.483 108.676 163.984 109.743 160.93 110.648V110.64ZM365.485 389.086C352.354 393.652 340.692 400.075 331.302 410.347C328.725 406.385 325.481 403.342 322.155 400.382C321.356 399.671 321.371 399.303 322.097 398.476C326.867 393.032 332.768 389.116 339.024 385.643C340.079 385.057 340.258 385.678 340.63 386.392C342.032 389.093 343.576 391.701 345.908 393.785C346.517 392.977 346.261 392.372 345.947 391.809C344.779 389.729 343.731 387.564 342.35 385.632C341.519 384.467 341.892 384.126 342.893 383.73C344.612 383.051 346.405 382.516 348.035 381.67C349.664 380.823 350.452 381.138 351.077 382.857C351.752 384.724 352.668 386.52 354.267 387.828C354.512 388.026 354.767 388.278 355.12 388.146C355.656 387.945 355.443 387.494 355.354 387.156C355.039 385.985 354.682 384.828 354.337 383.664C354.026 382.628 353.553 381.608 353.444 380.548C353.316 379.31 354.713 379.625 355.159 379.613C356.56 379.574 358.423 377.874 359.234 379.411C361.007 382.775 363.072 385.907 365.482 389.077L365.485 389.086ZM234.035 136.647C234.035 136.647 234.035 136.643 234.035 136.639C233.776 136.639 233.519 136.62 233.259 136.639C227.668 137.082 223.446 135.13 221.229 128.51C220.539 126.437 219.875 124.42 218.001 122.79C215.844 120.912 216.829 118.401 219.584 117.586C223.911 116.309 228.343 116.457 232.771 116.457C233.558 116.457 233.907 116.954 234.334 117.419C238.909 122.394 240.765 128.576 242.138 134.971C242.387 136.12 241.929 136.671 240.726 136.655C238.494 136.628 236.263 136.647 234.032 136.647H234.035ZM85.8406 642.474C86.6438 642.59 87.4087 642.668 88.1617 642.811C92.0652 643.552 95.849 644.643 99.1318 646.995C100.149 647.724 101.068 648.671 100.277 650.01C99.6635 651.042 99.3494 652.199 98.9531 653.27C97.1606 658.12 95.5619 663.052 94.0559 668.004C93.7223 669.106 93.412 669.153 92.5505 668.757C90.61 667.868 88.689 666.898 86.4344 667.131C85.5968 667.216 85.8293 666.537 85.7905 666.053C85.6582 664.422 85.5228 662.835 84.6764 661.318C83.0738 658.458 81.0951 655.978 78.4637 654.015C78.2154 653.832 77.5715 653.805 78.1264 652.975C80.3578 649.633 83.1905 646.673 84.7002 642.862C84.9253 642.295 85.4764 642.556 85.8451 642.478L85.8406 642.474ZM311.472 457.092C313.218 456.696 314.891 457.441 316.633 457.461C317.048 457.465 317.545 457.632 317.696 458.14C317.848 458.648 317.56 459.009 317.177 459.289C311.208 463.654 305.03 467.675 298.068 470.29C289.974 473.332 281.758 475.851 273.008 476.243C270.082 476.374 270.051 476.631 269.321 474.124C269.139 473.499 269.027 473.037 270.051 472.851C272.515 472.401 274.952 471.776 277.272 470.767C286.71 466.665 296.159 462.587 305.601 458.489C307.475 457.674 309.26 456.549 311.476 457.088L311.472 457.092ZM354.938 578.534C355.788 578.794 356.203 579.299 356.727 579.609C361.376 582.36 366.122 585.154 367.515 590.952C368.318 594.297 368.163 596.113 364.383 596.874C361.811 597.39 359.331 596.777 356.813 596.846C356.487 596.854 354.713 596.85 355.625 595.201C355.854 594.786 356.006 593.955 356.044 593.319C356.343 588.406 356.153 583.517 354.934 578.534H354.938ZM209.712 212.21C214.008 204.464 217.043 196.869 217.306 188.022C218.156 189.089 219.542 189.105 219.444 190.447C219.103 195.267 220.197 199.811 221.963 204.239C222.126 204.65 222.448 204.987 221.769 205.294C217.71 207.11 214.233 209.955 209.712 212.213V212.21ZM191.687 287.104C190.445 286.6 189.293 286.837 188.183 286.41C187.345 286.087 187.081 286.022 187.278 284.916C188.54 277.806 190.282 270.802 191.757 263.739C192.377 260.767 193.286 257.856 194.062 254.919C192.386 265.54 191.334 276.177 191.691 287.104H191.687ZM334.324 289.864C333.242 290.065 332.078 289.572 331.922 288.303C331.752 286.934 333.052 286.417 334.212 286.204C335.062 286.049 337.235 287.993 337.018 288.812C336.715 289.956 335.524 289.82 334.324 289.864ZM338.446 298.377C337.216 298.509 336.304 297.803 335.302 297.446C334.771 297.256 334.422 296.573 334.496 296.034C334.558 295.564 335.217 295.416 335.683 295.308C336.928 295.024 337.961 295.273 339.008 296.177C339.645 296.724 339.963 297.167 339.804 297.896C339.614 298.765 338.849 298.222 338.442 298.377H338.446ZM290.513 222.451C294.258 224.367 298.111 225.95 302.57 227.165C298.988 227.627 293.292 225.217 290.513 222.451ZM190.697 125.289C186.316 122.654 181.636 120.617 177.146 118.222C182.23 119.507 186.541 122.274 190.697 125.289ZM341.484 306.057C342.319 306.658 344.081 305.948 344.43 307.345C344.903 309.239 342.893 308.125 342.156 308.734C341.348 309.402 340.805 308.366 340.247 307.892C339.878 307.578 339.49 307.287 339.804 306.619C340.176 305.828 340.805 306.302 341.488 306.057H341.484ZM213.81 149.08C209.079 149.131 205.366 146.57 201.575 144.206C205.626 145.906 209.553 147.932 213.81 149.08ZM167.728 307.725C167.953 309.332 168.427 310.788 168.951 312.227C169.843 314.679 169.711 314.877 166.968 314.928C167.22 312.526 167.476 310.127 167.728 307.725ZM253.271 142.635C251.517 139.488 249.915 136.616 248.094 133.349C250.384 134.502 253.582 140.361 253.271 142.635ZM258.246 194.565C257.424 189.186 255.146 185.084 251.894 181.452C255.041 183.047 258.576 190.168 258.246 194.565ZM165.396 333.263C166.405 334.909 168.043 334.738 169.61 335.115C168.337 336.189 166.956 337.412 165.652 336.946C164.759 336.628 165.373 334.754 165.392 333.263H165.396ZM252.201 193.652C251.285 192.015 250.023 190.68 248.937 189.171C251.242 188.953 252.701 190.835 252.201 193.652ZM164.542 203.207C164.046 205.29 163.545 207.378 163.048 209.462C162.92 207.238 162.994 205.065 164.542 203.207ZM203.538 151.363C202.467 150.939 201.695 150.094 201.055 149.135C200.911 148.917 201.233 148.607 201.489 148.712C202.529 149.139 203.596 149.581 204.062 150.73C204.186 151.04 204.031 151.358 203.538 151.366V151.363ZM182.952 124.424C181.147 123.783 179.96 122.844 178.741 121.96C180.321 122.173 181.757 122.65 182.952 124.424ZM162.114 202.633C162.346 204.239 161.648 205.364 161.178 206.901C160.976 204.901 161.288 203.478 162.114 202.633Z" fill="#090909"/>
<path d="M72.8912 398.181C72.3401 401.192 73.6599 402.76 76.6631 402.73C76.7289 402.73 76.8029 402.753 76.8574 402.73C81.3315 400.878 85.2275 403.09 88.9686 404.848C94.106 407.262 98.1073 405.706 101.91 402.303C102.43 401.837 102.97 401.041 103.629 401.907C105.426 404.251 107.766 403.893 110.04 403.156C111.142 402.799 113.125 402.698 112.938 401.243C112.822 400.32 110.828 400.281 109.687 400.44C107.386 400.758 106.637 399.718 105.857 397.661C103.746 392.093 101.825 386.486 100.995 380.591C100.311 375.748 100.315 370.846 100.506 365.949C100.633 362.636 100.559 362.636 103.602 361.622C104.386 361.363 105.17 361.103 105.93 360.789C106.683 360.478 107.409 360.101 108.336 359.667C107.254 364.413 109.295 368.511 110.272 372.946C108.705 372.744 107.266 372.787 106.066 373.769C106.602 375.302 107.7 375.806 109.229 375.566C110.626 375.344 111.224 375.83 111.488 377.358C111.709 378.631 111.398 380.098 112.438 381.301C114.204 379.815 113.812 377.808 113.618 375.981C113.044 370.649 111.895 365.426 110.343 360.291C110.164 359.702 110.056 358.906 110.308 358.398C112.783 353.415 115.488 348.568 121.165 346.562C123.564 345.712 126.09 345.25 128.418 344.137C132.38 342.239 134.437 338.894 135.617 334.886C135.997 333.589 135.617 332.301 134.682 331.339C133.832 330.466 133.808 329.678 134.2 328.568C134.922 326.535 136.346 324.994 137.499 323.256C138.931 321.094 140.875 319.134 140.487 316.185C140.393 315.479 140.374 314.594 139.703 314.381C138.733 314.07 138.725 315.157 138.43 315.712C136.486 319.383 133.436 322.239 131.107 325.638C128.977 328.747 128.216 331.836 129.338 335.433C129.877 337.164 129.113 338.378 127.142 339.038C124.639 339.876 122.011 340.264 119.54 341.23C117.114 342.178 115.15 343.788 113.652 345.798C111.204 349.085 108.643 352.371 107.723 356.512C107.521 357.424 107.106 357.696 106.21 357.82C103.269 358.231 100.54 359.593 97.424 359.442C95.9807 359.372 95.1461 360.897 94.7505 362.383C94.0327 365.088 93.8113 367.839 93.9204 370.61C93.9631 371.759 93.6327 372.158 92.5267 372.651C84.5873 376.194 78.0367 381.355 74.1019 389.338C73.6016 390.35 73.3376 391.483 73.0003 392.574C72.5771 393.925 72.5307 395.267 71.4284 396.525C70.0353 398.115 72.026 397.929 72.8912 398.174V398.181ZM73.757 394.064C78.4486 385.756 85.7823 380.35 93.8464 375.48C94.0558 376.392 94.2734 377.009 94.3317 377.642C94.9681 384.623 97.0672 391.15 100.187 397.406C100.571 398.177 102.178 398.845 101.084 399.889C100.435 400.506 99.2133 400.591 98.2196 400.742C97.5406 400.848 96.8032 400.715 96.1123 400.587C93.7844 400.16 91.4056 399.877 89.1548 399.186C86.1591 398.271 83.3453 400.129 80.2913 399.322C77.8116 398.666 77.5634 398.806 78.7083 396.408C79.1465 395.492 79.7446 394.84 80.734 394.479C81.8713 394.064 83.0312 393.649 83.788 392.558C84.1917 391.977 85.3867 391.736 84.8626 390.785C84.366 389.881 83.4231 390.335 82.6124 390.513C79.4769 391.193 76.6944 392.686 73.7608 394.06L73.757 394.064Z" fill="#090909"/>
<path d="M141.352 697.605C143.487 698.031 146.405 696.689 149.439 696.282C153.693 695.711 157.942 696.157 162.179 695.918C164.787 695.768 167.422 695.592 169.906 694.689C171.003 694.294 172.261 694.019 172.703 692.57C172.983 691.655 173.933 692.088 174.574 692.081C179.39 692.044 184.158 691.686 188.754 690.113C190.069 689.661 191.411 689.216 192.246 687.912C192.641 687.291 193.127 686.733 192.688 686.012C192.234 685.26 191.446 685.429 190.759 685.567C188.443 686.018 186.107 686.344 183.775 686.702C180.615 687.185 177.472 686.921 174.321 687.028C173.541 687.059 172.692 686.946 172.183 687.642C170.413 690.069 167.795 689.874 165.369 689.655C158.268 689.015 151.306 689.385 144.379 691.247C138.418 692.846 132.256 692.508 126.148 692.451C125.826 692.451 125.504 692.426 125.182 692.407C124.041 692.345 123.56 693.235 123.292 694.031C122.92 695.147 124.06 695.235 124.708 695.423C129.811 696.859 135.05 697.316 141.348 697.605H141.352Z" fill="#090909"/>
<path d="M298.938 673.476C300.606 677.221 304.235 679.052 308.01 677.868C310.098 677.213 311.829 677.081 313.827 678.435C316.42 680.193 319.07 679.591 321.181 677.232C321.903 676.425 322.493 676.448 323.343 676.937C324.666 677.698 325.779 678.831 327.32 679.188C327.735 679.285 328.306 679.448 328.546 678.986C328.686 678.719 328.546 678.218 328.391 677.896C327.374 675.831 323.739 673.926 321.441 674.224C320.196 674.384 319.128 674.768 318.426 675.979C317.735 677.17 316.8 677.601 315.411 676.709C313.308 675.362 310.898 674.97 308.585 675.909C305.608 677.12 303.265 676.188 300.929 674.426C300.381 674.011 299.862 673.258 298.938 673.476Z" fill="#090909"/>
<path d="M110.137 384.111C108.918 384.596 107.378 384.98 106.326 386.272C105.864 386.839 105.678 387.409 106.532 387.801C107.867 388.414 110.886 387.017 111.421 385.55C111.832 384.417 111.6 384.087 110.137 384.107V384.111Z" fill="#090909"/>
<path d="M107.401 391.577C109.803 391.984 112.046 391.662 114.398 390.346C111.414 388.666 109.586 390.999 107.401 391.577Z" fill="#090909"/>
<path d="M290.463 430.642C280.482 430.844 271.556 432.967 262.767 435.823C256.717 437.786 250.563 439.369 244.164 439.133C235.926 438.826 227.97 436.944 220.24 434.103C219.604 433.871 219.072 433.343 218.416 434.193C217.516 435.357 218.195 435.87 219.095 436.439C223.76 439.393 228.929 441.151 234.168 442.715C238.824 444.108 243.57 444.857 248.452 444.441C255.103 443.878 261.347 441.648 267.676 439.762C277.742 436.762 287.995 435.159 298.522 435.714C300.506 435.819 302.473 436.226 304.449 436.463C304.836 436.51 305.329 436.964 305.624 436.323C305.834 435.861 305.585 435.478 305.352 435.07C304.18 433.009 302.03 432.474 300.048 431.923C296.71 430.995 293.245 430.747 290.463 430.642Z" fill="#090909"/>
<path d="M229.468 372.787C229.546 375.181 231.354 376.307 232.514 377.831C233.112 378.616 234.459 379.027 233.659 380.509C233.438 380.921 234.082 381.584 234.629 381.312C235.793 380.731 236.344 381.65 236.903 382.19C246.108 391.076 256.287 398.682 267.195 405.325C268.087 405.869 267.99 406.272 267.653 406.959C266.943 408.403 266.248 409.85 265.53 411.29C265.131 412.093 264.409 413.079 265.425 413.677C266.326 414.204 267.447 414.721 268.665 414.049C269.709 413.475 270.148 412.481 270.746 411.581C270.99 411.208 271.211 410.813 271.405 410.413C273.885 405.341 273.477 406.431 269.682 403.187C268.914 402.528 268.743 402.167 269.248 401.336C270.758 398.853 271.207 396.074 271.165 393.237C271.114 389.908 271.522 386.567 270.575 383.265C268.627 376.45 263.737 373.144 257.187 371.708C253.163 370.823 249.154 370.381 245.106 371.673C242.662 372.453 240.889 374.238 238.82 375.573C238.712 375.643 238.63 375.748 238.537 375.833C237.101 377.129 235.727 377.669 234.152 375.915C232.949 374.58 231.494 373.497 229.468 372.795V372.787ZM238.296 379.26C240.276 378.092 241.828 376.47 243.872 375.507C248.211 373.466 252.511 374.479 256.784 375.601C261.324 376.792 264.991 379.182 266.772 383.765C268.922 389.299 268.223 394.949 267.292 400.587C267.137 401.515 266.554 400.793 266.357 400.661C264.971 399.73 263.64 398.721 262.282 397.747C254.11 391.876 246.084 385.818 238.292 379.26H238.296Z" fill="#090909"/>
<path d="M207.95 280.321C207.78 290.345 210.019 300.011 212.355 309.65C214.439 318.242 217.198 326.674 218.684 335.406C219.123 337.982 219.619 340.578 219.611 343.217C219.611 343.671 219.572 344.129 219.646 344.571C219.802 345.534 220.132 346.892 221.012 346.873C222.335 346.845 221.878 345.398 221.909 344.521C222.27 333.95 220.221 323.663 218.148 313.383C216.197 303.721 213.674 294.167 212.363 284.38C211.808 280.243 211.516 276.072 211.051 271.924C210.938 270.938 211.152 269.297 209.965 269.285C208.664 269.273 208.653 270.969 208.4 272.044C207.768 274.768 208.012 277.554 207.955 280.321H207.95Z" fill="#090909"/>
<path d="M222.339 305.436C223.057 308.614 224.148 311.851 225.25 315.087C227.411 321.447 229.51 327.831 231.214 334.331C231.369 334.92 231.28 335.898 232.033 335.735C232.798 335.572 233.228 334.839 233.03 333.76C231.746 326.841 230.023 320.047 227.826 313.364C226.864 310.438 225.786 307.582 224.349 304.858C224.043 304.28 223.748 303.818 223.092 303.915C222.359 304.024 222.312 304.656 222.344 305.433L222.339 305.436Z" fill="#090909"/>
<path d="M322.023 386.916C321.348 381.289 321.022 375.585 318.469 370.369C317.39 368.165 316.059 366.105 313.82 364.894C312.147 363.99 311.247 364.421 310.646 366.217C309.928 368.352 310.785 370.261 311.596 372.112C312.656 374.529 314.068 376.831 315.853 378.721C317.53 380.497 317.759 382.57 318.088 384.685C318.216 385.504 318.418 386.323 318.48 387.141C318.601 388.693 319.167 390.296 320.747 390.137C322.252 389.985 321.86 388.134 322.027 386.912L322.023 386.916ZM313.691 368.344C315.527 371.13 316.241 373.726 316.466 376.489C314.98 374.161 313.843 371.712 313.691 368.344Z" fill="#090909"/>
<path d="M277.73 254.55C268.285 255.718 258.762 256.607 250.143 261.198C248.382 262.136 246.818 263.39 245.32 264.717C244.824 265.156 244.637 265.746 244.904 266.281C245.184 266.848 245.684 266.464 246.069 266.27C254.098 262.203 262.996 261.101 271.549 258.823C274.009 258.167 276.519 257.659 278.829 256.533C279.508 256.203 280.723 256.087 280.389 254.965C280.144 254.135 279.146 254.702 278.503 254.562C278.258 254.508 277.99 254.554 277.73 254.554V254.55Z" fill="#090909"/>
<path d="M311.837 343.334C305.519 353.912 301.732 365.399 299.64 377.494C299.958 377.611 300.272 377.723 300.591 377.84C303.063 365.86 309.403 355.298 312.896 343.69C312.543 343.571 312.19 343.45 311.837 343.334Z" fill="#090909"/>
<path d="M175.835 359.442C176.471 362.434 177.197 365.744 180.507 367.684C181.489 368.258 182.347 369.038 183.286 369.69C185.964 371.549 188.671 371.142 191.198 368.98C192.866 367.552 194.547 366.225 195.874 364.424C196.344 363.788 196.7 363.024 196.565 362.589C195.656 359.62 195.816 356.244 193.72 353.729C191.613 351.207 188.609 350.097 185.466 349.635C180.53 348.91 177.667 351.122 176.503 356.128C176.274 357.109 175.808 358.037 175.831 359.446L175.835 359.442Z" fill="#090909"/>
<path d="M182.75 430.281C186.397 430.122 188.563 427.631 190.736 425.163C190.856 425.027 190.841 424.748 190.973 424.655C193.437 422.951 192.556 420.968 191.481 418.95C190.969 417.984 191.151 416.859 190.907 415.818C190.34 413.389 188.575 412.241 186.844 410.991C184.748 409.478 182.125 409.253 179.735 408.69C176.755 407.988 173.068 411.977 172.405 415.209C172.047 416.959 171.919 418.492 172.086 420.274C172.42 423.828 174.554 425.815 177.236 427.58C178.955 428.714 180.39 430.405 182.746 430.285L182.75 430.281Z" fill="#090909"/>
<path d="M174.248 387.89C173.724 383.874 173.072 379.919 169.486 377.219C167.62 375.814 166.176 375.821 164.441 377.498C163.995 377.929 163.514 377.867 163.018 377.894C162.501 377.921 161.651 377.719 161.519 377.948C159.979 380.61 155.799 380.75 155.454 384.763C155.315 386.385 154.049 387.952 154.817 389.776C155.09 390.424 155.268 391.158 155.691 391.693C157.426 393.893 159.734 395.62 161.978 397.075C166.114 399.761 172.847 396.264 173.821 391.351C174.042 390.23 174.477 389.109 174.248 387.89Z" fill="#090909"/>
<path d="M173.351 152.923C176.867 151.929 180.918 152.996 184.965 152.914C185.645 152.899 186.704 153.423 186.929 152.309C187.147 151.223 186.634 150.354 185.552 149.83C183.611 148.894 181.5 148.584 179.432 148.355C177.158 148.107 174.857 147.882 172.533 148.223C171.069 148.44 169.533 148.44 169.443 150.349C169.369 152.003 170.748 152.946 173.355 152.923H173.351Z" fill="#090909"/>
<path d="M159.102 174.677C159.401 175.865 159.757 176.932 160.969 177.452C162.428 178.08 163.863 178.934 165.497 178.01C166.168 177.63 166.386 177.095 165.73 176.462C165.404 176.152 165.094 175.826 164.779 175.504C162.986 173.683 163.033 173.769 165.241 172.551C166.173 172.038 167.833 171.367 167.414 170.265C166.871 168.837 165.303 169.718 164.213 170.044C162.54 170.54 161.065 171.421 159.952 172.822C159.505 173.385 159.195 173.983 159.102 174.677Z" fill="#090909"/>
<path d="M178.947 162.694C178.866 164.219 180.553 166.858 181.772 167.385C183.251 168.026 183.74 167.207 183.794 166.039C183.887 164.048 183.433 162.15 182.284 160.474C181.803 159.768 181.147 159.232 180.282 159.275C179.238 159.325 179.479 160.4 179.106 160.998C178.753 161.568 179.086 162.138 178.943 162.694H178.947Z" fill="#090909"/>
<path d="M174.438 187.475C173.316 187.296 172.137 187.576 170.973 187.894C170.511 188.022 169.796 188.084 169.734 188.577C169.669 189.093 170.026 189.66 170.499 190.029C171.803 191.049 176.514 191.289 177.911 190.447C178.38 190.164 178.594 189.733 178.388 189.334C177.997 188.573 177.752 187.58 176.657 187.487C175.959 187.429 175.249 187.475 174.438 187.475Z" fill="#090909"/>
<path d="M200.166 173.222C199.766 170.688 199.428 168.379 199.029 166.078C198.912 165.41 198.71 164.293 198.051 164.436C197.112 164.642 197.516 165.705 197.663 166.431C197.993 168.057 198.346 169.675 198.742 171.285C198.92 171.999 199.072 172.791 200.166 173.222Z" fill="#090909"/>
<path d="M220.768 173.326C220.768 171.848 220.814 170.366 220.76 168.887C220.601 164.634 226.697 155.86 232.137 155.324C233.861 155.154 235.603 155.208 237.326 154.909C238.129 154.77 239.425 154.874 239.487 154.183C239.592 153.054 238.289 152.798 237.373 152.635C228.615 151.091 225.448 152.469 220.841 160.229C218.342 164.44 219.545 168.941 220.768 173.326Z" fill="#090909"/>
<path d="M237.043 175.825C238.773 175.872 240.318 175.41 241.595 174.188C242.061 173.742 242.309 173.202 241.913 172.655C241.521 172.112 240.962 172.426 240.528 172.671C239.375 173.327 238.273 173.781 236.996 172.872C236.134 172.259 235.134 172.438 234.295 172.977C233.729 173.342 233.857 174.056 234.082 174.568C234.524 175.562 235.421 175.864 236.46 175.818C236.655 175.81 236.845 175.818 237.039 175.818L237.043 175.825Z" fill="#090909"/>
<path d="M233.096 166.667C233.298 165.13 232.58 164.537 231.855 164.68C230.279 164.987 230.372 166.559 230.147 167.73C230.031 168.332 230.329 169.391 231.21 169.139C232.576 168.744 232.794 167.327 233.096 166.667Z" fill="#090909"/>
<path d="M242.557 168.107C242.619 168.751 242.887 169.139 243.516 169.166C244.264 169.201 245.657 167.564 245.592 166.749C245.553 166.256 245.343 165.709 244.843 165.864C243.718 166.209 242.771 166.861 242.553 168.107H242.557Z" fill="#090909"/>
<path d="M252.088 382.096C251.234 382.092 250.419 382.147 250.128 383.051C249.771 384.149 249.511 385.309 250.349 386.33C251.863 388.177 254.051 388.868 256.224 389.334C257.827 389.679 258.979 387.518 258.064 385.934C256.744 383.649 254.637 382.477 252.088 382.096ZM251.657 385.333C254.016 385.123 255.557 385.961 256.857 387.378C254.897 387.556 253.302 386.854 251.657 385.333Z" fill="#090909"/>
<path d="M263.446 389.326C263.504 389.931 263.881 390.459 264.408 390.257C265.581 389.807 265.86 388.627 266.104 387.537C266.232 386.966 265.863 386.377 265.289 386.513C263.865 386.85 263.927 388.297 263.442 389.326H263.446Z" fill="#090909"/>
<path d="M249.197 378.682C248.518 378.767 247.602 378.802 247.61 379.659C247.617 380.936 248.894 380.187 249.535 380.544C250.058 380.835 250.749 380.28 250.722 379.69C250.687 378.875 250.027 378.553 249.197 378.682Z" fill="#090909"/>
</g>
<defs>
<clipPath id="clip0_1976_940">
<rect y="0.96875" width="456" height="520" rx="8" fill="white"/>
</clipPath>
</defs>
</svg>
