<svg width="456" height="521" viewBox="0 0 456 521" fill="none" xmlns="http://www.w3.org/2000/svg">
<g clip-path="url(#clip0_1976_923)">
<rect y="0.84375" width="456" height="520" rx="8" fill="#D9D3FF"/>
<path d="M261.745 175.914C264.721 174.137 267.744 171.96 271.06 170.418C277.412 167.468 283.95 164.914 290.379 162.132C293.496 160.782 296.514 159.191 299.649 157.9C301.18 157.268 302.884 157.05 304.515 156.686C306.935 156.15 309.535 156.046 311.746 155.054C317.681 152.396 322.756 153.441 326.861 157.309C328.365 158.727 330.336 159.659 331.772 161.132C334.069 163.482 334.164 164.704 332.442 167.469C331.482 169.01 330.123 170.3 328.881 171.773C328.718 171.559 328.782 171.732 328.881 171.764C332.692 172.873 335.383 175.378 337.856 178.405C339.429 180.328 341.626 181.737 343.574 183.342C348.708 187.569 350.103 193.015 348.336 199.219C346.438 205.879 346.529 212.542 347.027 219.366C347.466 225.406 347.57 231.552 346.972 237.566C346.497 242.316 343.303 246.098 340.236 249.725C336.824 253.757 332.374 255.835 327.436 257.267C324.804 258.03 322.131 259.012 319.842 260.471C318.32 261.444 317.45 263.44 316.218 265.067C321.75 269.576 322.77 275.99 324.106 282.39C324.876 286.067 325.125 290.063 327.898 293.099C328.229 293.464 328.433 294.014 328.528 294.509C329.638 300.264 335.799 304.655 338.065 309.864C340.824 316.209 341.558 322.355 342.945 329.155C343.33 331.05 343.384 333.028 343.475 334.974C343.719 340.265 346.297 345.483 346.221 350.774C346.144 356.233 347.294 360.77 347.127 366.229C347.018 369.747 345.917 374.079 346.221 377.593C346.624 382.262 342.279 386.553 340.317 390.585C334.694 402.158 327.146 412.462 319.312 422.572C317.464 424.963 315.583 427.331 313.712 429.718C315.661 429.945 316.345 431.241 316.336 433.204C316.304 440.555 316.848 447.836 319.507 454.786C320.033 456.16 320.563 457.614 321.442 458.759C324.518 462.773 324.409 467.428 324.595 472.124C324.845 478.428 325.334 484.729 325.855 491.015C326.263 495.961 326.435 500.979 327.482 505.797C329.117 513.339 329.928 520.948 330.209 528.607C330.467 535.758 330.272 542.925 330.286 550.085C330.295 553.981 330.317 557.876 330.331 561.771C330.344 566.176 330.943 570.69 330.182 574.954C329.57 578.395 330.816 585.39 329.009 588.504C326.43 592.941 320.15 593.404 317.446 597.773C316.05 600.027 313.88 600.655 311.601 600.727C306.74 600.882 301.865 600.914 297.008 600.714C292.513 600.528 288.44 601.869 284.598 603.855C276.429 608.078 268.41 612.814 259.344 614.656C253.829 615.773 248.012 615.337 242.348 615.814C238.022 616.178 233.741 617.069 229.409 617.388C224.257 617.769 219.07 618.051 213.914 617.883C209.922 617.751 205.935 616.969 201.98 616.282C197.789 615.555 193.648 614.528 189.462 613.764C185.221 612.991 180.966 612.159 176.68 611.75C172.294 611.332 167.863 611.292 163.451 611.26C154.063 611.191 144.675 611.241 134.662 611.241C136.008 612.128 136.882 612.705 137.757 613.278C131.917 614.169 123.127 609.083 121.31 603.428C120.843 601.968 121.047 599.795 121.845 598.518C124.418 594.4 123.023 591.095 120.767 587.472C117.926 582.909 115.538 578.063 112.905 573.367C112.013 571.772 111.17 570.076 109.961 568.735C105.882 564.231 105.62 559.053 107.156 553.608C112.086 536.175 117.468 518.897 124.821 502.306C126.883 497.651 127.689 492.724 128.273 487.738C129.198 479.901 130.1 472.06 130.988 464.218C131.472 459.923 131.45 455.51 132.442 451.341C135.215 439.673 138.219 428.049 141.494 416.513C143.117 410.808 145.654 405.372 147.589 399.744C151.992 386.944 156.473 374.166 160.556 361.261C164.103 350.047 166.844 338.574 170.537 327.414C172.53 321.387 173.599 315.414 173.608 309.123C173.622 298.659 176.241 288.854 181.248 279.663C185.366 272.104 189.398 264.503 193.439 256.903C194.255 255.371 194.296 254.058 193.236 252.294C190.014 246.916 187.033 241.375 184.305 235.725C183.042 233.107 182.407 230.134 181.805 227.256C181.269 224.706 182.661 222.715 184.646 221.306C187.541 219.248 190.318 216.651 193.571 215.552C199.093 213.688 202.704 208.956 208.037 206.92C210.597 205.942 213.049 205.188 215.826 205.265C220.561 205.402 225.082 200.915 225.209 196.101C225.227 195.41 225.05 194.433 224.584 194.051C222.341 192.215 221.109 189.864 220.733 187.655C218.223 188.092 215.794 188.574 213.347 188.928C210.511 189.338 207.666 189.865 204.811 189.942C197.889 190.119 195.016 194.614 192.619 187.578C192.479 187.16 191.994 183.319 191.713 183.033C187.183 175.305 188.682 175.909 185.823 173.032C184.464 171.664 181.655 170.95 180.309 169.568C178.674 167.882 179.136 166.209 180.174 164.423C181.537 162.063 182.198 157.473 183.105 154.854C183.272 154.377 183.105 151.746 183.105 151.218C183.114 148.186 183.064 147.882 183.105 144.854C183.137 142.673 183.87 142.204 186.122 140.572C186.358 140.399 186.331 139.694 186.244 139.272C184.849 132.467 185.071 125.104 188.089 119.399C193.068 109.994 202.791 104.23 212.681 100.234C218.254 97.9844 224.144 96.3935 230.025 95.098C233.573 94.3162 241.932 94.9071 245.176 96.6707C247.654 98.0208 250.191 99.9617 252.879 100.762C255.311 101.485 256.875 103.544 258.315 105.307C260.486 107.967 260.631 108.598 262.846 111.217C263.603 112.117 263.68 113.694 264.658 114.399C265.007 114.649 269.434 115.885 269.642 116.217C272.628 120.94 270.082 125.467 270.879 131.099C271.713 136.981 273.139 143.009 270.548 148.491C268.858 152.064 265.356 155.772 263.226 159.046C261.283 162.032 258.355 164.373 255.583 167.301C257.287 169.682 259.348 172.564 261.736 175.905L261.745 175.914Z" fill="#F6F6F6"/>
<path d="M228.108 787.256C228.77 787.557 229.544 787.719 230.074 788.182C231.216 789.166 232.191 789.166 233.5 788.387C239.856 784.604 244.831 779.299 249.698 773.849C253.168 769.967 257.059 766.508 261.817 764.321C264.364 763.153 265.564 761.321 266.022 758.789C266.669 755.221 267.322 751.648 267.797 748.053C267.947 746.912 267.394 745.689 267.426 744.512C267.489 742.271 267.458 739.966 267.979 737.812C269.098 733.193 269.171 728.825 267.204 724.329C266.348 722.37 266.81 719.87 266.303 717.707C265.614 714.779 264.708 711.879 263.629 709.07C262.456 706.024 263.303 703.065 263.584 700.078C263.842 697.351 264.735 694.614 264.563 691.933C264.341 688.492 263.344 685.105 262.665 681.696C262.352 680.137 262.003 678.587 261.667 677.032C261.93 676.955 262.189 676.883 262.451 676.805C263.226 678.874 264.001 680.942 264.776 683.01C264.894 682.996 265.016 682.987 265.134 682.973C265.134 681.978 265.111 680.987 265.134 679.991C265.274 674.778 265.355 669.564 265.604 664.355C265.777 660.782 266.08 657.205 266.529 653.654C266.905 650.691 269.225 649.118 272.315 649.332C279.922 649.854 284.969 654.049 287.71 660.855C290.229 667.109 292.531 673.509 294.23 680.028C295.87 686.328 296.477 692.892 297.804 699.283C298.602 703.124 299.354 707.138 301.098 710.578C303.677 715.67 304.207 720.488 302.077 725.761C300.759 729.025 301.375 732.22 302.752 735.453C303.604 737.448 303.903 739.767 304.053 741.966C304.478 748.24 304.455 754.548 305.113 760.794C305.448 763.98 306.767 767.08 307.799 770.163C309.553 775.381 311.442 780.554 313.268 785.749C313.807 787.278 314.115 788.938 314.885 790.333C315.986 792.331 315.62 794.365 315.371 796.356C315.131 798.265 313.431 798.162 312.027 798.008C310.481 797.839 308.96 797.193 307.433 797.215C305.226 797.252 303.015 797.634 300.817 797.964C295.856 798.721 290.931 799.859 285.948 800.256C278.563 800.858 271.123 800.733 263.743 801.32C259.135 801.68 254.5 801.607 249.924 803.179C247.01 804.185 243.477 803.781 240.278 803.443C235.988 802.988 231.742 802.062 227.501 801.225C225.612 800.85 224.384 799.631 224.217 797.237C216.6 798.126 209.084 799.205 201.531 799.786C197.748 800.072 193.902 799.33 190.077 799.227C183.657 799.058 177.228 799.051 170.808 798.934C165.104 798.838 159.399 798.684 153.695 798.559C152.64 798.537 151.575 798.456 150.529 798.537C148.521 798.684 146.958 797.898 145.549 796.525C143.225 794.248 143.057 793.616 145.844 790.95C149.219 787.734 153.211 785.322 157.973 785.018C161.973 784.759 164.57 782.104 167.6 780.158C170.65 778.199 173.427 775.667 176.684 774.208C180.49 772.508 182.407 769.367 184.455 766.222C185.773 764.194 186.988 762.049 187.876 759.803C188.673 757.78 188.944 755.553 189.474 753.426C190.372 749.835 189.475 746.094 191.001 742.448C192.451 738.989 192.909 735.102 193.683 731.379C194.2 728.888 194.567 726.361 194.871 723.834C194.975 722.984 194.676 722.084 194.205 721.156C192.433 724.048 192.483 727.862 188.818 729.479C188.441 724.575 188.31 719.406 187.536 714.342C187.201 712.143 187.694 709.801 186.072 707.551C185.089 706.193 185.936 703.488 186.004 701.392C186.026 700.656 186.217 699.929 186.294 699.196C186.607 696.124 186.584 692.965 187.336 690.001C187.748 688.373 189.157 687.042 189.542 685.128C190.703 679.337 191.98 673.55 193.629 667.882C194.672 664.3 196.017 660.714 199.587 658.559C204.186 655.782 208.114 656.159 211.966 659.545C216.587 663.609 218.888 669.191 221.063 674.737C223.564 681.119 225.676 687.651 228.031 694.092C231.661 703.997 231.158 713.865 227.936 723.743C226.531 728.039 225.145 732.297 221.824 735.638C220.846 736.625 220.433 738.185 219.505 739.979C221.022 740.294 222.237 740.625 223.469 740.78C225.24 741.003 227.044 740.984 228.797 741.28C230.396 741.553 231.393 742.344 230.718 744.307C226.74 755.93 226.309 767.976 226.659 780.095C226.731 782.585 227.22 785.068 227.52 787.557C227.719 787.455 227.913 787.352 228.112 787.256H228.108Z" fill="#F6F6F6"/>
<path d="M265.578 603.448C271.014 602.239 276.452 601.025 281.889 599.816C283.266 599.425 284.639 599.039 286.016 598.648C290.379 597.225 294.742 595.802 299.105 594.38C299.427 594.289 299.744 594.202 300.066 594.112C302.616 593.284 305.163 592.461 307.714 591.634C308.928 591.07 310.147 590.511 311.361 589.947C315.062 588.706 318.737 587.402 322.47 586.266C323.857 585.843 325.37 585.824 326.824 585.625L327.54 586.325C327.884 583.434 328.31 580.548 328.555 577.647C328.809 574.652 328.981 571.647 329.022 568.643C329.144 559.047 329.285 549.455 329.231 539.86C329.198 534.364 328.818 528.868 328.546 523.377C328.478 522.055 328.211 520.741 328.034 519.423C327.889 518.364 327.744 517.3 327.604 516.241C327.594 515.786 327.59 515.332 327.581 514.877C327.431 513.818 327.286 512.754 327.137 511.695C326.679 507.636 326.294 503.572 325.746 499.526C324.935 493.545 324.01 487.58 323.127 481.612C322.973 480.576 322.774 479.549 322.597 478.517C322.448 477.458 322.294 476.394 322.144 475.335C321.27 471.103 320.422 466.866 319.521 462.644C318.542 458.052 317.454 453.48 316.526 448.879C315.896 445.775 315.031 442.634 316.349 439.479C317.409 439.056 318.47 438.629 319.53 438.207C322.158 439.384 322.715 442.065 323.372 444.325C325.737 452.452 327.762 460.684 329.923 468.871C330.055 469.371 330.263 469.848 330.435 470.339C330.435 470.644 330.44 470.943 330.444 471.248C330.744 472.612 331.047 473.976 331.346 475.34C331.65 476.703 331.949 478.067 332.252 479.43C333.104 484.744 333.951 490.063 334.803 495.376C335.007 496.726 335.206 498.077 335.41 499.431C335.89 504.258 336.371 509.086 336.855 513.914C337.132 516.663 337.413 519.409 337.693 522.159C337.83 523.373 337.966 524.582 338.105 525.796C338.364 531.209 338.772 536.623 338.844 542.037C338.926 547.983 338.699 553.937 338.609 559.888V563.978C338.002 568.22 337.399 572.465 336.797 576.707C336.62 577.484 336.466 578.265 336.257 579.033C335.849 580.534 335.41 582.029 334.984 583.525C334.667 584.738 334.35 585.948 334.033 587.161C332.959 587.929 333.177 590.111 331.137 589.825C329.275 589.561 328.709 590.448 329.09 592.161C328.596 592.912 328.102 593.661 327.604 594.416C326.539 595.416 325.475 596.421 324.409 597.42C319.548 600.771 314.704 604.153 309.816 607.462C307.813 608.816 305.706 610.016 303.645 611.289C302.272 611.998 300.899 612.712 299.522 613.421C297.261 614.394 294.982 615.325 292.758 616.371C292.354 616.558 292.164 617.194 291.874 617.621C291.743 618.68 291.611 619.744 291.476 620.803C291.734 623.839 291.992 626.881 292.25 629.917C292.296 631.577 292.346 633.236 292.391 634.895C292.518 639.049 292.621 643.199 292.789 647.349C292.817 648.05 293.107 648.741 293.279 649.436C293.279 650.649 293.279 651.858 293.279 653.072C293.134 653.677 292.989 654.286 292.844 654.891C292.944 656.263 293.048 657.636 293.147 659.009C293.192 661.641 293.029 664.296 293.32 666.9C293.913 672.186 294.801 677.441 295.462 682.719C295.757 685.087 295.807 687.483 295.965 689.865C295.829 689.996 295.694 690.133 295.558 690.264C294.189 688.919 292.817 687.573 291.448 686.228C291.158 685.91 290.868 685.592 290.578 685.273C290.039 684.596 289.505 683.919 288.966 683.242C288.739 683.018 288.508 682.8 288.281 682.578C287.969 682.282 287.656 681.987 287.348 681.691C287.23 681.587 287.108 681.483 286.99 681.378C287.027 681.56 287.063 681.746 287.099 681.928C287.393 682.282 287.688 682.637 287.983 682.991C288.204 683.182 288.426 683.377 288.644 683.568C289.178 684.282 289.713 684.996 290.248 685.71C290.465 685.91 290.687 686.109 290.905 686.309C291.054 686.46 291.204 686.614 291.353 686.764C292.685 688.278 294.017 689.787 295.345 691.3L297.701 694.56C301.543 699.042 305.412 703.501 309.209 708.019C310.038 709.01 310.623 710.206 311.32 711.31C311.8 712.356 312.281 713.397 312.761 714.443C312.371 717.174 311.827 719.824 309.191 721.402C308.878 721.588 308.366 722.011 308.416 722.165C309.299 724.865 305.915 725.847 306.042 728.211C305.756 728.661 305.444 729.097 305.195 729.566C304.823 730.27 304.501 730.997 304.157 731.711V739.657C307.451 737.275 310.038 734.684 314.813 735.634C312.942 737.584 311.438 739.152 309.934 740.72L307.745 743.989C305.625 745.534 306.454 747.503 306.989 749.412C307.206 750.193 307.51 750.948 307.777 751.716C308.099 753.03 308.421 754.348 308.742 755.662C310.074 759.803 311.401 763.944 312.734 768.08C313.137 769.307 313.536 770.53 313.939 771.757L316.843 783.535C316.993 784.899 317.146 786.264 317.296 787.623C317.559 790.73 317.826 793.829 318.116 797.237H337.128C337.263 797.376 337.399 797.516 337.53 797.655C336.756 800.329 334.885 800.769 332.298 800.894C326.557 801.173 320.844 801.966 315.117 802.502C313.558 802.649 311.986 802.635 310.423 802.693C309.064 802.693 307.705 802.693 306.345 802.693C302.182 802.818 298.018 802.943 293.859 803.061C292.436 803.097 291.009 803.119 289.581 803.149C288.372 803.002 287.167 802.848 285.957 802.693C282.183 803.002 278.404 803.303 274.63 803.604C273.574 803.751 272.514 803.898 271.459 804.052C271.155 804.052 270.856 804.052 270.553 804.059C269.193 804.206 267.834 804.361 266.475 804.507L260.585 804.97C259.828 805.102 259.076 805.234 258.32 805.367C252.652 805.815 246.993 806.402 241.32 806.652C237.932 806.806 234.52 806.417 231.122 806.277C230.677 806.255 230.224 806.307 229.781 806.329C228.58 806.138 227.374 805.947 226.174 805.749C225.091 804.801 222.885 804.493 224.629 801.643C220.515 801.504 216.859 801.21 213.216 801.298C209.84 801.386 206.475 801.878 203.104 802.194L202.574 802.466C200.766 802.525 198.963 802.598 197.154 802.657C195.795 802.664 194.436 802.671 193.077 802.671C192.624 802.671 192.171 802.664 191.718 802.657C190.961 802.635 190.205 802.613 189.448 802.591C188.392 802.591 187.337 802.598 186.285 802.598C186.131 802.613 185.982 802.635 185.828 802.642C183.264 802.613 180.704 802.583 178.139 802.547C176.114 800.953 173.939 801.702 171.783 802.143C171.026 802.165 170.269 802.179 169.513 802.194C169.06 802.179 168.602 802.157 168.149 802.143C164.823 802.032 161.502 801.915 158.177 801.856C158.027 801.856 157.868 802.297 157.715 802.539C149.754 802.561 141.793 802.642 133.833 802.561C132.034 802.547 130.235 802.01 128.45 801.651C126.802 801.32 126.498 800.373 127.377 798.985C128.283 798.36 129.189 797.736 130.091 797.112C133.647 796.921 137.209 796.73 140.942 796.524C140.67 790.341 145.98 788.923 149.89 786.279C150.488 785.875 151.186 785.608 151.838 785.277C153.052 784.558 154.267 783.84 155.481 783.122C158.77 781.536 162.041 779.912 165.349 778.372C171.365 775.567 174.411 769.635 179.009 765.339C179.874 764.53 180.568 763.544 181.338 762.635C182.384 761.735 183.431 760.834 184.477 759.939C185.329 759.275 186.267 758.703 187.01 757.935C188.51 756.393 187.282 754.962 186.675 753.521C186.516 752.157 186.358 750.793 186.199 749.43C186.385 747.062 186.426 744.675 186.797 742.334C187.173 739.939 188.202 737.848 191.224 736.852C190.082 735.784 189.181 734.757 188.102 733.97C186.29 732.652 184.359 731.502 182.484 730.266C180.055 728.665 179.544 726.184 179.444 723.524C181.406 716.992 183.368 710.455 185.329 703.924C185.81 703.037 186.294 702.151 186.774 701.265C189.797 697.397 192.742 693.482 194.989 689.128C194.803 689.005 194.622 688.883 194.436 688.764C191.55 692.742 188.664 696.723 185.778 700.701C185.524 700.551 185.044 700.401 185.044 700.246C184.949 695.932 185.044 691.615 184.795 687.309C184.614 684.124 183.939 680.973 183.603 677.791C183.055 672.587 182.606 667.368 182.117 662.159C181.967 660.945 181.822 659.736 181.673 658.522C181.519 655.945 181.365 653.372 181.211 650.795L180.776 647.159C180.771 646.099 180.762 645.036 180.758 643.977C180.608 642.613 180.454 641.249 180.305 639.885V631.699C174.107 630.662 167.954 629.63 161.806 628.598C160.465 628.38 159.119 628.158 157.778 627.94C151.616 626.322 145.454 624.703 139.297 623.085C138.042 622.648 136.787 622.212 135.532 621.776C131.889 620.081 128.228 618.435 124.627 616.658C123.924 616.307 123.471 615.453 122.529 614.421C122.492 614.421 121.827 614.421 121.156 614.421C117.962 614.444 117.763 614.262 117.124 611.044C116.48 607.784 115.751 604.539 115.17 601.266C114.813 599.23 115.954 597.825 117.504 596.697C118.22 596.18 118.949 595.68 120.01 594.934C118.111 592.275 116.263 589.688 114.414 587.097C113.608 586.038 112.801 584.975 111.991 583.916C109.503 579.852 106.698 575.947 104.632 571.679C103.223 568.765 102.838 565.351 102 562.165C102.729 560.651 103.459 559.133 104.193 557.619C106.272 550.219 108.121 542.746 110.491 535.441C113.622 525.791 117.165 516.277 120.535 506.708C120.983 505.495 121.432 504.285 121.881 503.072C122.492 501.254 123.1 499.435 123.711 497.618C124.16 496.558 124.604 495.494 125.052 494.435C126.198 491.467 127.35 488.499 128.478 485.522C128.596 485.213 128.677 484.831 128.613 484.517C127.925 481.017 126.901 477.553 126.566 474.026C126.108 469.262 126.081 464.453 126.063 459.661C126.053 457.771 126.57 455.875 126.846 453.98L127.508 449.938C130.036 440.697 132.442 431.416 135.138 422.224C136.642 417.088 138.631 412.097 140.394 407.037C141.952 402.559 143.511 398.078 145.056 393.591C146.102 390.559 147.126 387.523 148.159 384.491C148.608 383.259 149.056 382.027 149.504 380.796C149.854 380.045 150.198 379.295 150.547 378.545L151.444 376.272C154.294 370.718 157.144 365.163 160.034 359.527C159.753 359.318 159.545 359.095 159.286 358.981C156.999 357.976 156.559 356.049 157.148 353.958C157.819 351.572 158.838 349.281 159.712 346.949C160.306 345.367 160.909 343.79 161.507 342.212C162.046 340.831 162.585 339.449 163.124 338.067C166.055 331.43 169.163 324.867 171.8 318.111C172.53 316.248 171.864 313.839 171.837 311.679C171.642 309.262 171.452 306.843 171.257 304.425C171.144 301.066 171.302 297.67 170.854 294.357C170.297 290.224 172.027 286.893 174.107 283.774C178.148 277.72 182.488 271.865 186.698 265.919C186.774 265.815 186.739 265.628 186.756 265.479L189.049 262.624C189.787 262.287 190.526 261.955 191.265 261.619C191.89 262.251 192.511 262.882 193.136 263.51C190.87 267.956 188.632 272.415 186.331 276.842C183.825 281.661 181.106 286.383 178.805 291.297C178.126 292.747 178.202 294.775 178.519 296.429C179.598 302.056 179.978 307.625 178.683 313.28C178.153 315.58 178.039 317.98 177.741 320.335C177.586 321.094 177.428 321.848 177.274 322.608C175.094 330.016 172.911 337.422 170.731 344.83C169.975 347.049 169.218 349.267 168.416 351.627C169.789 351.627 170.786 351.627 171.787 351.627C172.453 351.663 173.124 351.722 173.79 351.731C177.296 351.799 177.446 351.654 177.772 348.094C178.089 346.89 178.406 345.685 178.724 344.481C180.105 339.785 181.487 335.094 182.874 330.398L183.952 327.153C185.991 320.053 188.034 312.948 190.073 305.847C190.458 304.466 190.848 303.079 191.233 301.698C192.805 296.865 194.373 292.034 195.945 287.206C196.244 286.147 196.548 285.083 196.846 284.024C198.93 277.292 200.92 270.524 203.145 263.837C204.254 260.496 205.767 257.292 207.172 254.055C207.381 253.574 208.002 253.273 208.776 252.582V257.091C208.704 257.414 208.635 257.737 208.563 258.065C207.503 263.369 206.447 268.669 205.387 273.974C205.233 274.733 205.074 275.488 204.92 276.247C203.955 279.824 202.999 283.406 202.021 286.979C200.842 291.274 199.642 295.57 198.455 299.861C198.047 301.08 197.644 302.302 197.236 303.52C193.262 317.907 189.285 332.294 185.311 346.681C185.148 347.431 184.985 348.181 184.822 348.926C182.919 357.127 181.016 365.322 179.113 373.523C178.964 374.281 178.809 375.036 178.66 375.795C177.577 380.614 176.431 385.414 175.438 390.245C174.397 395.305 173.472 400.391 172.553 405.474C171.365 412.028 170.215 418.587 169.073 425.152C168.135 430.542 167.238 435.938 166.318 441.329C165.426 446.566 164.524 451.798 163.645 457.034C163.464 458.13 163.373 459.239 163.237 460.339C163.092 461.098 162.947 461.853 162.802 462.611C162.349 465.189 161.896 467.762 161.448 470.339C161.289 471.703 161.126 473.067 160.968 474.431C160.546 476.416 160.025 478.385 159.722 480.385C159.174 483.994 158.748 487.626 158.276 491.249C158.127 492.309 157.972 493.372 157.823 494.431C157.343 497.649 156.858 500.867 156.387 504.086C155.644 509.15 154.837 514.204 154.194 519.282C153.623 523.795 153.197 528.323 152.776 532.855C152.137 539.687 151.544 546.528 150.968 553.365C150.76 555.828 150.583 558.301 150.515 560.77C150.184 573.269 149.895 585.774 149.591 598.279C149.586 598.507 149.555 598.73 149.537 598.957C148.055 600.461 149.627 600.752 150.474 601.325C151.879 602.621 153.347 603.848 154.661 605.226C155.716 606.335 157.003 607.475 156.065 609.353H160.469L164.565 609.025C172.263 608.83 179.956 608.639 187.654 608.444C189.615 608.444 191.582 608.444 193.543 608.444C200.534 608.466 207.526 608.621 214.512 608.48C220.832 608.353 227.153 607.966 233.468 607.589C237.08 607.375 240.682 606.953 244.288 606.625C245.045 606.489 245.796 606.352 246.553 606.212C251.696 605.48 256.834 604.753 261.975 604.02L265.582 603.443L265.578 603.448ZM197.236 684.887C197.136 685.064 197.032 685.241 196.933 685.418C196.67 685.819 196.407 686.219 196.14 686.618C196.308 686.723 196.475 686.828 196.638 686.932L197.254 685.878C197.44 685.578 197.621 685.278 197.807 684.982V684.964C199.809 682.009 202.233 679.251 202.686 674.9C201.015 675.414 199.919 675.75 198.818 676.087C198.886 676.328 198.953 676.564 199.017 676.805C200.004 676.654 200.992 676.5 202.011 676.345C200.525 679.037 199.044 681.71 197.567 684.382L197.236 684.887ZM222.957 723.488C222.455 725.052 221.952 726.616 221.449 728.179C221.638 728.229 221.834 728.283 222.024 728.333C222.455 726.797 222.885 725.261 223.315 723.724C223.446 723.134 223.578 722.542 223.705 721.951C224.398 720.497 225.11 719.052 224.647 717.356C224.702 716.592 224.76 715.824 224.815 715.06C224.656 715.056 224.493 715.047 224.334 715.043C224.334 715.743 224.334 716.442 224.334 717.147C224.009 718.643 223.686 720.138 223.36 721.633C223.225 722.252 223.084 722.87 222.948 723.488H222.957ZM245.321 685.755C245.271 685.314 245.217 684.873 245.167 684.432L245.085 683.455C244.954 683.178 244.818 682.901 244.687 682.619C244.596 682.15 244.501 681.682 244.41 681.209C244.347 680.923 244.288 680.632 244.225 680.346C244.111 680.032 244.002 679.719 243.89 679.405C243.178 675.913 242.702 672.354 241.705 668.945C239.685 662.036 237.388 655.204 235.199 648.345C234.243 645.349 233.283 642.359 232.458 639.79C231.724 647.34 231.434 655.277 230.079 663.032C228.489 672.109 228.734 681.146 229.93 690.087C231.403 701.101 233.772 711.993 235.875 722.916C236.337 725.329 236.196 727.407 234.28 729.043C230.596 732.193 226.858 735.274 223.134 738.393C225.54 739.239 228.122 740.148 230.709 741.057C231.339 741.225 232.146 740.512 233.029 740.393C234.315 740.216 236.227 739.952 236.853 740.653C238.04 741.975 237.754 743.798 236.151 745.084C234.692 746.257 233.233 747.439 231.851 748.694C231.348 749.148 230.782 749.803 230.709 750.425C230.184 754.875 229.776 759.344 229.327 763.807C229.092 766.126 228.761 768.439 228.616 770.762C228.285 776.126 228.041 781.494 227.764 786.859C228 786.969 228.231 787.08 228.467 787.19C232.639 783.958 236.808 780.726 240.98 777.494C248.954 771.321 256.938 765.153 264.885 758.943C265.247 758.662 265.456 757.985 265.469 757.485C265.555 754.767 265.456 752.035 265.609 749.321C265.841 745.312 266.23 741.311 266.507 737.825C263.172 736.407 259.796 734.879 256.353 733.534C253.879 732.566 252.448 730.643 252.131 728.275C251.166 721.102 250.576 713.879 249.693 706.692C249.299 703.497 248.551 700.342 247.962 697.169C249.041 695.669 248.13 694.569 247.233 693.465C247.197 693.174 247.16 692.883 247.124 692.591C246.961 692.137 246.798 691.678 246.635 691.223C246.607 690.928 246.58 690.633 246.553 690.337C246.299 689.414 246.046 688.491 245.788 687.569L245.692 686.692C245.57 686.378 245.448 686.069 245.33 685.755H245.321ZM131.268 460.284C131.187 461.361 131.11 462.439 131.028 463.516C130.652 469.558 130.272 475.594 129.887 481.758C130.358 481.585 130.784 481.48 131.169 481.28C132.945 480.362 133.656 480.672 133.697 482.694C133.743 484.953 133.91 487.326 133.344 489.467C131.246 497.413 129.279 505.436 126.511 513.154C121.355 527.546 115.656 541.737 110.237 556.033C109.82 557.128 109.322 558.632 109.738 559.542C112.575 565.706 115.701 571.729 118.623 577.852C121.111 583.061 123.516 588.316 125.796 593.62C126.149 594.443 125.995 596.043 125.42 596.612C123.326 598.675 121.772 600.689 123.253 603.793C123.562 604.443 123.426 605.307 123.748 605.944C124.056 606.557 124.64 607.389 125.193 607.466C130.43 608.203 135.686 608.812 140.946 609.403C141.472 609.462 142.373 609.298 142.541 608.962C144.032 605.903 146.954 603.212 145.151 599.239C143.279 595.121 143.746 590.72 143.719 586.388C143.719 586.161 143.71 585.934 143.719 585.706C144.467 572.424 145.183 559.142 145.98 545.865C146.346 539.787 146.7 533.7 147.371 527.65C148.431 518.059 149.713 508.491 150.973 498.922C151.629 493.958 152.454 489.017 153.179 484.062C153.533 481.654 153.841 479.239 154.199 476.585C153.27 476.735 152.631 476.862 151.983 476.935C148.649 477.312 145.309 477.94 141.97 477.944C140.131 477.944 137.648 478.062 136.773 475.235C137.657 474.926 138.332 474.512 139.03 474.471C142.831 474.248 146.637 474.057 150.443 473.98C154.421 473.898 154.561 473.985 155.232 470.125C156.754 461.384 158.172 452.62 159.545 443.852C160.387 438.461 160.963 433.029 161.865 427.652C163.115 420.174 164.52 412.724 165.924 405.278C167.918 394.746 169.888 384.205 172.032 373.704C173.309 367.445 174.895 361.253 176.394 354.813C173.174 355.39 170.156 355.776 167.247 356.554C166.481 356.758 165.372 358.381 165.562 358.995C166.301 361.386 164.981 361.736 163.296 361.809C163.197 362.254 163.165 362.559 163.056 362.836C160.447 369.641 157.692 376.391 155.246 383.254C152.821 390.046 150.724 396.959 148.44 403.805C144.204 416.519 139.818 429.184 135.745 441.948C133.833 447.934 131.205 453.793 131.273 460.284H131.268ZM314.569 792.573C313.735 790.766 312.843 789.209 312.281 787.535C308.924 777.558 305.354 767.64 302.449 757.526C300.863 752.003 299.223 746.28 300.46 740.334C300.619 739.58 300.704 738.816 300.759 738.465C295.807 739.243 290.973 740.343 286.084 740.67C281.113 741.002 276.094 740.575 271.413 740.484C270.997 744.652 270.634 749.12 270.077 753.561C269.814 755.648 269.18 757.689 268.649 760.049H275.283C272.514 762.466 268.94 760.962 266.439 763.353C272.165 763.994 277.453 764.59 282.745 765.18C282.858 765.449 282.971 765.721 283.08 765.989C282.527 766.512 281.988 767.485 281.427 767.494C275.976 767.598 270.449 768.276 265.111 765.898C264.368 766.867 263.598 767.867 262.724 769.008C265.528 769.503 268.024 769.871 270.489 770.408C271.921 770.721 272.831 771.821 272.057 773.194C271.54 774.117 270.335 775.135 269.356 775.226C266.18 775.513 262.964 775.299 259.769 775.463C258.107 775.549 256.48 774.235 254.726 775.867C251.777 778.613 248.579 781.099 245.375 783.558C242.018 786.132 238.534 788.556 235.009 791.112C243.567 790.693 251.967 790.318 260.358 789.87C264.762 789.635 269.198 789.533 273.552 788.894C281.113 787.777 288.621 786.316 296.147 784.958C299.169 784.413 300.94 784.945 302.494 787.381C300.387 788.233 298.426 789.393 296.323 789.804C290.709 790.913 285.065 791.942 279.383 792.566C271.645 793.403 263.865 793.829 256.104 794.431C255.433 794.483 254.754 794.483 254.078 794.497C248.447 794.615 242.748 795.305 237.206 794.644C233.056 794.152 229.359 793.756 225.87 796.355C225.812 796.399 225.784 796.48 225.735 796.546C225.807 797.479 225.88 798.419 225.965 799.55C255.456 798.015 285.047 797.876 314.564 792.573H314.569ZM180.323 773.217C177.228 777.44 172.539 779.667 168.022 782.208C164.107 784.408 160.392 786.955 156.482 789.415C160.714 789.782 164.859 790.37 169.01 790.451C175.144 790.568 181.297 790.509 187.427 790.186C193.843 789.841 200.231 788.974 206.647 788.571C210.493 788.328 214.372 788.519 218.231 788.556C219.781 788.571 221.326 788.703 222.871 788.784C222.875 789.041 222.885 789.298 222.889 789.555C222.35 789.665 221.811 789.775 221.276 789.893C219.21 790.348 217.126 790.73 215.092 791.288C214.059 791.567 213.143 792.426 212.11 792.566C208.776 793.021 205.414 793.271 202.066 793.594C196.198 794.174 190.345 794.982 184.464 795.29C174.632 795.797 164.964 794.909 155.635 791.325C152.042 789.937 148.327 792.669 147.819 796.936C172.19 798.419 196.502 801.019 220.497 797.876C220.325 796.906 219.473 795.202 219.958 794.093C220.71 792.375 222.382 791.06 223.238 790.069C222.373 785.263 221.091 780.717 220.864 776.121C220.669 772.149 221.493 768.085 222.182 764.117C223.442 756.844 224.937 749.612 226.36 742.225C225.943 742.107 225.245 741.784 224.534 741.743C223.184 741.666 221.815 741.83 220.465 741.762C216.967 741.589 213.474 741.347 209.963 741.129C209.741 742.325 209.768 743.384 209.333 744.193C208.857 745.071 207.951 745.716 207.236 746.462C206.647 745.857 205.745 745.343 205.537 744.625C205.242 743.612 205.464 742.453 205.464 741.343H195.863C195.6 747.32 196.521 753.348 193.906 758.68C198.709 759.711 203.497 760.739 208.282 761.771C208.246 762.034 208.214 762.303 208.178 762.567C202.746 763.962 197.522 763.253 192.614 760.184C190.159 762.971 187.83 765.617 185.501 768.258C188.578 769.79 192.452 769.953 194.133 774.108C189.361 775.845 185.067 774.076 180.314 773.226L180.323 773.217ZM223.628 706.365C221.131 706.833 220.012 708.387 220.311 711.011C220.392 711.724 221.054 712.374 221.453 713.052C221.666 712.406 221.983 711.779 222.069 711.119C222.287 709.433 221.466 707.428 223.628 706.365ZM195.202 687.978C195.379 688.11 195.555 688.246 195.737 688.378C195.927 687.969 196.113 687.555 196.303 687.146C196.171 687.078 196.04 687.005 195.909 686.937C195.673 687.282 195.437 687.633 195.202 687.978Z" fill="#090909"/>
<path d="M178.162 170.247C177.283 167.46 176.127 164.724 175.597 161.869C174.945 158.346 175.063 154.715 175.937 151.214C176.218 150.101 176.988 148.714 177.931 148.237C180.006 147.188 181.356 148.897 182.629 150.255C183.005 150.655 183.209 151.22 183.49 151.71C184.038 152.551 184.582 153.392 185.131 154.237C185.338 154.119 185.547 154.001 185.76 153.883V151.228C185.919 150.26 186.131 149.301 186.222 148.324C186.362 146.773 186.779 145.278 184.152 145.146C183.159 145.096 181.959 143.287 181.402 142.037C180.735 140.542 180.653 138.783 180.323 137.137C180.328 135.169 180.337 133.196 180.341 131.228C180.649 126.119 180.935 120.941 183.608 116.436C185.611 113.063 188.121 109.995 190.408 106.79C191.469 105.854 192.529 104.913 193.589 103.977C196.724 102.09 199.851 100.177 203.009 98.3265C204.041 97.7219 205.17 97.281 206.257 96.7629C207.607 96.2582 208.958 95.7537 210.308 95.2492C210.761 95.0946 211.214 94.9447 211.667 94.7901C212.881 94.3764 214.095 93.9673 215.309 93.5536C217.878 92.949 220.448 92.34 223.016 91.7354C223.918 91.1036 224.815 90.4718 225.717 89.8355C228.154 87.9536 230.773 89.3537 233.31 89.2173C235.784 89.0855 236.821 90.0581 238.253 91.5809C239.078 92.4582 240.741 92.5354 242.027 92.9763L242.907 93.1219C243.971 93.5265 245.04 93.931 246.105 94.3355C247.16 94.8037 248.221 95.2765 249.277 95.7447C250.626 96.5312 251.981 97.3219 253.331 98.1083C254.546 98.9766 255.76 99.8449 256.979 100.718C258.759 102.313 260.545 103.904 262.325 105.5C262.796 106.077 263.263 106.659 263.734 107.236C264.495 108.281 265.261 109.327 266.022 110.372C266.751 111.427 267.486 112.482 268.215 113.536C268.831 113.768 269.429 114.068 270.064 114.218C270.725 114.373 271.531 114.177 272.08 114.482C273.647 115.35 274.458 118.836 273.466 120.355C272.361 122.046 273.158 123.518 273.593 125.173C274.096 127.078 274.141 128.832 276.656 129.501C278.541 130 278.627 133.05 276.751 134.228C275.514 135.001 275.573 135.837 275.532 136.928C275.428 139.542 275.514 142.201 275.02 144.742C274.648 146.66 273.502 148.428 272.696 150.26C270.938 151.26 271.536 152.915 271.55 154.405C270.226 157.883 268.908 161.36 267.585 164.847C271.056 163.415 274.889 161.833 278.726 160.251C279.795 159.851 280.865 159.456 281.934 159.056C285.654 158.115 289.387 157.215 293.093 156.211C294.095 155.937 295.014 155.365 295.97 154.933C297.171 154.438 298.367 153.938 299.568 153.442C301.484 152.869 303.392 152.251 305.327 151.733C306.862 151.324 308.434 151.042 309.988 150.701C311.347 150.396 312.707 150.092 314.066 149.792C316.182 149.792 318.293 149.792 320.409 149.792C321.909 149.992 323.408 150.192 324.908 150.392C328.927 151.692 332.474 153.788 335.011 157.197C336.063 158.61 336.52 160.47 337.25 162.129L336.298 166.22C335.791 168.12 335.279 170.015 334.722 172.088C335.048 172.211 335.646 172.429 336.244 172.647C337.263 173.102 338.283 173.552 339.307 174.006C342.012 176.633 345.015 179.025 347.345 181.952C350.398 185.793 351.576 190.357 350.33 195.321C350.262 195.598 350.344 195.921 350.357 196.22C349.737 197.144 349.116 198.071 348.5 198.994C347.902 198.257 347.109 197.611 346.746 196.775C345.292 193.43 344.44 189.73 342.515 186.711C337.861 179.411 331.826 176.274 322.675 177.92C316.494 179.029 311.021 181.829 305.458 184.475C304.683 184.857 303.908 185.239 303.133 185.625C298.159 188.075 293.184 190.521 288.213 192.971C287.642 193.216 287.072 193.461 286.501 193.712C286.166 193.921 285.831 194.125 285.495 194.334C284.553 194.821 283.615 195.302 282.673 195.789C279.089 197.498 275.509 199.216 271.926 200.921C271.06 201.334 270.177 201.712 269.302 202.107C269.611 201.07 269.918 200.039 270.231 199.002C274.82 195.984 279.342 192.861 284.018 189.984C287.126 188.071 290.452 186.511 293.678 184.793C294.928 184.047 296.183 183.302 297.434 182.561C301.375 180.742 305.263 178.788 309.272 177.142C314.112 175.156 319.072 173.465 323.952 171.561C324.894 171.193 325.665 170.402 326.562 169.883C328.07 169.015 329.616 168.215 331.075 167.424C332.646 164.261 330.214 162.424 328.728 160.265C327.472 159.051 326.218 157.837 324.962 156.624C320.685 153.278 315.983 153.797 311.225 155.169C309.268 155.733 307.378 156.519 305.458 157.201C304.533 157.588 303.614 157.974 302.689 158.36C298.883 160.233 294.937 161.865 291.299 164.024C284.204 168.233 277.245 172.692 270.299 177.147C267.712 178.807 265.306 180.756 262.819 182.575C261.772 183.32 260.725 184.066 259.679 184.816C257.867 186.179 256.054 187.543 254.242 188.906C253.186 189.666 252.126 190.421 251.071 191.179C246.993 193.903 242.915 196.629 238.833 199.353C237.175 200.266 235.512 201.175 233.854 202.089C230.007 204.38 225.87 206.302 222.391 209.057C217.724 212.757 215.839 218.344 214.929 224.017C214.064 229.381 213.882 234.854 213.461 240.286C213.334 241.945 213.406 243.622 213.389 245.29C213.293 246.058 213.203 246.827 213.108 247.595C212.922 249.145 213.384 250.968 211.227 251.636C207.866 252.681 207.444 252.618 206.384 249.104C205.627 246.595 205.002 243.94 204.962 241.34C204.866 235.699 205.337 230.054 205.274 224.413C205.233 220.935 204.626 217.462 204.232 213.589C196.983 216.844 188.755 217.48 181.8 223.967C182.575 224.303 183.259 224.603 183.943 224.899C184.872 226.271 185.801 227.644 186.73 229.017C187.015 229.458 187.305 229.899 187.59 230.344C188.361 231.717 189.131 233.094 189.901 234.467C191.242 237.64 192.583 240.813 193.924 243.986C194.386 245.195 194.844 246.404 195.306 247.613C195.633 248.586 195.841 249.622 196.312 250.513C197.499 252.755 197.785 255.027 196.743 258.064C195.732 257.25 194.717 256.7 194.083 255.859C192.86 254.25 191.854 252.477 190.753 250.772C189.878 249.695 189.004 248.618 188.13 247.54C186.204 244.799 184.319 242.031 182.348 239.326C179.308 235.145 175.879 231.213 174.157 226.208C174.674 224.917 175.258 223.649 175.688 222.33C175.892 221.699 175.815 220.976 175.865 220.294C177.238 218.503 178.606 216.712 179.979 214.921C181.936 213.816 183.889 212.712 185.846 211.603C191.306 208.653 196.761 205.698 202.225 202.762C207.309 200.03 212.406 197.321 217.607 194.544C217.317 193.925 217.013 193.284 216.823 192.879C211.97 193.734 207.29 194.561 202.61 195.389C201.25 195.539 199.892 195.689 198.532 195.838C194.559 195.143 192.692 192.23 191.301 188.857C190.889 187.861 190.635 186.798 190.313 185.766C190.422 184.097 190.146 182.592 188.587 181.624C188.198 181.029 187.708 180.474 187.441 179.824C187.201 179.238 187.006 178.506 187.155 177.929C187.3 177.352 187.894 176.888 188.288 176.375C188.479 176.475 188.669 176.575 188.854 176.679C188.949 177.379 189.049 178.079 189.154 178.834C191.016 178.707 192.823 178.579 195.252 178.411C194.681 179.616 194.337 180.343 193.992 181.07C191.917 181.956 192.542 183.234 193.489 184.561C193.512 184.711 193.503 184.875 193.566 185.002C196.48 190.429 196.484 190.466 202.85 189.406C208.214 188.516 213.565 187.52 218.925 186.574C219.767 186.475 220.611 186.375 220.936 186.334C221.911 187.703 222.681 188.784 223.451 189.866C224.335 191.961 225.214 194.057 226.174 196.334C228.847 194.802 231.588 193.23 234.33 191.661C235.698 190.911 237.066 190.161 238.439 189.412C243.867 186.53 249.294 183.648 254.722 180.766C256.562 179.57 258.397 178.379 260.205 177.206C259.589 176.302 259.194 175.761 258.841 175.192C257.448 172.962 255.47 172.27 252.905 173.116C250.291 173.243 247.663 173.597 245.063 173.447C239.667 173.129 234.547 171.697 230.116 168.456C224.43 164.297 223.283 158.624 226.546 151.492C227.031 150.429 227.538 149.378 228.073 148.241C222.826 148.987 217.679 149.787 212.509 150.433C209.388 150.824 206.235 150.969 203.104 151.265C202.383 151.333 201.631 151.465 200.983 151.76C199.298 152.538 198.75 153.651 199.261 155.678C199.701 157.411 199.275 159.361 199.234 161.211C199.171 161.515 199.108 161.815 199.044 162.12C198.646 163.943 198.311 165.779 197.839 167.583C197.3 169.642 195.832 170.974 193.806 171.179C191.07 171.456 188.873 170.193 188.211 167.742C187.205 164.034 186.635 160.206 185.841 156.233C185.452 156.355 184.795 156.56 184.21 156.742C183.717 160.887 184.912 165.247 182.004 168.961C183.2 169.838 184.622 170.879 186.046 171.92C185.973 172.233 185.896 172.547 185.824 172.861C184.473 172.792 183.123 172.72 181.773 172.651C180.572 171.847 179.376 171.038 178.176 170.234L178.162 170.247ZM225.304 97.1631C198.627 101.754 184.872 116.491 187.821 142.86C189.992 142.669 192.543 141.692 194.219 142.51C196.013 143.383 196.983 145.955 198.518 148.069C203.358 147.641 208.762 147.065 214.181 146.719C218.811 146.424 223.461 146.405 228.1 146.223C228.73 146.2 229.541 146.128 229.944 145.737C232.445 143.324 234.851 140.819 237.225 138.4C232.825 125.054 231.937 110.373 225.3 97.1631H225.304ZM258.039 164.929C257.056 164.929 256.181 164.942 255.311 164.929C251.596 164.869 248.176 164.115 245.022 161.865C241.896 159.633 240.546 156.787 241.208 153.165C241.855 149.638 244.193 147.292 247.741 146.733C249.635 146.433 251.651 146.955 253.612 147.06C257.658 147.278 261.228 150.055 262.198 153.933C262.501 155.138 262.451 156.433 262.61 158.147C263.394 152.046 262.774 149.069 259.878 145.496C259.176 144.628 258.116 143.537 257.16 143.478C253.418 143.246 249.657 143.383 245.538 143.383C245.221 142.901 244.533 141.869 243.812 140.778C238.402 143.501 234.923 147.705 233.369 153.492C232.363 157.242 232.562 160.847 235.503 163.678C240.097 168.102 252.367 170.538 258.043 164.929H258.039ZM263.757 116.141C262.67 114.454 261.772 113.063 261.093 112.018C259.869 112.072 259.018 112.109 258.116 112.15C258.324 111.027 260.762 110.368 259.081 109.286C256.294 110.136 253.871 110.872 251.451 111.613C251.365 111.372 251.274 111.127 251.189 110.886C253.291 109.8 255.398 108.713 257.704 107.522C252.96 102.299 247.849 98.3402 241.746 96.6674C243.939 103.254 246.123 109.895 248.406 116.5C248.624 117.132 249.553 118.027 250.061 117.973C254.505 117.491 258.931 116.818 263.752 116.145L263.757 116.141ZM250.676 130.196C253.989 130.45 256.594 131.482 257.89 134.687C258.089 135.182 258.728 135.596 259.262 135.841C262.561 137.373 265.533 139.305 267.784 142.242C268.491 143.16 269.325 143.983 270.444 145.228V138.941C268.709 139.66 267.001 139.782 266.226 137.873C265.691 136.56 264.663 134.764 266.733 133.741C268.487 132.873 268.409 131.787 267.907 130.137C267.359 128.355 265.99 126.473 267.549 124.796C262.053 125.745 256.421 126.714 250.681 127.705V130.191L250.676 130.196ZM259.013 122.959C260.553 122.827 261.963 122.764 263.358 122.582C265.197 122.336 267.019 121.991 268.854 121.695C270.136 121.491 270.521 120.736 270.349 119.491C269.996 116.95 269.352 116.532 266.942 117.509C265.732 118 264.001 118.282 263.49 119.205C262.271 121.414 261.433 121.886 259.43 120.477C259.072 120.227 258.496 120.282 258.062 120.205C258.447 121.327 258.723 122.123 259.009 122.959H259.013ZM248.008 134.582C248.402 135.919 248.769 137.164 249.15 138.464H255.03C254.912 137.755 254.976 137.005 254.659 136.487C254.043 135.468 253.997 133.746 252.067 134.069C250.754 134.291 249.422 134.409 248.008 134.582ZM253.01 149.901C254.614 152.124 252.276 156.06 256.762 156.156C257.672 152.437 256.789 150.788 253.01 149.901ZM255.348 123.341C254.279 120.382 253.811 120.195 249.345 121.059C249.621 122.173 249.893 123.277 250.124 124.209C252.054 123.887 253.708 123.614 255.348 123.341ZM251.328 156.911C250.926 154.538 250.599 152.611 250.269 150.688C249.943 150.647 249.616 150.61 249.29 150.569C248.556 152.273 247.818 153.983 247.002 155.874C248.652 156.269 249.72 156.524 251.328 156.911Z" fill="#090909"/>
<path d="M343.882 344.87C343.891 343.202 343.896 341.538 343.905 339.87C343.778 338.201 343.647 336.538 343.52 334.87C342.727 330.529 342.233 326.097 341.041 321.869C340.045 318.346 338.223 315.06 336.764 311.665C336.012 310.415 335.256 309.169 334.504 307.919C332.37 304.446 330.195 300.996 328.107 297.501C324.631 291.696 321.351 285.764 317.717 280.063C315.252 276.195 312.312 272.632 309.59 268.936C308.824 267.686 308.058 266.441 307.292 265.191C306.549 263.863 305.801 262.536 305.058 261.209C304.574 260.004 304.094 258.8 303.609 257.594C301.457 250.971 299.209 244.376 297.238 237.694C296.853 236.39 297.275 234.671 297.791 233.321C298.38 231.78 299.721 231.885 300.682 233.076C302.771 235.671 304.94 238.235 306.712 241.044C310.042 246.317 313.119 251.754 316.322 257.158C318.569 256.645 320.622 256.172 322.674 255.699C324.201 255.277 325.728 254.854 327.255 254.431C327.844 254.399 328.428 254.367 329.017 254.336C329.343 254.272 329.67 254.208 329.991 254.144C330.725 254.058 331.454 253.967 332.188 253.881C333.253 253.622 334.313 253.358 335.378 253.099C341.159 245.88 345.849 238.171 345.382 228.461C345.21 224.825 344.421 221.216 343.918 217.594C343.76 215.016 343.597 212.443 343.438 209.866C343.615 209.166 343.701 208.429 343.986 207.779C344.431 206.779 345.01 205.843 345.532 204.879C346.668 205.752 348.458 206.416 348.816 207.543C349.913 210.961 350.402 214.571 351.236 218.075C351.743 220.212 352.454 222.303 353.075 224.412C353.234 225.471 353.392 226.534 353.555 227.593C353.497 231.976 353.433 236.357 353.375 240.735L351.938 244.799C351.367 246.021 350.801 247.249 350.23 248.471C349.768 249.226 349.306 249.976 348.839 250.731C346.27 253.713 343.661 256.645 339.823 258.045C338.871 258.39 337.866 258.581 336.933 258.972C335.737 259.472 334.49 259.949 333.448 260.694C330.983 262.449 328.65 264.39 326.217 266.195C325.012 267.09 324.536 267.718 325.742 269.213C327.486 271.377 328.8 273.89 330.299 276.259C330.716 276.882 331.128 277.509 331.545 278.132L332.238 279.868C332.696 280.927 333.158 281.991 333.616 283.05C334.771 285.332 335.926 287.618 337.082 289.9L339.375 294.555C340.285 296.523 341.213 298.483 342.093 300.464C343.212 302.982 344.286 305.519 345.377 308.051C345.975 309.869 346.573 311.687 347.177 313.506C347.448 314.419 347.72 315.337 347.992 316.251C348.332 317.61 348.676 318.965 349.016 320.324C349.12 320.933 349.224 321.546 349.329 322.156C349.468 322.619 349.605 323.078 349.745 323.542L350.285 328.056C350.411 329.124 350.538 330.197 350.665 331.265C350.679 331.561 350.697 331.856 350.71 332.147C350.733 332.447 350.76 332.751 350.782 333.052C350.647 336.534 350.506 340.02 350.37 343.502C350.447 344.565 350.525 345.629 350.597 346.688L349.935 351.684L349.474 356.229C349.474 357.593 349.464 358.957 349.46 360.321C349.315 361.534 349.17 362.744 349.029 363.957C349.002 365.771 348.826 367.598 349.016 369.389C349.12 370.348 350.189 371.221 350.248 372.166C350.465 375.43 350.778 378.753 350.407 381.98C349.908 386.303 348.807 390.557 347.969 394.84C347.512 396.049 347.049 397.258 346.592 398.467C342.813 404.763 339.329 411.267 335.16 417.29C331.772 422.19 327.603 426.55 323.693 431.078C322.261 432.737 320.59 434.182 319.027 435.727C318.112 436.614 317.201 437.5 316.286 438.382C314.179 440.068 312.072 441.76 309.961 443.446C308.909 444.237 307.863 445.032 306.812 445.823C297.827 452.196 288.34 457.669 278.241 462.069C277.04 462.556 275.84 463.046 274.644 463.533C272.831 464.151 271.019 464.765 269.207 465.383C268.885 465.469 268.568 465.556 268.247 465.637C265.917 466.465 263.607 467.351 261.251 468.101C260.109 468.465 258.891 468.565 257.287 468.861C258.637 464.815 261.967 463.874 264.513 462.069C265.886 461.096 267.336 460.242 268.754 459.333C269.968 458.619 271.182 457.901 272.396 457.187C273.298 456.692 274.195 456.192 275.097 455.696C276.347 454.951 277.602 454.205 278.853 453.464C283.718 450.605 288.625 447.814 293.432 444.86C295.589 443.532 297.538 441.878 299.581 440.369C300.346 439.75 301.112 439.136 301.878 438.519C305.951 434.632 310.251 430.95 314.039 426.8C318.075 422.373 321.741 417.586 325.356 412.795C327.241 410.295 328.673 407.449 330.313 404.763C330.915 403.736 331.518 402.708 332.12 401.681C334.255 397.363 336.402 393.058 338.5 388.721C338.935 387.826 339.157 386.826 339.479 385.871C340.118 384.494 340.76 383.112 341.399 381.735C342.699 378.776 344.222 375.894 345.205 372.83C345.713 371.244 345.269 369.344 345.251 367.584C345.106 366.221 344.961 364.857 344.816 363.493C344.657 359.252 344.499 355.006 344.344 350.766L343.891 344.857L343.882 344.87Z" fill="#090909"/>
<path d="M280.076 347.975C283.275 347.793 286.478 347.552 289.682 347.443C291.367 347.384 293.093 347.366 294.738 347.67C296.165 347.934 295.789 349.197 295.127 349.857C294.212 350.77 293.111 351.657 291.919 352.097C287.86 353.593 283.728 354.889 279.623 356.262C278.114 356.729 276.601 357.193 275.092 357.661C273.131 358.257 271.165 358.853 269.203 359.448C267.54 359.907 265.882 360.371 264.218 360.83C263.313 360.839 262.407 360.848 261.5 360.852C259.611 360.425 259.837 361.953 259.539 362.989C259.353 363.589 259.162 364.185 258.864 365.152C258.523 364.407 258.315 363.952 258.039 363.352C256.598 364.926 255.189 366.462 253.78 367.993C252.878 368.935 251.981 369.871 251.079 370.812C248.801 373.339 246.522 375.867 244.242 378.394C243.459 379.167 242.675 379.944 241.891 380.717C240.917 381.963 240.07 383.34 238.942 384.421C237.619 385.685 236.042 386.681 234.592 387.812C232.209 389.672 232.009 392.444 232.186 395.017C232.531 400.031 233.315 405.013 233.922 410.009C234.062 411.172 234.234 412.336 234.393 413.499C234.465 414.882 234.542 416.263 234.615 417.645C234.692 418.386 234.774 419.123 234.85 419.864C235 421.227 235.145 422.591 235.294 423.955C235.997 427.95 236.703 431.946 237.406 435.945C237.609 437.101 237.818 438.255 238.022 439.41C239.807 444.673 241.624 449.928 243.354 455.21C243.952 457.028 244.337 458.92 244.818 460.774C244.188 461.842 243.559 462.906 242.933 463.974C241.991 463.529 240.849 463.283 240.133 462.597C236.123 458.737 233.337 454.028 231.122 448.956C230.664 447.592 230.207 446.228 229.749 444.864C229.296 443.351 228.838 441.833 228.385 440.319C227.923 436.682 227.461 433.046 226.994 429.409C226.994 427.441 226.994 425.468 226.999 423.5C226.999 420.014 226.999 416.532 226.994 413.045C227.393 407.613 227.805 402.186 228.177 396.754C228.208 396.285 228 395.799 227.9 395.317C227.9 394.258 227.9 393.195 227.9 392.135C227.914 390.167 227.923 388.194 227.937 386.226C228.589 385.026 229.241 383.83 229.898 382.63C230.696 382.335 231.566 381.662 232.282 381.803C235.943 382.517 237.845 380.34 239.811 377.812C243.522 373.044 247.432 368.43 251.234 363.734C252.484 362.189 253.906 360.716 254.79 358.971C255.452 357.661 255.352 355.975 255.619 354.462C256.534 349.252 257.486 344.052 258.356 338.838C258.519 337.865 258.26 336.833 258.351 335.842C258.922 329.324 259.543 322.81 260.132 316.292C260.3 314.455 260.417 312.614 260.558 310.774C260.702 310.014 260.847 309.26 260.993 308.501C262.384 303.524 263.775 298.546 265.166 293.569C265.782 292.191 266.398 290.814 267.018 289.437C271.078 282.627 275.133 275.813 279.197 269.009C279.6 268.336 280.045 267.691 280.466 267.031C281.263 266.013 282.061 264.995 282.858 263.972C284.349 262.218 285.839 260.468 287.443 258.581C289.373 261.04 288.726 263.154 287.665 265.131C284.535 270.963 281.209 276.691 278.128 282.55C274.494 289.455 270.815 296.351 268.713 303.941C268.301 305.31 267.893 306.682 267.481 308.051C266.398 315.265 265.329 322.478 264.223 329.692C264.01 331.074 263.394 332.442 263.439 333.797C263.508 335.829 263.997 337.847 264.309 339.87V342.961C266.208 341.738 267.952 340.615 269.696 339.488L270.598 339.02C271.97 338.252 273.344 337.483 274.721 336.711C276.529 335.683 278.332 334.651 280.14 333.625C280.887 333.152 281.635 332.679 282.387 332.211C285.862 329.829 289.301 327.392 292.83 325.097C294.076 324.288 295.553 323.824 296.921 323.202L297.579 324.301C287.874 334.752 276.012 342.534 264.083 350.234L264.418 350.92C268.283 350.116 272.152 349.311 276.016 348.507C277.376 348.329 278.735 348.152 280.094 347.975H280.076Z" fill="#090909"/>
<path d="M311.723 370.327C312.212 364.713 312.928 359.104 313.146 353.481C313.594 341.894 313.758 330.302 314.083 318.711C314.129 317.07 314.337 315.411 314.691 313.811C314.813 313.248 315.728 312.361 316.059 312.452C316.684 312.621 317.536 313.329 317.622 313.916C318.479 319.794 319.194 325.693 319.96 331.58C320.105 332.68 320.305 333.776 320.481 334.871C320.481 336.689 320.481 338.507 320.481 340.326V356.236C320.481 357.599 320.477 358.962 320.473 360.326C320.169 364.568 319.869 368.813 319.566 373.054C319.416 374.418 319.267 375.781 319.118 377.145C318.818 378.659 318.515 380.177 318.216 381.691C317.971 382.727 317.722 383.764 317.477 384.8C317.083 385.836 316.689 386.868 316.299 387.905C315.548 388.991 314.791 390.082 314.039 391.168C310.165 396.068 306.432 401.087 302.349 405.796C300.977 407.378 298.611 408.042 296.876 409.36C290.171 414.451 283.542 419.637 276.882 424.788C275.219 425.997 273.561 427.206 271.898 428.415C266.258 432.165 260.694 436.047 254.935 439.606C252.19 441.301 249.163 442.747 245.684 442.065C245.353 441.184 245.017 440.302 244.687 439.415C245.987 438.497 247.269 437.547 248.592 436.665C256.186 431.619 263.906 426.751 271.364 421.51C279.877 415.528 288.218 409.296 296.486 402.982C298.022 401.809 299.032 399.809 299.994 398.032C302.25 393.864 304.334 389.595 306.486 385.368C307.224 384.15 307.963 382.932 308.706 381.713C310.849 379.041 311.012 375.8 311.293 372.595C311.438 371.836 311.587 371.081 311.732 370.322L311.723 370.327Z" fill="#090909"/>
<path d="M164.081 535.786C164.058 534.877 164.035 533.968 164.013 533.059C164.167 531.695 164.321 530.332 164.475 528.968C164.801 527.777 165.123 526.581 165.449 525.39C165.775 526.431 166.106 527.472 166.432 528.518C166.392 537.945 166.359 547.377 166.296 556.805C166.292 557.682 166.092 558.555 165.979 559.428V561.7C165.829 565.487 165.676 569.278 165.526 573.065C165.526 574.882 165.526 576.701 165.526 578.519V592.497C167.932 592.86 169.862 593.152 171.792 593.442C173.151 593.601 174.51 593.76 175.87 593.915C177.492 594.092 179.119 594.469 180.731 594.41C186.966 594.178 193.2 593.806 199.43 593.488C200.788 593.324 202.148 593.165 203.507 593.001L217.154 590.478C218.5 590.146 219.85 589.81 221.195 589.474C221.34 589.442 221.486 589.405 221.631 589.365C222.541 589.097 223.456 588.833 224.367 588.565C228.059 587.696 231.761 586.878 235.436 585.946C237.515 585.419 239.549 584.71 241.606 584.083C242.802 583.72 243.994 583.36 245.19 582.997C247.854 582.524 250.504 581.992 253.182 581.601C254.786 581.369 256.435 581.187 258.043 581.287C259.983 581.405 260.445 583.351 259.19 585.66C258.705 585.987 258.221 586.315 257.736 586.642C251.315 588.829 244.904 591.024 238.48 593.192C236.201 593.96 233.895 594.661 231.602 595.392C230.221 595.765 228.839 596.138 227.457 596.511C226.424 596.752 225.387 596.988 224.353 597.229L220.221 598.374C219.786 598.447 219.351 598.515 218.916 598.588C217.557 598.887 216.198 599.192 214.839 599.493C207.454 600.525 200.068 601.52 192.688 602.597C186.598 603.483 180.555 603.238 174.524 602.111C174.089 602.029 173.627 602.088 173.174 602.084L169.554 601.174C168.457 600.66 167.365 600.143 166.269 599.629C165.485 598.984 164.701 598.333 163.913 597.688C163.201 595.083 162.486 592.479 161.775 589.874C161.62 588.815 161.467 587.751 161.312 586.692C161.34 582.792 161.276 578.887 161.426 574.992C161.562 571.464 161.938 567.941 162.205 564.419C162.205 563.66 162.214 562.905 162.218 562.146C162.518 558.359 162.816 554.568 163.111 550.781C163.111 549.722 163.111 548.659 163.111 547.6C163.111 547.145 163.12 546.691 163.125 546.236C163.27 545.177 163.419 544.114 163.564 543.054C163.6 541.841 163.637 540.632 163.673 539.418C163.809 538.204 163.95 536.995 164.085 535.781L164.081 535.786Z" fill="#090909"/>
<path d="M238.847 245.4C234.058 247.373 229.3 249.423 224.47 251.282C221.997 252.232 219.206 251.832 217.842 250.541C220.679 249.082 223.501 247.782 226.178 246.223C235.195 240.968 244.225 235.736 253.114 230.277C259.842 226.149 266.502 221.959 274.191 219.813C274.948 219.658 275.699 219.503 276.456 219.349C280.266 218.917 284.082 218.504 287.888 218.045C292.726 217.462 297.556 216.835 302.395 216.245C304.017 216.044 305.643 215.894 307.266 215.722C308.625 215.567 309.984 215.413 311.343 215.258C316.78 214.354 322.217 213.453 327.654 212.549C328.718 212.281 329.779 212.008 330.843 211.74C333.648 210.831 336.47 209.977 339.247 208.995C340.779 208.453 342.125 208.171 343.09 209.871C342.465 210.453 341.844 211.03 341.219 211.613C338.582 212.99 335.963 214.408 333.295 215.722C332.071 216.326 330.748 216.727 329.471 217.222C328.406 217.626 327.337 218.026 326.272 218.431C323.699 219.177 321.129 219.922 318.556 220.672C317.201 220.985 315.842 221.295 314.488 221.608C312.816 221.876 311.144 222.144 309.472 222.418C308.434 222.636 307.401 222.849 306.364 223.068C304.551 223.395 302.739 223.722 300.927 224.045C299.568 224.045 298.208 224.045 296.849 224.045C296.546 224.045 296.246 224.045 295.943 224.045C294.887 224.349 293.827 224.649 292.772 224.954C292.318 224.954 291.865 224.954 291.412 224.954C290.357 225.104 289.297 225.258 288.24 225.409C286.429 225.409 284.616 225.408 282.804 225.404C280.516 225.777 278.228 226.145 275.944 226.518C271.391 228.513 266.819 230.468 262.298 232.536C260.907 233.172 259.656 234.122 258.338 234.931C257.577 235.349 256.815 235.772 256.054 236.191C255.583 236.499 255.112 236.809 254.641 237.118C253.599 237.713 252.557 238.305 251.519 238.899C248.506 240.464 245.493 242.027 242.485 243.591C241.275 244.195 240.07 244.805 238.86 245.409L238.847 245.4Z" fill="#090909"/>
<path d="M291.793 568.514C291.589 560.032 291.517 551.541 291.132 543.063C290.887 537.695 290.321 532.331 289.632 526.999C288.944 521.695 287.906 516.44 287.054 511.154C286.252 506.19 285.478 501.221 284.716 496.253C284.041 491.857 283.407 487.452 282.754 483.052C282.605 481.839 282.456 480.63 282.301 479.416C282.175 477.652 281.889 475.884 281.989 474.134C282.034 473.307 282.822 472.525 283.271 471.72C283.855 472.302 284.77 472.784 284.965 473.475C286.148 477.616 287.163 481.802 288.232 485.98C288.717 487.88 289.188 489.784 289.664 491.689C289.813 492.448 289.968 493.203 290.117 493.962C291.463 500.326 292.808 506.69 294.154 513.054C294.322 514.113 294.484 515.176 294.652 516.235L295.993 523.053C296.152 524.417 296.306 525.781 296.464 527.145C296.918 534.113 297.371 541.086 297.824 548.055C297.824 549.418 297.824 550.782 297.824 552.145C297.04 559.6 296.284 567.055 295.445 574.505C295.246 576.283 294.634 577.896 292.31 577.674C292.015 576.587 291.717 575.506 291.422 574.419C291.435 573.505 291.444 572.587 291.458 571.673C291.572 570.619 291.68 569.564 291.793 568.51V568.514Z" fill="#090909"/>
<path d="M186.766 347.194C187.097 347.049 187.568 346.681 187.741 346.785C190.885 348.799 193.961 346.812 196.974 346.476C205.016 345.571 213.008 344.871 221.109 345.721C225.568 346.189 229.799 347.23 233.79 349.221C234.525 349.585 235.299 350.253 235.612 350.976C235.888 351.612 235.743 352.635 235.39 353.263C235.204 353.595 234.144 353.594 233.528 353.485C229.477 352.776 225.463 351.576 221.386 351.335C215.155 350.967 208.881 351.131 202.633 351.272C197.427 351.39 192.23 351.789 187.029 352.076C185.398 352.167 184.763 351.548 185.416 349.935C185.869 349.021 186.318 348.108 186.771 347.194H186.766Z" fill="#090909"/>
<path d="M238.66 282.987C235.588 286.383 232.652 289.91 229.377 293.096C228.18 294.26 226.237 294.815 224.533 295.238C223.45 295.506 222.952 294.606 223.31 293.387C224.031 290.947 224.66 288.478 225.29 286.164C223.6 285.946 221.996 285.738 219.975 285.478C222.653 281.205 224.946 277.209 227.628 273.496C228.307 272.555 230.242 272.519 231.597 272.068C232.806 271.919 234.012 271.764 235.221 271.614C236.603 271.614 237.981 271.614 239.865 271.614C239.661 273.191 239.417 275.041 239.172 276.914C239.82 277.228 240.744 277.674 241.691 278.128C240.926 279.46 240.314 280.519 239.707 281.578C239.358 282.051 239.009 282.519 238.66 282.992V282.987ZM234.659 274.664C234.6 274.469 234.542 274.273 234.482 274.078C233.037 274.568 231.152 274.646 230.237 275.628C228.348 277.66 226.976 280.178 225.498 282.342C226.858 282.405 228.317 282.469 230.092 282.551C229.227 284.756 228.52 286.564 227.809 288.369C228.071 288.56 228.339 288.755 228.602 288.946C231.475 285.923 234.347 282.896 237.613 279.46C235.444 279.642 234.039 279.76 231.982 279.937C233.078 277.773 233.871 276.223 234.659 274.669V274.664Z" fill="#090909"/>
<path d="M221.177 469.798C222.917 469.662 224.657 469.53 226.396 469.394C226.428 469.558 226.455 469.726 226.487 469.889C223.356 470.517 220.23 471.144 217.099 471.771C214.059 472.444 211.019 473.117 207.979 473.785C203.013 474.475 198.052 475.166 193.086 475.862C191.722 475.971 190.359 476.08 188.991 476.189C180.736 476.503 175.997 475.953 172.839 473.753C180.482 473.221 188.125 472.726 195.764 472.143C203.485 471.557 211.196 470.889 218.912 470.253C219.668 470.098 220.421 469.948 221.177 469.793V469.798Z" fill="#090909"/>
<path d="M285.998 397.073C283.271 392.55 280.544 388.032 277.816 383.509C277.376 382.446 276.937 381.377 276.497 380.314C276.348 379.382 276.062 378.45 276.089 377.523C276.108 376.95 276.606 376.39 276.892 375.827L278.672 378.527C280.068 381.25 281.468 383.968 282.863 386.691C283.588 388.068 284.317 389.445 285.043 390.823C286.175 393.078 287.326 395.318 288.423 397.586C288.626 398.005 288.603 398.537 288.685 399.014C287.788 398.364 286.891 397.719 285.998 397.069V397.073Z" fill="#090909"/>
<path d="M304.638 425.761C303.79 426.747 303.219 427.929 302.304 428.352C300.977 428.96 300.51 427.692 300.029 426.629C299.173 424.738 298.299 422.833 297.207 421.07C296.536 419.983 295.63 418.847 296.559 417.81C297.674 416.569 301.262 417.051 301.96 418.519C302.997 420.701 303.663 423.061 304.638 425.756V425.761Z" fill="#090909"/>
<path d="M211.209 159.787C213.012 159.81 214.816 159.796 216.615 159.887C217.058 159.91 217.588 160.191 217.879 160.527C218.01 160.682 217.77 161.368 217.507 161.623C215.287 163.805 206.243 165.073 203.453 163.637C203.326 163.573 203.244 163.423 202.977 163.137C203.743 162.223 204.531 161.278 205.32 160.332C207.281 160.151 209.248 159.968 211.209 159.787Z" fill="#090909"/>
<path d="M185.353 703.922C183.391 710.454 181.429 716.991 179.467 723.523C179.399 722.773 179.086 721.941 179.304 721.282C180.699 717.064 182.271 712.905 183.653 708.682C184.179 707.077 183.517 705.063 185.348 703.918L185.353 703.922Z" fill="#090909"/>
<path d="M157.728 802.531C157.882 802.296 158.04 801.841 158.19 801.848C161.516 801.914 164.837 802.031 168.163 802.142C167.129 802.303 166.096 802.582 165.063 802.604C162.621 802.641 160.175 802.56 157.728 802.531Z" fill="#090909"/>
<path d="M175.856 220.299C175.806 220.981 175.887 221.704 175.679 222.336C175.249 223.654 174.669 224.922 174.148 226.213C173.795 225.309 173.441 224.409 173.087 223.504C173.763 222.613 174.442 221.722 175.117 220.836C175.362 220.659 175.607 220.481 175.851 220.299H175.856Z" fill="#090909"/>
<path d="M173.151 802.656C172.698 802.487 172.249 802.31 171.796 802.142C173.953 801.701 176.123 800.952 178.153 802.545C176.486 802.582 174.818 802.619 173.156 802.656H173.151Z" fill="#090909"/>
<path d="M350.682 329.847C350.674 330.32 350.664 330.797 350.655 331.27C350.529 330.202 350.402 329.129 350.275 328.061C350.411 328.657 350.547 329.251 350.682 329.851V329.847Z" fill="#090909"/>
<path d="M350.701 332.152C350.85 332.443 350.995 332.739 351.145 333.03C351.023 333.052 350.9 333.061 350.773 333.057C350.75 332.756 350.723 332.452 350.701 332.152Z" fill="#090909"/>
<path d="M296.45 690.338L296.034 691.201C295.875 690.887 295.712 690.573 295.553 690.26C295.689 690.128 295.825 689.992 295.961 689.86C296.124 690.019 296.288 690.178 296.45 690.342V690.338Z" fill="#090909"/>
<path d="M197.571 684.384C199.048 681.712 200.53 679.039 202.016 676.348C201.001 676.503 200.008 676.652 199.021 676.807C198.953 676.566 198.885 676.33 198.822 676.089C199.923 675.753 201.019 675.416 202.691 674.902C202.238 679.253 199.814 682.017 197.806 684.967C197.73 684.771 197.653 684.58 197.571 684.389V684.384Z" fill="#F6F6F6"/>
<path d="M223.633 706.365C221.467 707.428 222.287 709.433 222.074 711.119C221.988 711.779 221.671 712.41 221.458 713.052C221.059 712.374 220.398 711.724 220.316 711.011C220.022 708.388 221.136 706.833 223.633 706.365Z" fill="#F6F6F6"/>
<path d="M295.553 690.259C295.712 690.573 295.875 690.886 296.033 691.2C295.802 691.232 295.572 691.259 295.34 691.291C294.008 689.777 292.676 688.268 291.349 686.754C291.381 686.577 291.412 686.4 291.444 686.223C292.812 687.568 294.185 688.914 295.553 690.259Z" fill="#F6F6F6"/>
<path d="M224.652 717.36C225.109 719.051 224.398 720.501 223.705 721.956C223.591 721.852 223.478 721.742 223.365 721.638C223.691 720.142 224.013 718.647 224.339 717.151C224.429 717.237 224.534 717.306 224.652 717.36Z" fill="#F6F6F6"/>
<path d="M247.958 697.174C247.713 695.938 247.469 694.701 247.229 693.469C248.126 694.574 249.041 695.678 247.958 697.174Z" fill="#090909"/>
<path d="M223.32 723.722C222.89 725.259 222.459 726.795 222.029 728.331C221.839 728.282 221.644 728.227 221.454 728.177C221.956 726.614 222.459 725.049 222.962 723.486C223.071 723.586 223.188 723.664 223.32 723.722Z" fill="#F6F6F6"/>
<path d="M189.456 802.591C188.4 802.591 187.345 802.598 186.294 802.598C187.349 802.598 188.406 802.598 189.456 802.591Z" fill="#090909"/>
<path d="M246.549 690.336C246.295 689.414 246.041 688.491 245.783 687.568C246.036 688.491 246.29 689.414 246.549 690.336Z" fill="#090909"/>
<path d="M290.243 685.699C289.709 684.986 289.174 684.272 288.639 683.558C288.743 683.449 288.852 683.34 288.956 683.23C289.496 683.908 290.03 684.585 290.569 685.263C290.46 685.408 290.351 685.553 290.243 685.699Z" fill="#F6F6F6"/>
<path d="M244.691 682.617C244.6 682.149 244.505 681.681 244.415 681.208C244.505 681.676 244.6 682.144 244.691 682.617Z" fill="#090909"/>
<path d="M247.119 692.591C246.956 692.137 246.793 691.678 246.63 691.223L247.119 692.591Z" fill="#090909"/>
<path d="M224.344 717.151V715.046C224.503 715.05 224.666 715.06 224.825 715.064C224.77 715.828 224.711 716.595 224.657 717.359C224.544 717.305 224.44 717.237 224.349 717.151H224.344Z" fill="#F6F6F6"/>
<path d="M223.709 721.951C223.578 722.542 223.447 723.133 223.32 723.723C223.188 723.665 223.066 723.588 222.962 723.487C223.098 722.869 223.238 722.251 223.374 721.633C223.488 721.738 223.601 721.846 223.714 721.951H223.709Z" fill="#F6F6F6"/>
<path d="M245.688 686.691C245.566 686.378 245.444 686.069 245.326 685.755C245.448 686.069 245.57 686.378 245.688 686.691Z" fill="#090909"/>
<path d="M287.982 682.978C287.688 682.624 287.394 682.269 287.099 681.915C287.185 681.841 287.266 681.764 287.348 681.678C287.661 681.974 287.973 682.269 288.282 682.565L287.982 682.978Z" fill="#F6F6F6"/>
<path d="M290.901 686.301C290.683 686.101 290.461 685.901 290.243 685.701C290.352 685.555 290.461 685.41 290.57 685.264C290.86 685.582 291.15 685.901 291.439 686.219C291.259 686.246 291.077 686.269 290.896 686.296L290.901 686.301Z" fill="#F6F6F6"/>
<path d="M288.644 683.558C288.422 683.367 288.2 683.172 287.983 682.981C288.083 682.845 288.182 682.704 288.282 682.568C288.509 682.79 288.735 683.008 288.966 683.231C288.861 683.34 288.753 683.45 288.648 683.558H288.644Z" fill="#F6F6F6"/>
<path d="M291.354 686.749C291.204 686.599 291.055 686.444 290.905 686.294C291.086 686.267 291.268 686.244 291.449 686.217C291.417 686.394 291.385 686.572 291.354 686.749Z" fill="#F6F6F6"/>
<path d="M197.812 684.98C197.622 684.948 197.431 684.917 197.241 684.885L197.572 684.381C197.649 684.571 197.726 684.762 197.808 684.958L197.812 684.976V684.98Z" fill="#F6F6F6"/>
<path d="M287.094 681.919C287.057 681.737 287.022 681.551 286.985 681.369C287.103 681.473 287.225 681.578 287.343 681.682C287.266 681.764 287.184 681.842 287.094 681.919Z" fill="#F6F6F6"/>
<path d="M286.881 758.646C285.078 759.365 283.243 760.006 281.485 760.819C279.333 761.82 278.522 760.897 278.377 758.619C281.145 758.405 283.977 758.187 286.813 757.969C286.836 758.197 286.859 758.419 286.881 758.646Z" fill="#090909"/>
</g>
<defs>
<clipPath id="clip0_1976_923">
<rect y="0.84375" width="456" height="520" rx="8" fill="white"/>
</clipPath>
</defs>
</svg>
