<svg width="1200" height="630" viewBox="0 0 1200 630" fill="none" xmlns="http://www.w3.org/2000/svg">
<rect width="1200" height="630" fill="#010101"/>
<path d="M414.462 332L427.484 298.336H435.796L448.818 332H441.06L438.567 325.027H424.529L421.989 332H414.462ZM430.07 310.019L426.791 319.024H436.35L433.071 310.019C432.563 308.68 432.148 307.295 431.594 305.448C431.04 307.295 430.578 308.68 430.07 310.019ZM469.189 308.819C469.05 305.171 466.465 303.647 463.324 303.647C460.092 303.647 458.43 305.078 458.43 307.203C458.43 310.296 461.801 310.943 466.834 312.005C472.837 313.252 476.993 315.976 476.993 322.118C476.993 328.306 472.098 332.462 463.648 332.462C455.336 332.462 450.395 328.075 450.118 321.564L457.229 320.594C457.321 324.842 459.907 326.69 463.694 326.69C467.157 326.69 469.328 325.489 469.328 322.672C469.328 319.578 466.326 318.932 463.14 318.239C456.536 316.761 450.903 314.776 450.903 307.895C450.903 301.984 455.89 297.921 463.324 297.921C471.313 297.921 476.023 301.892 476.347 307.849L469.189 308.819ZM481.758 319.901V298.336H489.008V319.44C489.008 324.104 491.963 325.997 496.442 325.997C501.568 325.997 503.831 323.549 503.831 319.44V298.336H511.081V319.901C511.081 327.428 506.093 332.462 496.35 332.462C487.207 332.462 481.758 327.936 481.758 319.901ZM517.302 332V298.336H534.711C541.406 298.336 545.701 301.8 545.701 307.572C545.701 311.405 543.715 314.406 540.252 315.561C544.593 316.484 545.193 318.562 545.193 321.887V329.645C545.193 330.384 545.378 331.215 545.978 331.538V332H538.405C538.128 331.354 537.897 330.568 537.897 329.091V322.718C537.897 320.409 537.435 319.116 534.711 319.116H524.598V332H517.302ZM524.598 313.206H533.094C536.327 313.206 538.128 311.543 538.128 308.819C538.128 305.956 536.188 304.478 533.187 304.478H524.598V313.206ZM548.711 332L561.733 298.336H570.045L583.068 332H575.31L572.816 325.027H558.778L556.238 332H548.711ZM564.319 310.019L561.041 319.024H570.6L567.321 310.019C566.813 308.68 566.397 307.295 565.843 305.448C565.289 307.295 564.827 308.68 564.319 310.019ZM613.765 308.819C613.627 305.171 611.041 303.647 607.901 303.647C604.668 303.647 603.006 305.078 603.006 307.203C603.006 310.296 606.377 310.943 611.41 312.005C617.413 313.252 621.569 315.976 621.569 322.118C621.569 328.306 616.675 332.462 608.224 332.462C599.912 332.462 594.971 328.075 594.694 321.564L601.805 320.594C601.898 324.842 604.484 326.69 608.27 326.69C611.733 326.69 613.904 325.489 613.904 322.672C613.904 319.578 610.902 318.932 607.716 318.239C601.113 316.761 595.479 314.776 595.479 307.895C595.479 301.984 600.466 297.921 607.901 297.921C615.89 297.921 620.6 301.892 620.923 307.849L613.765 308.819ZM634.288 332V304.524H623.621V298.336H652.159V304.524H641.585V332H634.288ZM655.872 319.901V298.336H663.122V319.44C663.122 324.104 666.077 325.997 670.556 325.997C675.682 325.997 677.945 323.549 677.945 319.44V298.336H685.195V319.901C685.195 327.428 680.207 332.462 670.464 332.462C661.321 332.462 655.872 327.936 655.872 319.901ZM691.416 332V298.336H705.777C715.382 298.336 721.523 304.617 721.523 315.191C721.523 325.258 715.844 332 705.777 332H691.416ZM705.315 304.57H698.712V325.766H705.315C710.626 325.766 713.904 322.21 713.904 315.053C713.904 308.68 711.133 304.57 705.315 304.57ZM733.931 332H726.635V298.336H733.931V332ZM754.885 332.462C745.187 332.462 739.046 326.551 739.046 315.145C739.046 304.617 744.449 297.921 754.885 297.921C764.582 297.921 770.77 303.785 770.77 315.145C770.77 325.72 765.321 332.462 754.885 332.462ZM754.885 325.951C759.964 325.951 763.104 322.626 763.104 315.145C763.104 308.542 760.519 304.432 754.885 304.432C749.851 304.432 746.711 307.757 746.711 315.145C746.711 321.749 749.251 325.951 754.885 325.951Z" fill="#F6F6F6"/>
<path d="M779.087 307.861C776.013 307.861 773.553 305.721 773.553 302.512C773.553 299.302 776.013 297.163 779.087 297.163C782.161 297.163 784.608 299.29 784.608 302.487C784.608 305.721 782.161 307.861 779.087 307.861ZM779.087 306.828C781.571 306.828 783.489 305.143 783.489 302.487C783.489 299.917 781.62 298.184 779.099 298.184C776.578 298.184 774.685 299.88 774.685 302.512C774.685 305.106 776.529 306.828 779.087 306.828ZM777.07 305.156V299.844H779.628C780.698 299.844 781.349 300.446 781.349 301.368C781.349 301.983 781.017 302.45 780.439 302.672C780.968 302.733 781.251 303.09 781.251 303.668V304.578C781.251 304.824 781.312 304.971 781.46 304.996V305.156H780.156C780.07 305.045 780.058 304.75 780.058 304.492V303.815C780.058 303.409 779.849 303.151 779.357 303.151H778.275V305.156H777.07ZM778.275 302.241H779.308C779.812 302.241 780.095 302.02 780.095 301.553C780.095 301.11 779.849 300.876 779.308 300.876H778.275V302.241Z" fill="#F6F6F6"/>
</svg>
