<svg width="1200" height="630" viewBox="0 0 1200 630" fill="none" xmlns="http://www.w3.org/2000/svg">
<rect width="1200" height="630" fill="#010101"/>
<path d="M591.199 348.774L591.199 375L608.711 375L608.711 348.751C608.709 347.729 609.006 346.729 609.566 345.873C610.126 345.018 610.925 344.345 611.863 343.938C612.801 343.531 613.838 343.407 614.846 343.581C615.854 343.756 616.789 344.222 617.535 344.921L636.408 363.78L648.794 351.403L621.119 323.75L660 323.75L660 306.228L621.21 306.228L648.885 278.574L636.499 266.198L617.626 285.057C616.88 285.756 615.945 286.222 614.937 286.396C613.929 286.571 612.892 286.447 611.954 286.04C611.015 285.632 610.217 284.959 609.657 284.104C609.097 283.249 608.8 282.248 608.802 281.226L608.802 255L591.289 255L591.289 281.203C591.289 282.592 590.737 283.924 589.755 284.906C588.772 285.888 587.439 286.439 586.049 286.439C584.702 286.441 583.404 285.93 582.42 285.011L564.59 267.172L552.181 279.549L578.881 306.228L540 306.228L540 323.75L578.79 323.75L552.091 350.429L564.499 362.805L582.329 344.966C583.314 344.047 584.611 343.537 585.958 343.538C586.647 343.538 587.328 343.673 587.964 343.936C588.6 344.2 589.177 344.585 589.664 345.072C590.15 345.558 590.536 346.135 590.8 346.77C591.063 347.406 591.199 348.086 591.199 348.774Z" fill="#F6F6F6"/>
</svg>
